<svg width="50" height="50" viewBox="0 0 50 50" fill="none" xmlns="http://www.w3.org/2000/svg">
<g clip-path="url(#clip0_880_111433)">
<path d="M34.7143 24.7857C34.7143 23.9129 34.1367 23.1429 33.2126 23.1429H24.1769L27.9375 19.3823C28.2455 19.0742 28.4252 18.6507 28.4252 18.2143C28.4252 17.7779 28.2455 17.3544 27.9375 17.0463L26.9749 16.0965C26.6669 15.7885 26.2561 15.6088 25.8198 15.6088C25.3834 15.6088 24.9598 15.7885 24.6518 16.0965L16.2963 24.4392C16.0011 24.7472 15.8214 25.1708 15.8214 25.6071C15.8214 26.0435 16.0011 26.4671 16.2963 26.7623L24.6518 35.1306C24.9598 35.4258 25.3834 35.6055 25.8198 35.6055C26.2561 35.6055 26.6797 35.4258 26.9749 35.1306L27.9375 34.1551C28.2455 33.8599 28.4252 33.4364 28.4252 33C28.4252 32.5636 28.2455 32.1401 27.9375 31.8449L24.1769 28.0714H33.2126C34.1367 28.0714 34.7143 27.3013 34.7143 26.4286V24.7857Z" fill="#002E5F"/>
<circle cx="25" cy="25" r="24.5" stroke="#002E5F"/>
</g>
<defs>
<clipPath id="clip0_880_111433">
<rect width="50" height="50" fill="white"/>
</clipPath>
</defs>
</svg>
