<svg width="50" height="50" viewBox="0 0 50 50" fill="none" xmlns="http://www.w3.org/2000/svg">
<g clip-path="url(#clip0_880_111428)">
<path d="M15.2857 24.7857C15.2857 23.9129 15.8633 23.1429 16.7874 23.1429H25.8231L22.0625 19.3823C21.7545 19.0742 21.5748 18.6507 21.5748 18.2143C21.5748 17.7779 21.7545 17.3544 22.0625 17.0463L23.0251 16.0965C23.3331 15.7885 23.7439 15.6088 24.1802 15.6088C24.6166 15.6088 25.0402 15.7885 25.3482 16.0965L33.7037 24.4392C33.9989 24.7472 34.1786 25.1708 34.1786 25.6071C34.1786 26.0435 33.9989 26.4671 33.7037 26.7623L25.3482 35.1306C25.0402 35.4258 24.6166 35.6055 24.1802 35.6055C23.7439 35.6055 23.3203 35.4258 23.0251 35.1306L22.0625 34.1551C21.7545 33.8599 21.5748 33.4364 21.5748 33C21.5748 32.5636 21.7545 32.1401 22.0625 31.8449L25.8231 28.0714H16.7874C15.8633 28.0714 15.2857 27.3013 15.2857 26.4286V24.7857Z" fill="#0179B7"/>
<circle cx="25" cy="25" r="24.5" transform="matrix(-1 0 0 1 50 0)" stroke="#0179B7"/>
</g>
<defs>
<clipPath id="clip0_880_111428">
<rect width="50" height="50" fill="white" transform="matrix(-1 0 0 1 50 0)"/>
</clipPath>
</defs>
</svg>
