<?xml version="1.0" encoding="utf-8"?>
<!-- Generator: Adobe Illustrator 25.4.1, SVG Export Plug-In . SVG Version: 6.00 Build 0)  -->
<svg version="1.1" xmlns="http://www.w3.org/2000/svg" xmlns:xlink="http://www.w3.org/1999/xlink" x="0px" y="0px"
	 viewBox="0 0 16 16" style="enable-background:new 0 0 16 16;" xml:space="preserve">
<path style="fill:#FFFFFF;" d="M9.11,14.97l-0.8,0.81c-0.3,0.3-0.9,0.3-1.2,0L0.22,8.61c-0.3-0.3-0.3-0.91,0-1.21l6.89-7.17
	c0.3-0.3,0.9-0.3,1.2,0l0.8,0.81c0.3,0.3,0.3,0.91,0,1.31L4.82,6.49H15.1c0.5,0,0.9,0.4,0.9,0.91v1.21c0,0.5-0.4,0.91-0.9,0.91H4.82
	l4.29,4.24C9.41,14.06,9.41,14.66,9.11,14.97L9.11,14.97z"/>
</svg>
