<svg width="12" height="13" viewBox="0 0 12 13" fill="none" xmlns="http://www.w3.org/2000/svg">
<path d="M0.499999 6.5C0.499999 6.76563 0.601562 7.02344 0.789061 7.20313L5.875 12.2891C6.0625 12.4766 6.32031 12.5859 6.58594 12.5859C6.85156 12.5859 7.10156 12.4766 7.28906 12.2891L7.875 11.7031C8.0625 11.5234 8.17187 11.2656 8.17187 11C8.17187 10.7344 8.0625 10.4766 7.875 10.2969L5.58594 8L11.0859 8C11.6484 8 12 7.53125 12 7L12 6C12 5.46875 11.6484 5 11.0859 5L5.58594 5L7.875 2.71094C8.0625 2.52344 8.17187 2.26563 8.17187 2C8.17187 1.73438 8.0625 1.47656 7.875 1.28906L7.28906 0.703125C7.10156 0.523438 6.85156 0.414063 6.58594 0.414063C6.32031 0.414063 6.0625 0.523438 5.875 0.703125L0.789061 5.78906C0.601562 5.97656 0.499999 6.23438 0.499999 6.5Z" fill="#002E5F"/>
</svg>
