<?xml version="1.0" encoding="utf-8"?>
<!-- Generator: Adobe Illustrator 25.4.1, SVG Export Plug-In . SVG Version: 6.00 Build 0)  -->
<svg version="1.1" xmlns="http://www.w3.org/2000/svg" xmlns:xlink="http://www.w3.org/1999/xlink" x="0px" y="0px"
	 viewBox="0 0 16 16" style="enable-background:new 0 0 16 16;" xml:space="preserve">
<path style="fill:#FFC627;" d="M9.17,2.25L4.75,6.49H15.1c0.5,0,0.9,0.4,0.9,0.91v1.21c0,0.5-0.4,0.91-0.9,0.81H4.85l4.32,4.24
	c0.3,0.4,0.3,1.01,0,1.31l-0.8,0.81c-0.3,0.3-0.9,0.3-1.21,0L0.23,8.61c-0.3-0.3-0.3-0.91,0-1.21l6.93-7.17c0.3-0.3,0.9-0.3,1.21,0
	l0.8,0.81C9.47,1.34,9.47,1.94,9.17,2.25z"/>
</svg>
