<?xml version="1.0" encoding="utf-8"?>
<!-- Generator: Adobe Illustrator 25.4.1, SVG Export Plug-In . SVG Version: 6.00 Build 0)  -->
<svg version="1.1" xmlns="http://www.w3.org/2000/svg" xmlns:xlink="http://www.w3.org/1999/xlink" x="0px" y="0px"
	 viewBox="0 0 16 16" style="enable-background:new 0 0 16 16;" xml:space="preserve">
<path style="fill:#FFC627;" d="M6.83,1.03l0.8-0.81c0.3-0.3,0.9-0.3,1.21,0l6.93,7.17c0.3,0.3,0.3,0.91,0,1.21l-6.93,7.17
	c-0.3,0.3-0.9,0.3-1.21,0l-0.8-0.81c-0.3-0.3-0.3-0.91,0-1.31l4.32-4.24H0.9C0.4,9.51,0,9.11,0,8.61V7.39c0-0.5,0.4-0.91,0.9-0.91
	h10.35L6.83,2.25C6.53,1.94,6.53,1.34,6.83,1.03z"/>
</svg>
