<?xml version="1.0" encoding="utf-8"?>
<!-- Generator: Adobe Illustrator 25.4.1, SVG Export Plug-In . SVG Version: 6.00 Build 0)  -->
<svg version="1.1" xmlns="http://www.w3.org/2000/svg" xmlns:xlink="http://www.w3.org/1999/xlink" x="0px" y="0px"
	 viewBox="0 0 16 16" style="enable-background:new 0 0 16 16;" xml:space="preserve">
<path style="fill:#FFFFFF;" d="M6.8,1l0.8-0.8c0.3-0.3,0.9-0.3,1.2,0l6.9,7.2c0.3,0.3,0.3,0.9,0,1.2l-6.9,7.2
	c-0.3,0.3-0.9,0.3-1.2,0L6.8,15c-0.3-0.3-0.3-0.9,0-1.3l4.3-4.2H0.9C0.4,9.5,0,9.1,0,8.6V7.4c0-0.5,0.4-0.9,0.9-0.9h10.3L6.8,2.2
	C6.5,1.9,6.5,1.3,6.8,1z"/>
</svg>
