<svg xmlns="http://www.w3.org/2000/svg" viewBox="0 0 52 48"><defs><style>.cls-1,.cls-2{fill:none;stroke:#37464c;stroke-linejoin:round;stroke-width:2px;}.cls-2{stroke-linecap:round;}</style></defs><g data-name="Layer 2"><g><circle class="cls-1" cx="9" cy="37" r="4"/><path class="cls-2" d="M3,47a6,6,0,0,1,12,0"/><circle class="cls-1" cx="26" cy="37" r="4"/><path class="cls-2" d="M20,47a6,6,0,0,1,12,0"/><circle class="cls-1" cx="43" cy="37" r="4"/><path class="cls-2" d="M37,47a6,6,0,0,1,12,0"/><circle class="cls-1" cx="10" cy="5.5" r="4.5"/><path class="cls-2" d="M15,31V17a2,2,0,0,1,2-2H27a2,2,0,0,0,2-2h0a2,2,0,0,0-2-2H10c-5,0-9,2.27-9,6v8a4,4,0,0,0,4,4V18"/><path class="cls-2" d="M19,29H48a3,3,0,0,0,3-3V4a3,3,0,0,0-3-3H18"/><line class="cls-2" x1="27" y1="5" x2="37" y2="5"/><line class="cls-2" x1="33" y1="11" x2="45" y2="11"/><line class="cls-2" x1="33" y1="15" x2="45" y2="15"/><line class="cls-2" x1="19" y1="19" x2="45" y2="19"/><line class="cls-2" x1="19" y1="23" x2="45" y2="23"/></g></g></svg>