<svg xmlns="http://www.w3.org/2000/svg" viewBox="0 0 56 48"><defs><style>.cls-1{fill:none;stroke:#37464c;stroke-linecap:round;stroke-linejoin:round;stroke-width:2px;}</style></defs><g data-name="Layer 2"><g><path class="cls-1" d="M51,39H34.47A7.24,7.24,0,0,0,28,43h0a7.24,7.24,0,0,0-6.47-4H5V1H21.53A7.24,7.24,0,0,1,28,5h0a7.24,7.24,0,0,1,6.47-4H51Z"/><line class="cls-1" x1="28" y1="42" x2="28" y2="5"/><line class="cls-1" x1="11" y1="9" x2="23" y2="9"/><line class="cls-1" x1="11" y1="15" x2="23" y2="15"/><line class="cls-1" x1="11" y1="21" x2="23" y2="21"/><line class="cls-1" x1="45" y1="9" x2="33" y2="9"/><line class="cls-1" x1="45" y1="15" x2="33" y2="15"/><line class="cls-1" x1="45" y1="21" x2="33" y2="21"/><line class="cls-1" x1="11" y1="27" x2="23" y2="27"/><line class="cls-1" x1="11" y1="33" x2="23" y2="33"/><line class="cls-1" x1="33" y1="33" x2="45" y2="33"/><line class="cls-1" x1="33" y1="27" x2="45" y2="27"/><path class="cls-1" d="M51,4h2a2,2,0,0,1,2,2V41a2,2,0,0,1-2,2H37a6.57,6.57,0,0,0-6,4H25a6.57,6.57,0,0,0-6-4H3a2,2,0,0,1-2-2V6A2,2,0,0,1,3,4H5"/></g></g></svg>