<svg width="61" height="76" viewBox="0 0 61 76" fill="none" xmlns="http://www.w3.org/2000/svg">
<path d="M39.006 60.5357C38.139 61.281 37.447 62.1908 36.9747 63.2063C36.5023 64.2214 36.2601 65.319 36.2639 66.4287V67.3852C36.2639 70.7261 33.7101 73.7207 30.2372 74.0563C29.2986 74.1473 28.3505 74.0513 27.4533 73.7743C26.5565 73.4969 25.7308 73.0451 25.0291 72.4472C24.3277 71.8494 23.7661 71.1191 23.3808 70.3031C22.9951 69.4872 22.7939 68.6038 22.7905 67.71V66.4287C22.7887 65.3129 22.5401 64.21 22.0613 63.1909C21.5826 62.1715 20.8842 61.2585 20.0107 60.5107C22.9585 61.9167 26.2126 62.6513 29.5129 62.6555C32.8133 62.6598 36.0692 61.9338 39.0211 60.5357H39.006Z" fill="#0179B7" fill-opacity="0.59" stroke="#0179B7" stroke-width="2" stroke-miterlimit="10"/>
<path d="M51.8868 40.8381C51.898 46.1635 49.9507 51.3072 46.4156 55.2904C46.3713 55.3384 46.3303 55.3894 46.2928 55.443C44.7225 57.1729 42.8883 58.6439 40.8587 59.8014C40.3544 60.0831 39.8851 60.4229 39.4593 60.8137C36.5424 62.272 33.3252 63.0287 30.064 63.0242C26.8028 63.0197 23.5878 62.2538 20.6747 60.7877C20.2299 60.401 19.7486 60.0582 19.238 59.7642C15.643 57.6974 12.7108 54.6498 10.7844 50.9781C8.85752 47.3061 8.01636 43.1617 8.35878 39.0292C8.81211 33.4128 11.4223 28.1906 15.6419 24.4567C19.8618 20.7229 25.3632 18.7681 30.9926 19.0022C36.622 19.236 41.9426 21.6407 45.8379 25.7114C49.7333 29.7825 51.901 35.2035 51.8868 40.8381Z" stroke="#0179B7" stroke-width="2" stroke-miterlimit="10"/>
<path d="M21.65 61.4161L18.9293 46.4701L17.6787 41.7804C17.6787 41.6394 17.7252 41.5024 17.8108 41.3904C17.8968 41.2787 18.017 41.1983 18.1533 41.1619C18.2895 41.1254 18.4339 41.1347 18.5642 41.1887C18.6944 41.2426 18.8031 41.3383 18.8735 41.4604C19.99 43.433 21.7542 45.9081 23.511 45.8448C26.4253 45.7406 24.0321 36.8935 21.65 37.8203C19.268 38.7471 23.8348 44.5942 28.5393 45.3237C30.0382 44.5384 33.4549 36.8069 30.0382 36.4943C26.6214 36.1816 27.4786 44.1811 33.6198 45.3237C39.761 46.4664 38.6146 39.7036 36.9509 38.3525C35.2872 37.0015 35.8045 44.8027 39.6605 46.0532C40.8813 46.4515 41.8527 45.5992 42.3291 44.5384C42.6045 43.9206 42.4631 40.7941 41.8974 41.7581C40.7436 43.7345 40.5165 46.2021 39.9508 48.3832C38.7486 52.9984 36.4526 56.76 35.3993 61.4161" stroke="#0179B7" stroke-width="2" stroke-miterlimit="10"/>
<path d="M42.505 16.1365L46.9512 7.12402" stroke="#0179B7" stroke-width="2" stroke-miterlimit="10"/>
<path d="M30.3143 13.8753L30.5879 0.763672" stroke="#0179B7" stroke-width="2" stroke-miterlimit="10"/>
<path d="M55.1611 24.2117L59.9997 19.001" stroke="#0179B7" stroke-width="2" stroke-miterlimit="10"/>
<path d="M16.1935 16.1457L11.4922 7.26367" stroke="#0179B7" stroke-width="2" stroke-miterlimit="10"/>
<path d="M6.7659 25.08L0.999771 20.9189" stroke="#0179B7" stroke-width="2" stroke-miterlimit="10"/>
</svg>
