<svg xmlns="http://www.w3.org/2000/svg" viewBox="0 0 52 56"><defs><style>.cls-1,.cls-2{fill:none;stroke:#37464c;stroke-linejoin:round;stroke-width:2px;}.cls-2{stroke-linecap:round;}</style></defs><g data-name="Layer 2"><g><path class="cls-1" d="M45,23.66V20.34a.74.74,0,0,0-.74-.74H42.35a.74.74,0,0,1-.72-.58,11.85,11.85,0,0,0-1.31-3.13.77.77,0,0,1,.1-.92l1.22-1.22a.81.81,0,0,0,.14-1.19l-2.34-2.34a.75.75,0,0,0-1.06,0L37,11.57a.75.75,0,0,1-.92.11A11.85,11.85,0,0,0,33,10.37a.74.74,0,0,1-.58-.72V7.94c0-.61-.33-.94-.74-.94H28.34a.74.74,0,0,0-.74.74V9.65a.74.74,0,0,1-.58.72,11.85,11.85,0,0,0-3.13,1.31.77.77,0,0,1-.92-.1l-1.22-1.22a.81.81,0,0,0-1.19-.14l-2.34,2.34a.75.75,0,0,0,0,1.06L19.57,15a.75.75,0,0,1,.11.92A11.85,11.85,0,0,0,18.37,19a.74.74,0,0,1-.72.58H15.94c-.61,0-.94.33-.94.74v3.32a.74.74,0,0,0,.74.74h1.91a.74.74,0,0,1,.72.58,11.85,11.85,0,0,0,1.31,3.13.77.77,0,0,1-.1.92l-1.22,1.22a.81.81,0,0,0-.14,1.19l2.34,2.34a.75.75,0,0,0,1.06,0L23,32.43a.75.75,0,0,1,.92-.11A11.85,11.85,0,0,0,27,33.63a.74.74,0,0,1,.58.72V36.2c0,.54.27.8.6.8h3.46a.74.74,0,0,0,.74-.74V34.35a.74.74,0,0,1,.58-.72,11.85,11.85,0,0,0,3.13-1.31.77.77,0,0,1,.92.1l1.22,1.22a.81.81,0,0,0,1.19.14l2.34-2.34a.75.75,0,0,0,0-1.06L40.43,29a.75.75,0,0,1-.11-.92A11.85,11.85,0,0,0,41.63,25a.74.74,0,0,1,.72-.58h1.71C44.67,24.4,45,24.07,45,23.66Z"/><circle class="cls-2" cx="30" cy="22" r="5"/><path class="cls-2" d="M45,55V36.66A21,21,0,1,0,9,22s-7.39,7.46-7.39,7.46A2.07,2.07,0,0,0,3.06,33H7V45a4,4,0,0,0,4,4h8v6"/></g></g></svg>