<svg xmlns="http://www.w3.org/2000/svg" viewBox="0 0 48 52"><defs><style>.cls-1,.cls-2{fill:none;stroke:#37464c;stroke-linejoin:round;stroke-width:2px;}.cls-2{stroke-linecap:round;}</style></defs><g data-name="Layer 2"><g><path class="cls-1" d="M24,7A6,6,0,0,0,13.51,3,4.36,4.36,0,0,0,13,3,6,6,0,0,0,7,8.33,6,6,0,0,0,3,14,5.93,5.93,0,0,0,3.78,17,6,6,0,0,0,2.54,26a6,6,0,0,0,.88,8.81A5.89,5.89,0,0,0,3,37a6,6,0,0,0,4,5.66c0,.11,0,.22,0,.34a6,6,0,0,0,6,6,4.36,4.36,0,0,0,.51,0A6,6,0,0,0,24,45"/><path class="cls-2" d="M11,12a6,6,0,0,1,6,6"/><path class="cls-2" d="M12,39a6,6,0,0,1,6,6"/><path class="cls-2" d="M24,21a6,6,0,0,1-6,6"/><path class="cls-2" d="M8.5,24.19a5.13,5.13,0,0,1,0-7.25"/><path class="cls-2" d="M13.56,31a4.35,4.35,0,0,0-4,4.35"/><path class="cls-2" d="M20,7a6,6,0,0,0-6,5.81"/><path class="cls-2" d="M14,23a4.33,4.33,0,0,0-2,4,6,6,0,0,0,6,6"/><path class="cls-1" d="M24,7A6,6,0,0,1,34.49,3,4.36,4.36,0,0,1,35,3a6,6,0,0,1,6,5.33A6,6,0,0,1,45,14,5.93,5.93,0,0,1,44.22,17,6,6,0,0,1,45.46,26a6,6,0,0,1-.88,8.81A5.89,5.89,0,0,1,45,37a6,6,0,0,1-4,5.66c0,.11,0,.22,0,.34a6,6,0,0,1-6,6,4.36,4.36,0,0,1-.51,0A6,6,0,0,1,24,45Z"/><path class="cls-2" d="M37,12a6,6,0,0,0-6,6"/><path class="cls-2" d="M36,39a6,6,0,0,0-6,6"/><path class="cls-2" d="M24,21a6,6,0,0,0,6,6"/><path class="cls-2" d="M39.5,24.19a5.13,5.13,0,0,0,0-7.25"/><path class="cls-2" d="M34.44,31a4.35,4.35,0,0,1,4,4.35"/><path class="cls-2" d="M28,7a6,6,0,0,1,6,5.81"/><path class="cls-2" d="M34,23a4.33,4.33,0,0,1,2,4,6,6,0,0,1-6,6"/></g></g></svg>