<?xml version="1.0" encoding="utf-8"?>
<!-- Generator: Adobe Illustrator 25.4.1, SVG Export Plug-In . SVG Version: 6.00 Build 0)  -->
<svg version="1.1" xmlns="http://www.w3.org/2000/svg" xmlns:xlink="http://www.w3.org/1999/xlink" x="0px" y="0px"
	 viewBox="0 0 24 24" style="enable-background:new 0 0 24 24;" xml:space="preserve">
<path style="fill:#0179B7;" d="M12,0.5C5.65,0.5,0.5,5.65,0.5,12S5.65,23.5,12,23.5S23.5,18.35,23.5,12S18.35,0.5,12,0.5
	z M12,21.5c-5.24,0-9.5-4.26-9.5-9.5c0-5.24,4.26-9.5,9.5-9.5s9.5,4.26,9.5,9.5C21.5,17.24,17.24,21.5,12,21.5z M16.71,8.71
	L13.41,12l3.29,3.29l-1.41,1.41L12,13.41l-3.29,3.29l-1.41-1.41L10.59,12L7.29,8.71l1.41-1.41L12,10.59l3.29-3.29L16.71,8.71z"/>
</svg>
