<svg xmlns="http://www.w3.org/2000/svg" viewBox="0 0 56 56"><defs><style>.cls-1,.cls-2{fill:none;stroke:#37464c;stroke-linejoin:round;stroke-width:2px;}.cls-1{stroke-linecap:round;}</style></defs><g data-name="Layer 2"><g><path class="cls-1" d="M47,9h0a4,4,0,0,1,4,4V32"/><path class="cls-1" d="M26,45H5a4,4,0,0,1-4-4V13A4,4,0,0,1,5,9H17"/><path class="cls-1" d="M45.71,55A10.22,10.22,0,0,0,55,44.69V41.6a5,5,0,0,0-3.42-4.74L43,34V26a3,3,0,0,0-3-3h0a3,3,0,0,0-3,3V43l-2.46-2.46a5,5,0,0,0-7.08,0L27,41,37.93,52.07h0A10,10,0,0,0,45.71,55Z"/><circle class="cls-2" cx="17" cy="22" r="5"/><path class="cls-1" d="M25,37V35c0-4.59-3.58-7-8-7s-8,2.41-8,7v2"/><path class="cls-1" d="M17,13V4a3,3,0,0,1,3-3H40a3,3,0,0,1,3,3V14a3,3,0,0,1-3,3H29l-3,3"/><circle class="cls-1" cx="23.5" cy="9" r="0.5"/><circle class="cls-1" cx="30" cy="9" r="0.5"/><circle class="cls-1" cx="36.5" cy="9" r="0.5"/><line class="cls-1" x1="47" y1="25" x2="47" y2="29"/></g></g></svg>