<svg xmlns="http://www.w3.org/2000/svg" viewBox="0 0 56 52"><defs><style>.cls-1,.cls-2{fill:none;stroke:#37464c;stroke-linejoin:round;stroke-width:2px;}.cls-1{stroke-linecap:round;}</style></defs><g data-name="Layer 2"><g><line class="cls-1" x1="28" y1="46" x2="28" y2="46"/><circle class="cls-2" cx="28" cy="28.5" r="5.5"/><path class="cls-2" d="M35,47h2a2,2,0,0,0,2-2V42c0-5-4.93-8-11-8s-11,3-11,8v3a2,2,0,0,0,2,2h2"/><rect class="cls-1" x="21" y="41" width="14" height="10" rx="1"/><line class="cls-1" x1="44" y1="38" x2="44" y2="38"/><circle class="cls-2" cx="44" cy="20.5" r="5.5"/><path class="cls-1" d="M43,43h7a1,1,0,0,0,1-1V34a1,1,0,0,0-1-1H38"/><line class="cls-1" x1="12" y1="38" x2="12" y2="38"/><circle class="cls-2" cx="12" cy="20.5" r="5.5"/><path class="cls-1" d="M13,43H6a1,1,0,0,1-1-1V34a1,1,0,0,1,1-1H18"/><path class="cls-1" d="M51,39h2a2,2,0,0,0,2-2V34c0-5-4.93-8-11-8a14.47,14.47,0,0,0-7,1.62"/><path class="cls-1" d="M19,27.62A14.47,14.47,0,0,0,12,26C5.93,26,1,29,1,34v3a2,2,0,0,0,2,2H5"/><path class="cls-2" d="M38.54,6.7l-9.66,4.14a2.14,2.14,0,0,1-.79.16h-.18a2.14,2.14,0,0,1-.79-.16L17.46,6.7A.77.77,0,0,1,17,6h0a.77.77,0,0,1,.46-.7l9.66-4.14A2.14,2.14,0,0,1,27.91,1h.18a2.14,2.14,0,0,1,.79.16L38.54,5.3A.77.77,0,0,1,39,6h0A.77.77,0,0,1,38.54,6.7Z"/><line class="cls-1" x1="17" y1="11" x2="17" y2="6"/><path class="cls-2" d="M21,8.21V13.8a2,2,0,0,0,1.14,1.81A14.14,14.14,0,0,0,28,17a14.14,14.14,0,0,0,5.86-1.39A2,2,0,0,0,35,13.8V8.21"/></g></g></svg>