<svg xmlns="http://www.w3.org/2000/svg" viewBox="0 0 56 56"><defs><style>.cls-1,.cls-2{fill:none;stroke:#37464c;stroke-linejoin:round;stroke-width:2px;}.cls-1{stroke-linecap:round;}</style></defs><g data-name="Layer 2"><g><line class="cls-1" x1="28" y1="1" x2="28" y2="13"/><path class="cls-2" d="M15.92,25.38,26.4,29.7a4,4,0,0,0,1.53.3h.14a4,4,0,0,0,1.53-.3l10.48-4.32A1.5,1.5,0,0,0,41,24h0a1.5,1.5,0,0,0-.92-1.38L29.6,18.3a4,4,0,0,0-1.53-.3h-.14a4,4,0,0,0-1.53.3L15.92,22.62A1.5,1.5,0,0,0,15,24h0A1.5,1.5,0,0,0,15.92,25.38Z"/><line class="cls-1" x1="15" y1="30" x2="15" y2="24"/><path class="cls-2" d="M19,26.65v7.26a2,2,0,0,0,1,1.71A16.44,16.44,0,0,0,28,38a16.44,16.44,0,0,0,8-2.38,2,2,0,0,0,1-1.71V26.65"/><polyline class="cls-1" points="23 6 28 1 33 6"/><line class="cls-1" x1="28" y1="55" x2="28" y2="43"/><polyline class="cls-1" points="33 50 28 55 23 50"/><line class="cls-1" x1="9" y1="9" x2="17" y2="17"/><polyline class="cls-1" points="9 16 9 9 16 9"/><line class="cls-1" x1="47" y1="47" x2="39" y2="39"/><polyline class="cls-1" points="47.07 40 47.07 47 40.07 47"/><line class="cls-1" x1="9" y1="47" x2="17" y2="39"/><polyline class="cls-1" points="16 47 9 47 9 40"/><line class="cls-1" x1="47" y1="9" x2="39" y2="17"/><polyline class="cls-1" points="40 9 47 9 47 16"/><line class="cls-1" x1="1" y1="28" x2="11" y2="28"/><polyline class="cls-1" points="6 33 1 28 6 23"/><line class="cls-1" x1="55" y1="28" x2="45" y2="28"/><polyline class="cls-1" points="50 23 55 28 50 33"/></g></g></svg>