<svg xmlns="http://www.w3.org/2000/svg" viewBox="0 0 56 44"><defs><style>.cls-1,.cls-2{fill:none;stroke:#37464c;stroke-linejoin:round;stroke-width:2px;}.cls-2{stroke-linecap:round;}</style></defs><g data-name="Layer 2"><g><path class="cls-1" d="M31,25.36a2,2,0,0,1,2,2V35l3-3,3,2V26.25a2,2,0,0,0-2-2Z"/><path class="cls-2" d="M39,29,55,26a7.24,7.24,0,0,1,0-10L21.13,22.08a5,5,0,0,0-4.05,5.79A5.18,5.18,0,0,0,23,32l10-1.94"/><path class="cls-2" d="M55,16,33,1,5.13,7.08a5,5,0,0,0-2.4,8.67L18.3,30.35"/><path class="cls-2" d="M5.1,18a5,5,0,0,0-2.27,8.67L18.1,41"/><path class="cls-2" d="M23,32l-1.87.35a5.4,5.4,0,0,0-4.05,6.26,5,5,0,0,0,5.79,4.31L55,36.62h0A8,8,0,0,1,55,26"/><line class="cls-1" x1="21.13" y1="22.08" x2="5.13" y2="7.08"/></g></g></svg>