<svg xmlns="http://www.w3.org/2000/svg" viewBox="0 0 52 44"><defs><style>.cls-1,.cls-2{fill:none;stroke:#37464c;stroke-linejoin:round;stroke-width:2px;}.cls-1{stroke-linecap:round;}</style></defs><g data-name="Layer 2"><g><line class="cls-1" x1="20" y1="43" x2="21" y2="37"/><line class="cls-1" x1="35" y1="43" x2="17" y2="43"/><line class="cls-1" x1="31" y1="37" x2="32" y2="43"/><line class="cls-2" x1="1" y1="31" x2="51" y2="31"/><rect class="cls-1" x="1" y="1" width="50" height="36" rx="3"/><path class="cls-2" d="M5.92,12.38,16.4,16.7a4,4,0,0,0,1.53.3h.14a4,4,0,0,0,1.53-.3l10.48-4.32A1.5,1.5,0,0,0,31,11h0a1.5,1.5,0,0,0-.92-1.38L19.6,5.3A4,4,0,0,0,18.07,5h-.14a4,4,0,0,0-1.53.3L5.92,9.62A1.5,1.5,0,0,0,5,11H5A1.5,1.5,0,0,0,5.92,12.38Z"/><line class="cls-1" x1="5" y1="17" x2="5" y2="11"/><path class="cls-2" d="M9,13.65v7.26a2,2,0,0,0,1,1.71A16.44,16.44,0,0,0,18,25a16.44,16.44,0,0,0,8-2.38,2,2,0,0,0,1-1.71V13.65"/><polyline class="cls-1" points="41 27 37.44 23.44 41 22 33 19 36 27 37.44 23.44"/><line class="cls-1" x1="35" y1="7" x2="45" y2="7"/><line class="cls-1" x1="35" y1="11" x2="45" y2="11"/><line class="cls-1" x1="35" y1="15" x2="45" y2="15"/></g></g></svg>