<svg xmlns="http://www.w3.org/2000/svg" viewBox="0 0 48 56"><defs><style>.cls-1,.cls-2{fill:none;stroke:#37464c;stroke-linejoin:round;stroke-width:2px;}.cls-1{stroke-linecap:round;}</style></defs><g data-name="Layer 2"><g><line class="cls-1" x1="3" y1="12" x2="3" y2="20"/><path class="cls-2" d="M11,14.71a3,3,0,0,1,1.59-2.65A25.07,25.07,0,0,1,24,9a25.07,25.07,0,0,1,11.41,3.06A3,3,0,0,1,37,14.71v8a3,3,0,0,0-1.59-2.65A25.07,25.07,0,0,0,24,17a25.07,25.07,0,0,0-11.41,3.06A3,3,0,0,0,11,22.71Z"/><path class="cls-1" d="M37,23v2A13,13,0,0,1,24,38h0A13,13,0,0,1,11,25V23"/><path class="cls-2" d="M37,17l7.11-3.55A1.64,1.64,0,0,0,45,12h0a1.64,1.64,0,0,0-.89-1.45L25.89,1.45A4.11,4.11,0,0,0,24,1h0a4.11,4.11,0,0,0-1.89.45L3.89,10.55A1.64,1.64,0,0,0,3,12H3a1.64,1.64,0,0,0,.89,1.45L11,17"/><path class="cls-1" d="M1,45c4.76,5.93,13.28,10,23,10s18.24-4.07,23-10h0c-5.93-3.68-14-6-23-6S6.93,41.32,1,45Z"/></g></g></svg>