<svg xmlns="http://www.w3.org/2000/svg" viewBox="0 0 52 48"><defs><style>.cls-1{fill:none;stroke:#37464c;stroke-linejoin:round;stroke-width:2px;}</style></defs><g data-name="Layer 2"><g><path class="cls-1" d="M5,28V22A21,21,0,0,1,26,1h0A21,21,0,0,1,47,22v6"/><path class="cls-1" d="M47,44a4,4,0,0,0,4-4V32a4,4,0,0,0-4-4"/><path class="cls-1" d="M10.44,7.93l1,.9A3.37,3.37,0,0,0,15.79,9a16.5,16.5,0,0,1,20.36-.05,3.3,3.3,0,0,0,4.43-.44l.73-.82"/><rect class="cls-1" x="39" y="25" width="8" height="22" rx="3"/><path class="cls-1" d="M5,44a4,4,0,0,1-4-4V32a4,4,0,0,1,4-4"/><rect class="cls-1" x="5" y="25" width="8" height="22" rx="3" transform="translate(18 72) rotate(180)"/></g></g></svg>