<svg xmlns="http://www.w3.org/2000/svg" viewBox="0 0 44 52"><defs><style>.cls-1,.cls-2{fill:none;stroke:#37464c;stroke-linejoin:round;stroke-width:2px;}.cls-1{stroke-linecap:round;}</style></defs><g data-name="Layer 2"><g><line class="cls-1" x1="17" y1="45" x2="13" y2="45"/><path class="cls-1" d="M29,22V47a4,4,0,0,1-4,4H5a4,4,0,0,1-4-4V9A4,4,0,0,1,5,5H17"/><path class="cls-1" d="M17,13V4a3,3,0,0,1,3-3H40a3,3,0,0,1,3,3V14a3,3,0,0,1-3,3H28l-4,4"/><circle class="cls-2" cx="15" cy="22" r="5"/><path class="cls-1" d="M23,37V35c0-4.59-3.58-7-8-7s-8,2.41-8,7v2"/><circle class="cls-1" cx="23.5" cy="9" r="0.5"/><circle class="cls-1" cx="30" cy="9" r="0.5"/><circle class="cls-1" cx="36.5" cy="9" r="0.5"/></g></g></svg>