<svg xmlns="http://www.w3.org/2000/svg" viewBox="0 0 44 52"><defs><style>.cls-1,.cls-2{fill:none;stroke:#37464c;stroke-linejoin:round;stroke-width:2px;}.cls-1{stroke-linecap:round;}</style></defs><g data-name="Layer 2"><g><polyline class="cls-1" points="11 23 11 17 33 17 33 23"/><circle class="cls-2" cx="7" cy="41" r="4"/><circle class="cls-2" cx="14" cy="31" r="4"/><circle class="cls-2" cx="30" cy="31" r="4"/><path class="cls-1" d="M1,51a6,6,0,0,1,12,0"/><circle class="cls-2" cx="22" cy="41" r="4"/><path class="cls-1" d="M16,51a6,6,0,0,1,12,0"/><circle class="cls-2" cx="22" cy="5" r="4"/><circle class="cls-2" cx="37" cy="41" r="4"/><path class="cls-1" d="M31,51a6,6,0,0,1,12,0"/><path class="cls-1" d="M29,14.5c0-3.36-3.14-5-7-5s-7,1.64-7,5"/><line class="cls-1" x1="29" y1="15" x2="29" y2="17"/><line class="cls-1" x1="15" y1="15" x2="15" y2="17"/></g></g></svg>