<svg xmlns="http://www.w3.org/2000/svg" viewBox="0 0 60 40"><defs><style>.cls-1,.cls-2{fill:none;stroke:#37464c;stroke-linejoin:round;stroke-width:2px;}.cls-1{stroke-linecap:round;}</style></defs><g data-name="Layer 2"><g><path class="cls-1" d="M53,21V4a3,3,0,0,0-3-3H10A3,3,0,0,0,7,4V21"/><path class="cls-1" d="M19.2,39A14.54,14.54,0,0,0,21,32a12.22,12.22,0,0,0-3.13-8A4,4,0,0,1,17,21.51V14a3,3,0,0,0-3-3h0a3,3,0,0,0-3,3V24a2,2,0,0,1-3.2,1.6L7,25"/><path class="cls-1" d="M7,11,2.41,17.7a8.17,8.17,0,0,0-1,7.12L6,39"/><path class="cls-1" d="M40.8,39A14.54,14.54,0,0,1,39,32a12.22,12.22,0,0,1,3.13-8A4,4,0,0,0,43,21.51V14a3,3,0,0,1,3-3h0a3,3,0,0,1,3,3V24a2,2,0,0,0,3.2,1.6L53,25"/><path class="cls-1" d="M53,11l4.59,6.7a8.17,8.17,0,0,1,1,7.12L54,39"/><line class="cls-2" x1="40.17" y1="27" x2="19.83" y2="27"/><circle class="cls-2" cx="30" cy="10" r="5"/><path class="cls-1" d="M38,23h0c0-4.59-3.58-7-8-7s-8,2.41-8,7h0"/></g></g></svg>