<svg xmlns="http://www.w3.org/2000/svg" viewBox="0 0 48 52"><defs><style>.cls-1,.cls-2{fill:none;stroke:#37464c;stroke-linejoin:round;stroke-width:2px;}.cls-1{stroke-linecap:round;}</style></defs><g data-name="Layer 2"><g><path class="cls-1" d="M37.71,51A10.22,10.22,0,0,0,47,40.69V37.6a5,5,0,0,0-3.42-4.74L35,30V22a3,3,0,0,0-3-3h0a3,3,0,0,0-3,3V39l-2.46-2.46a5,5,0,0,0-7.08,0L19,37,29.93,48.07A10,10,0,0,0,37.71,51Z"/><path class="cls-2" d="M1.91,11.41l16.31,7.25a4.18,4.18,0,0,0,1.63.34h.3a4.18,4.18,0,0,0,1.63-.34l16.31-7.25A1.55,1.55,0,0,0,39,10h0a1.55,1.55,0,0,0-.91-1.41L21.78,1.34A4.18,4.18,0,0,0,20.15,1h-.3a4.18,4.18,0,0,0-1.63.34L1.91,8.59A1.55,1.55,0,0,0,1,10H1A1.55,1.55,0,0,0,1.91,11.41Z"/><line class="cls-1" x1="1" y1="10" x2="1" y2="18"/><line class="cls-1" x1="39" y1="22" x2="43" y2="22"/><line class="cls-1" x1="37.73" y1="17.99" x2="41.01" y2="15.69"/><path class="cls-1" d="M7,13.67v7.62a3,3,0,0,0,1.59,2.65A25.07,25.07,0,0,0,20,27a21.45,21.45,0,0,0,5-.62"/></g></g></svg>