<svg xmlns="http://www.w3.org/2000/svg" viewBox="0 0 56 48"><defs><style>.cls-1,.cls-2{fill:none;stroke:#37464c;stroke-linejoin:round;stroke-width:2px;}.cls-2{stroke-linecap:round;}</style></defs><g data-name="Layer 2"><g><circle class="cls-1" cx="11" cy="11" r="10"/><circle class="cls-1" cx="11" cy="9.5" r="3.5"/><path class="cls-1" d="M18.18,18A8.49,8.49,0,0,0,3.82,18"/><circle class="cls-1" cx="45" cy="37" r="10"/><circle class="cls-1" cx="45" cy="35.5" r="3.5"/><path class="cls-1" d="M37.82,44a8.49,8.49,0,0,1,14.36,0"/><path class="cls-1" d="M25,5l4,5v5a4,4,0,0,0,4,4H51a4,4,0,0,0,4-4V9a4,4,0,0,0-4-4Z"/><circle class="cls-2" cx="35.5" cy="12" r="0.5"/><circle class="cls-2" cx="42" cy="12" r="0.5"/><circle class="cls-2" cx="48.5" cy="12" r="0.5"/><path class="cls-1" d="M31,29l-4,5v5a4,4,0,0,1-4,4H5a4,4,0,0,1-4-4V33a4,4,0,0,1,4-4Z"/><circle class="cls-2" cx="20.5" cy="36" r="0.5"/><circle class="cls-2" cx="14" cy="36" r="0.5"/><circle class="cls-2" cx="7.5" cy="36" r="0.5"/></g></g></svg>