<svg xmlns="http://www.w3.org/2000/svg" viewBox="0 0 52 48"><defs><style>.cls-1,.cls-2{fill:none;stroke:#37464c;stroke-linejoin:round;stroke-width:2px;}.cls-1{stroke-linecap:round;}</style></defs><g data-name="Layer 2"><g><line class="cls-1" x1="1" y1="13" x2="13" y2="13"/><line class="cls-1" x1="5" y1="9" x2="5" y2="9"/><line class="cls-1" x1="9" y1="9" x2="9" y2="9"/><line class="cls-1" x1="13" y1="9" x2="13" y2="9"/><path class="cls-1" d="M47,5a4,4,0,0,1,4,4V43a4,4,0,0,1-4,4H5a4,4,0,0,1-4-4V9A4,4,0,0,1,5,5H17"/><circle class="cls-2" cx="16" cy="21.5" r="4.5"/><line class="cls-1" x1="11" y1="43" x2="11" y2="34"/><path class="cls-1" d="M7,43V33c0-3.73,4-6,9-6H33a2,2,0,0,1,2,2h0a2,2,0,0,1-2,2H23a2,2,0,0,0-2,2V43"/><line class="cls-1" x1="28" y1="23" x2="45" y2="23"/><line class="cls-1" x1="39" y1="29" x2="45" y2="29"/><line class="cls-1" x1="27" y1="35" x2="45" y2="35"/><line class="cls-1" x1="27" y1="41" x2="45" y2="41"/><path class="cls-1" d="M17,13V4a3,3,0,0,1,3-3H40a3,3,0,0,1,3,3V14a3,3,0,0,1-3,3H28l-4,4"/><circle class="cls-1" cx="23.5" cy="9" r="0.5"/><circle class="cls-1" cx="30" cy="9" r="0.5"/><circle class="cls-1" cx="36.5" cy="9" r="0.5"/></g></g></svg>