<svg xmlns="http://www.w3.org/2000/svg" viewBox="0 0 44 52"><defs><style>.cls-1,.cls-2{fill:none;stroke:#37464c;stroke-linejoin:round;stroke-width:2px;}.cls-2{stroke-linecap:round;}</style></defs><g data-name="Layer 2"><g><path class="cls-1" d="M35,3h0a4,4,0,0,0-4,4V41a10.8,10.8,0,0,0,4,8,10.8,10.8,0,0,0,4-8V7A4,4,0,0,0,35,3Z"/><path class="cls-2" d="M31,9H41a2,2,0,0,1,2,2v9.31"/><line class="cls-1" x1="39" y1="39" x2="31" y2="39"/><line class="cls-2" x1="35" y1="51" x2="35" y2="49"/><rect class="cls-2" x="15" y="1" width="10" height="48"/><path class="cls-1" d="M9,43,5,51,1,43V5A2,2,0,0,1,3,3H7A2,2,0,0,1,9,5Z"/><line class="cls-1" x1="1" y1="9" x2="9" y2="9"/><line class="cls-1" x1="1" y1="13" x2="9" y2="13"/><line class="cls-1" x1="1" y1="43" x2="9" y2="43"/><line class="cls-2" x1="19" y1="25" x2="15" y2="25"/><line class="cls-2" x1="19" y1="19" x2="15" y2="19"/><line class="cls-2" x1="19" y1="13" x2="15" y2="13"/><line class="cls-2" x1="19" y1="7" x2="15" y2="7"/><line class="cls-2" x1="19" y1="31" x2="15" y2="31"/><line class="cls-2" x1="19" y1="37" x2="15" y2="37"/><line class="cls-2" x1="19" y1="43" x2="15" y2="43"/></g></g></svg>