<svg xmlns="http://www.w3.org/2000/svg" viewBox="0 0 56 52"><defs><style>.cls-1,.cls-2{fill:none;stroke:#37464c;stroke-linejoin:round;stroke-width:2px;}.cls-1{stroke-linecap:round;}</style></defs><g data-name="Layer 2"><g><path class="cls-1" d="M53.92,33.19A7,7,0,0,0,54.05,43l.21.19"/><path class="cls-2" d="M37,41.25l-6,1.11h0a2,2,0,0,1,2,2V51l3-3,3,2V43.25a2,2,0,0,0-2-2Z"/><polyline class="cls-1" points="39 45.95 55 43 53.01 41.61"/><path class="cls-1" d="M7,24.69l-1.87.39a5,5,0,0,0-2.4,8.67l16,14"/><line class="cls-1" x1="1" y1="11" x2="1" y2="21"/><path class="cls-1" d="M1.89,12.38,26.08,22.61A4.88,4.88,0,0,0,28,23h0a4.88,4.88,0,0,0,1.92-.39L54.11,12.38A1.46,1.46,0,0,0,55,11h0a1.45,1.45,0,0,0-1-1.38L29.94,1.33A5.82,5.82,0,0,0,28,1h0a5.82,5.82,0,0,0-1.94.33L2,9.66A1.45,1.45,0,0,0,1,11H1A1.46,1.46,0,0,0,1.89,12.38Z"/><path class="cls-2" d="M11,16.23v9.32A3,3,0,0,0,12.25,28a27.26,27.26,0,0,0,31.5,0A3,3,0,0,0,45,25.55V16.23"/><path class="cls-1" d="M48.39,28.37,55,33,21.13,39.08a5,5,0,0,0,1.74,9.84L33,47.06"/></g></g></svg>