<svg width="66" height="57" viewBox="0 0 66 57" fill="none" xmlns="http://www.w3.org/2000/svg">
<path d="M25 55L26 47" stroke="#0179B7" stroke-width="2" stroke-linecap="round" stroke-linejoin="round"/>
<path d="M45 55.5H22" stroke="#0179B7" stroke-width="2" stroke-linecap="round" stroke-linejoin="round"/>
<path d="M40 47L41 55" stroke="#0179B7" stroke-width="2" stroke-linecap="round" stroke-linejoin="round"/>
<path d="M1 39.5H65" stroke="#0179B7" stroke-width="2" stroke-linejoin="round"/>
<path fill-rule="evenodd" clip-rule="evenodd" d="M61.16 47H4.84C2.71904 47 1 45.2839 1 43.1667V4.83333C1 2.71606 2.71904 1 4.84 1H61.16C63.281 1 65 2.71606 65 4.83333V43.1667C65 45.2839 63.281 47 61.16 47Z" stroke="#0179B7" stroke-width="2" stroke-linecap="round" stroke-linejoin="round"/>
<path d="M52 34L47.555 29.555L52 27.75L42 24L45.75 34L47.555 29.555" stroke="#0179B7" stroke-width="2" stroke-linecap="round" stroke-linejoin="round"/>
<path d="M44 8.5H57" stroke="#0179B7" stroke-width="2" stroke-linecap="round" stroke-linejoin="round"/>
<path d="M44 13.5H57" stroke="#0179B7" stroke-width="2" stroke-linecap="round" stroke-linejoin="round"/>
<path d="M44 18.5H57" stroke="#0179B7" stroke-width="2" stroke-linecap="round" stroke-linejoin="round"/>
<path fill-rule="evenodd" clip-rule="evenodd" d="M18.7002 33.999V33.999C18.7002 32.8721 19.6452 31.9502 20.8002 31.9502H25.0002C26.1552 31.9502 27.1002 32.8721 27.1002 33.999H18.7002Z" stroke="#0179B7" stroke-width="1.4" stroke-linecap="round" stroke-linejoin="round"/>
<path fill-rule="evenodd" clip-rule="evenodd" d="M31.3 26.3257L31.2622 26.2879C29.0232 28.5292 26.0516 29.7639 22.8939 29.7639C16.3649 29.7639 11.0539 24.4462 11.0539 17.9089C11.0539 11.3723 16.3649 6.05401 22.8939 6.05401V6C16.3358 6 11 11.3425 11 17.9089C11 24.4667 16.3212 29.8022 22.8669 29.8173V31.9512H22.9209V29.8168C26.0829 29.8092 29.0577 28.5714 31.3 26.3257Z" stroke="#0179B7" stroke-width="1.4" stroke-linecap="round" stroke-linejoin="round"/>
<path fill-rule="evenodd" clip-rule="evenodd" d="M19.3998 21.0244H14.5C15.7255 24.603 19.0184 27.1708 22.9 27.1708C21.2826 27.1708 19.9103 24.603 19.3998 21.0244Z" stroke="#0179B7" stroke-width="1.4" stroke-linecap="round" stroke-linejoin="round"/>
<path fill-rule="evenodd" clip-rule="evenodd" d="M19.1083 17.9512C19.1083 16.872 19.1886 15.8399 19.3289 14.8778H14.3292H19.3289C19.8497 11.2989 21.2495 8.73145 22.8998 8.73145C17.8739 8.73145 13.7998 12.8592 13.7998 17.9512C13.7998 19.0305 13.9925 20.062 14.3287 21.0241H19.3289C19.1886 20.062 19.1083 19.0305 19.1083 17.9512Z" stroke="#0179B7" stroke-width="1.4" stroke-linecap="round" stroke-linejoin="round"/>
<path fill-rule="evenodd" clip-rule="evenodd" d="M22.9004 27.1708C26.782 27.1708 30.0749 24.603 31.3004 21.0244H26.4C25.8896 24.603 24.5178 27.1708 22.9004 27.1708Z" stroke="#0179B7" stroke-width="1.4" stroke-linecap="round" stroke-linejoin="round"/>
<path fill-rule="evenodd" clip-rule="evenodd" d="M22.9004 8.73145C24.5507 8.73145 25.9505 11.2989 26.4713 14.8778H31.4715H26.4713C26.6116 15.8399 26.6919 16.872 26.6919 17.9512C26.6919 19.0305 26.6121 20.062 26.4713 21.0241H31.4715C31.8077 20.062 32.0004 19.0305 32.0004 17.9512C32.0004 12.8592 27.9263 8.73145 22.9004 8.73145Z" stroke="#0179B7" stroke-width="1.4" stroke-linecap="round" stroke-linejoin="round"/>
<path fill-rule="evenodd" clip-rule="evenodd" d="M26.4004 21.0244H19.4004C19.9108 24.603 21.2833 27.1708 22.9007 27.1708C24.5181 27.1708 25.8899 24.603 26.4004 21.0244Z" stroke="#0179B7" stroke-width="1.4" stroke-linecap="round" stroke-linejoin="round"/>
<path fill-rule="evenodd" clip-rule="evenodd" d="M19.4004 14.8778H26.4004C25.8899 11.2989 24.5175 8.73145 22.9007 8.73145C21.2833 8.73145 19.9114 11.2989 19.4004 14.8778Z" stroke="#0179B7" stroke-width="1.4" stroke-linecap="round" stroke-linejoin="round"/>
</svg>
