<svg width="42" height="57" viewBox="0 0 42 57" fill="none" xmlns="http://www.w3.org/2000/svg">
<path fill-rule="evenodd" clip-rule="evenodd" d="M15.6666 56.2002V56.2002C15.6666 54.0002 17.4666 52.2002 19.6666 52.2002H27.6666C29.8666 52.2002 31.6666 54.0002 31.6666 56.2002H15.6666Z" stroke="#0179B7" stroke-width="1.4" stroke-linecap="round" stroke-linejoin="round"/>
<path fill-rule="evenodd" clip-rule="evenodd" d="M39.6667 41.2169L39.5947 41.1431C35.3298 45.5191 29.6697 47.9296 23.655 47.9296C11.2189 47.9296 1.10274 37.5474 1.10274 24.7842C1.10274 12.0221 11.2189 1.63889 23.655 1.63889V1.53345C11.1634 1.53345 1 11.9641 1 24.7842C1 37.5874 11.1357 48.0044 23.6037 48.034V52.2001H23.7064V48.0329C29.7293 48.0181 35.3956 45.6013 39.6667 41.2169Z" stroke="#0179B7" stroke-width="1.4" stroke-linecap="round" stroke-linejoin="round"/>
<path fill-rule="evenodd" clip-rule="evenodd" d="M16.9996 30.8667H7.66663C10.0009 37.8535 16.2732 42.8667 23.6666 42.8667C20.5859 42.8667 17.9719 37.8535 16.9996 30.8667Z" stroke="#0179B7" stroke-width="1.4" stroke-linecap="round" stroke-linejoin="round"/>
<path fill-rule="evenodd" clip-rule="evenodd" d="M16.4448 24.867C16.4448 22.7599 16.5978 20.7449 16.8649 18.8665H7.34177H16.8649C17.857 11.8791 20.5233 6.86646 23.6667 6.86646C14.0936 6.86646 6.33337 14.9254 6.33337 24.867C6.33337 26.9741 6.70043 28.988 7.34075 30.8665H16.8649C16.5978 28.988 16.4448 26.9741 16.4448 24.867Z" stroke="#0179B7" stroke-width="1.4" stroke-linecap="round" stroke-linejoin="round"/>
<path fill-rule="evenodd" clip-rule="evenodd" d="M23.6666 42.8667C31.0601 42.8667 37.3324 37.8535 39.6666 30.8667H30.3326C29.3604 37.8535 26.7473 42.8667 23.6666 42.8667Z" stroke="#0179B7" stroke-width="1.4" stroke-linecap="round" stroke-linejoin="round"/>
<path fill-rule="evenodd" clip-rule="evenodd" d="M23.6666 6.86646C26.8101 6.86646 29.4764 11.8791 30.4684 18.8665H39.9926H30.4684C30.7356 20.7449 30.8885 22.7599 30.8885 24.867C30.8885 26.9741 30.7366 28.988 30.4684 30.8665H39.9926C40.6329 28.988 41 26.9741 41 24.867C41 14.9254 33.2397 6.86646 23.6666 6.86646Z" stroke="#0179B7" stroke-width="1.4" stroke-linecap="round" stroke-linejoin="round"/>
<path fill-rule="evenodd" clip-rule="evenodd" d="M30.3333 30.8667H17C17.9723 37.8535 20.5864 42.8667 23.6672 42.8667C26.7479 42.8667 29.361 37.8535 30.3333 30.8667Z" stroke="#0179B7" stroke-width="1.4" stroke-linecap="round" stroke-linejoin="round"/>
<path fill-rule="evenodd" clip-rule="evenodd" d="M17 18.8665H30.3333C29.361 11.8791 26.7469 6.86646 23.6672 6.86646C20.5864 6.86646 17.9733 11.8791 17 18.8665Z" stroke="#0179B7" stroke-width="1.4" stroke-linecap="round" stroke-linejoin="round"/>
</svg>
