<svg width="23" height="17" viewBox="0 0 23 17" fill="none" xmlns="http://www.w3.org/2000/svg">
<g id="Group 3160">
<g id="Group 3159">
<g id="Group 3156">
<g id="Group 3155">
<path id="Rectangle 671" d="M0 13.5891C0 11.6372 1.63504 10.0833 3.58447 10.1827L5.8869 10.3L11.5685 10.5L17.3185 10.3L19.4127 10.1894C21.3625 10.0865 23 11.6397 23 13.5923C23 15.4743 21.4743 17 19.5923 17H3.41088C1.5271 17 0 15.4729 0 13.5891Z" fill="#002E5F"/>
<circle id="Ellipse 359" cx="19" cy="14" r="1" fill="#FFC627"/>
<circle id="Ellipse 358" cx="16" cy="14" r="1" fill="#FFC627"/>
</g>
</g>
<g id="Group 3158">
<path id="Line 44" d="M12 11V7" stroke="#002E5F" stroke-width="4"/>
<path id="Polygon 1" d="M11.4001 0.701516C11.7938 0.314094 12.427 0.319203 12.8144 0.712928L17.3261 5.29867C17.9482 5.93094 17.5003 7 16.6133 7H7.44181C6.54704 7 6.10264 5.91487 6.74038 5.28726L11.4001 0.701516Z" fill="#002E5F"/>
</g>
</g>
<path id="Line 45" d="M9.49984 10V11C9.49984 11.5523 9.94756 12 10.4998 12H13.5C14.0523 12 14.5 11.5523 14.5 11V10" stroke="#FFC627"/>
</g>
</svg>
