<?xml version="1.0" encoding="utf-8"?>
<!-- Generator: Adobe Illustrator 25.4.1, SVG Export Plug-In . SVG Version: 6.00 Build 0)  -->
<svg version="1.1" xmlns="http://www.w3.org/2000/svg" xmlns:xlink="http://www.w3.org/1999/xlink" x="0px" y="0px"
	 viewBox="0 0 20 26" style="enable-background:new 0 0 20 26;" xml:space="preserve">
<path style="fill:#002E5F;" d="M10,1c-4.97,0-9,4.03-9,9c0,3.33,1.12,4.38,7.09,13.94c0.88,1.41,2.94,1.41,3.82,0
	C17.88,14.37,19,13.33,19,10C19,5.03,14.97,1,10,1z M10,22.75C4.03,13.17,3.25,12.57,3.25,10c0-3.73,3.02-6.75,6.75-6.75
	s6.75,3.02,6.75,6.75C16.75,12.56,16.04,13.07,10,22.75z M6.25,10c0-2.07,1.68-3.75,3.75-3.75s3.75,1.68,3.75,3.75
	s-1.68,3.75-3.75,3.75S6.25,12.07,6.25,10z"/>
</svg>
