<?xml version="1.0" encoding="utf-8"?>
<!-- Generator: Adobe Illustrator 25.4.1, SVG Export Plug-In . SVG Version: 6.00 Build 0)  -->
<svg version="1.1" xmlns="http://www.w3.org/2000/svg" xmlns:xlink="http://www.w3.org/1999/xlink" x="0px" y="0px"
	 viewBox="0 0 26 26" style="enable-background:new 0 0 26 26;" xml:space="preserve">
<path style="fill:#002E5F;" d="M6.5,16.62c0-0.79,0-1.58,0-2.37c0-1.67,0-3.34,0-5.01c0-0.08-0.02-0.17,0.02-0.26
	c1.6,0,3.2,0,4.8,0c0.2,0,0.34-0.12,0.52-0.17c0-0.19,0-0.38,0-0.58c-0.58,0-1.16,0-1.79,0c0.18-0.27,0.34-0.5,0.5-0.74
	c0.6,0,1.2,0,1.77,0c0.1-0.05,0.12-0.12,0.2-0.22c-0.33,0-0.62,0-0.91,0c-0.01-0.02-0.01-0.04-0.02-0.05c0.2-0.24,0.4-0.48,0.6-0.71
	c1.09,0,2.16,0,3.29,0c-0.37,0.31-0.69,0.57-1.01,0.84c0,0.1-0.01,0.19-0.02,0.3c-0.12,0.18-0.24,0.37-0.37,0.56
	c-0.01,0.18-0.02,0.38-0.01,0.57c0.24,0.14,0.48,0.21,0.75,0.2c1.47-0.01,2.94,0,4.41,0c0.08,0,0.17,0,0.27,0c0,2.55,0,5.09,0,7.65
	c-0.58,0-1.18,0-1.79,0c0-0.43,0-0.87,0-1.33c-0.55,0-1.08,0-1.64,0c0-0.47,0-0.91,0-1.37c-0.2,0-0.39,0-0.6,0
	c-0.43,0.52-0.97,0.9-1.65,1.11c0.66,1.49,1.31,2.97,1.97,4.47c-1.91,0-3.8,0-5.73,0c0.68-1.5,1.35-2.98,2.03-4.48
	c-0.65-0.21-1.19-0.57-1.62-1.1c-0.2,0-0.4,0-0.62,0c0,0.45,0,0.89,0,1.35c-0.55,0-1.08,0-1.63,0c0,0.45,0,0.89,0,1.29
	c-0.04,0.06-0.07,0.06-0.11,0.06c-0.5,0-1,0-1.5,0C6.59,16.64,6.54,16.63,6.5,16.62z M10.52,10.38c0.21,0.01,0.38-0.12,0.58-0.16
	c0.08-0.25,0.15-0.49,0.23-0.72C11.01,9.75,10.69,10,10.52,10.38c0,0.01,0,0.02-0.01,0.03C10.53,10.41,10.53,10.4,10.52,10.38z
	 M11.3,14.21c0.01,0.01,0.02,0.02,0.03,0.03C11.33,14.22,11.33,14.19,11.3,14.21c-0.02-0.25-0.15-0.46-0.19-0.72
	c-0.21-0.04-0.39-0.15-0.63-0.18C10.7,13.71,10.94,14.02,11.3,14.21z M14.52,14.26c0.32-0.08,0.76-0.55,0.88-0.95
	c-0.22,0.07-0.43,0.14-0.66,0.22C14.68,13.77,14.6,14.01,14.52,14.26c0,0.01-0.01,0.02-0.04,0.05
	C14.52,14.28,14.55,14.29,14.52,14.26z M13.46,12.05c-0.37,0-0.71,0-1.06,0c-0.01,0.44,0.04,0.86,0.13,1.28c0.28,0,0.55,0,0.81,0
	C13.43,12.91,13.44,12.49,13.46,12.05z M13.33,10.38c-0.28-0.01-0.54-0.02-0.82,0.02c-0.07,0.43-0.14,0.85-0.13,1.28
	c0.36,0,0.71,0,1.06,0C13.44,11.24,13.42,10.81,13.33,10.38z M14.49,10.53c-0.25-0.04-0.48-0.12-0.74-0.09
	c0.07,0.42,0.11,0.83,0.13,1.24c0.27,0,0.52,0,0.78,0C14.63,11.29,14.59,10.92,14.49,10.53z M13.87,12.06
	c-0.01,0.42-0.05,0.83-0.12,1.26c0.27-0.06,0.52-0.06,0.75-0.16c0.09-0.37,0.13-0.73,0.15-1.1C14.39,12.06,14.15,12.06,13.87,12.06z
	 M12.12,10.42c-0.28,0.04-0.52,0.06-0.76,0.15c-0.07,0.37-0.15,0.74-0.15,1.11c0.27,0,0.52,0,0.76,0
	C12.02,11.26,12.03,10.86,12.12,10.42z M12.13,13.3c-0.09-0.43-0.1-0.83-0.15-1.24c-0.26-0.01-0.51-0.02-0.77,0.01
	c0.01,0.38,0.06,0.74,0.15,1.09C11.6,13.23,11.85,13.27,12.13,13.3z M14.83,10.63c0.1,0.36,0.08,0.72,0.14,1.06
	c0.29,0,0.55,0,0.82,0c-0.03-0.28-0.05-0.54-0.16-0.78C15.39,10.79,15.13,10.7,14.83,10.63z M14.84,13.1
	c0.3-0.08,0.56-0.16,0.79-0.28c0.08-0.25,0.13-0.49,0.15-0.76c-0.27,0-0.53,0-0.82,0C14.93,12.39,14.92,12.72,14.84,13.1z
	 M10.28,10.92c-0.08,0.25-0.14,0.5-0.14,0.77c0.26,0,0.5,0,0.76,0c0.03-0.35,0.05-0.67,0.11-1.04C10.74,10.74,10.5,10.8,10.28,10.92
	z M12.51,14.76c-0.11-0.37-0.21-0.71-0.31-1.04c-0.25-0.04-0.48-0.08-0.73-0.11c0.09,0.33,0.21,0.63,0.34,0.92
	C12.04,14.64,12.25,14.71,12.51,14.76z M10.89,12.06c-0.26,0-0.5,0-0.74,0c-0.01,0.27,0.05,0.51,0.13,0.75
	c0.23,0.1,0.46,0.2,0.73,0.24C10.94,12.71,10.93,12.39,10.89,12.06z M14.36,10.1c-0.08-0.33-0.2-0.62-0.32-0.91
	c-0.22-0.1-0.44-0.18-0.69-0.2c0.13,0.34,0.21,0.68,0.31,1.01C13.89,10.02,14.11,10.06,14.36,10.1z M12.51,8.98
	c-0.26,0.05-0.48,0.11-0.69,0.21c-0.11,0.29-0.24,0.58-0.32,0.92c0.25-0.04,0.48-0.08,0.71-0.11C12.3,9.67,12.4,9.34,12.51,8.98z
	 M14.04,14.56c0.12-0.31,0.26-0.61,0.33-0.94c-0.26,0.04-0.48,0.08-0.69,0.11c-0.1,0.34-0.19,0.67-0.29,1.01
	C13.62,14.73,13.82,14.64,14.04,14.56z M12.93,14.82c0.15-0.35,0.27-0.69,0.32-1.06c-0.22,0-0.43,0-0.65,0
	C12.69,14.13,12.75,14.49,12.93,14.82z M12.61,9.97c0.23-0.02,0.44,0.02,0.65-0.03c-0.07-0.35-0.14-0.68-0.25-1
	c-0.06-0.01-0.11-0.02-0.15,0.03C12.77,9.28,12.68,9.61,12.61,9.97z M15.41,10.41c-0.2-0.39-0.61-0.82-0.88-0.91
	c0.07,0.23,0.15,0.46,0.22,0.69C14.96,10.26,15.16,10.32,15.41,10.41z"/>
<path style="fill:#0179B7;" d="M22,4v18H4V4H22 M25,1H1v24h24V1L25,1z"/>
</svg>
