<?xml version="1.0" encoding="utf-8"?>
<!-- Generator: Adobe Illustrator 26.0.2, SVG Export Plug-In . SVG Version: 6.00 Build 0)  -->
<svg version="1.1" id="Layer_1" xmlns="http://www.w3.org/2000/svg" xmlns:xlink="http://www.w3.org/1999/xlink" x="0px" y="0px"
	 viewBox="0 0 307 54" style="enable-background:new 0 0 307 54;" xml:space="preserve">
<path style="fill:#022E5F;" d="M22.54,11.57l0.01-1.68l1.18-1.68V7.38l3.01-2.41h-7.46V4.93h-0.56h-0.56h-0.57h-0.57l-0.47,0.54
	L16.07,6L15.6,6.54l-0.47,0.54h0.72h0.72h0.72h0.72l-0.14,0.18l-0.14,0.18l-0.14,0.18l-0.14,0.19H16.1h-1.35H13.4h-1.35l-0.36,0.51
	l-0.36,0.51l-0.36,0.51l-0.36,0.51h1.33h1.33h1.33h1.33v0.44v0.44v0.44v0.44c-0.09,0.03-0.18,0.07-0.27,0.11s-0.18,0.07-0.27,0.11
	s-0.18,0.08-0.26,0.12s-0.18,0.08-0.26,0.13h-3.72H7.44H3.72H0v5.51v5.51v5.51v5.51h1.29h1.29h1.29h1.29v-0.98v-0.98v-0.98V30.2
	h1.22H7.6h1.22h1.22v-0.98v-0.98v-0.98v-0.98h0.46h0.46h0.46h0.46c0.05,0.07,0.11,0.13,0.16,0.2c0.06,0.07,0.11,0.13,0.17,0.19
	s0.12,0.12,0.18,0.19c0.06,0.06,0.12,0.12,0.18,0.19c0.29,0.29,0.6,0.56,0.93,0.81c0.32,0.25,0.66,0.47,1.01,0.68
	c0.35,0.2,0.71,0.38,1.09,0.54c0.37,0.16,0.75,0.29,1.15,0.4l-1.52,3.23l-1.52,3.23l-1.52,3.23l-1.53,3.27h4.32h4.32v-0.01h8.4
	l-5.9-12.89c1.96-0.53,3.7-1.7,4.94-3.21h1.8v3.92h4.85v3.91h5.4V12.1H23.76C23.37,11.89,22.96,11.72,22.54,11.57z M21.96,19.91
	c-0.03-1.24-0.16-2.48-0.4-3.72c0.77,0.08,1.54,0.2,2.29,0.36c0.28,1.14,0.44,2.26,0.47,3.36C24.32,19.91,21.96,19.91,21.96,19.91z
	 M24.33,20.88c-0.03,1.09-0.18,2.19-0.45,3.31c-0.75,0.16-1.51,0.29-2.27,0.37c0.23-1.23,0.34-2.45,0.36-3.67h2.36V20.88z
	 M22.49,12.63c0.41,0.94,0.74,1.84,1.01,2.71c-0.72-0.15-1.46-0.26-2.21-0.33c-0.24-0.99-0.55-2-0.93-3
	C20.94,12.1,21.68,12.28,22.49,12.63z M18.97,11.93c0.25-0.02,0.41-0.01,0.41-0.01c0.03,0,0.05,0,0.07,0
	c0.3,1.02,0.55,2.02,0.75,3.02c-0.67-0.03-1.35-0.02-2.02,0.01C18.4,13.97,18.67,12.97,18.97,11.93z M20.41,16.1
	c0.21,1.28,0.33,2.55,0.36,3.8h-3.24c0.03-1.31,0.18-2.55,0.41-3.78C18.76,16.07,19.59,16.06,20.41,16.1z M15.84,12.66
	c0.77-0.33,1.53-0.51,2.14-0.6c-0.38,1.02-0.7,2.01-0.94,3c-0.75,0.08-1.49,0.2-2.22,0.36C15.1,14.52,15.44,13.61,15.84,12.66z
	 M16.4,20.89L16.4,20.89c0.03,1.21,0.17,2.42,0.41,3.64c-0.78-0.09-1.57-0.23-2.35-0.4c-0.26-1.1-0.41-2.17-0.44-3.23h2.38V20.89z
	 M14.02,19.91c0.04-1.09,0.19-2.17,0.46-3.29c0.76-0.17,1.53-0.3,2.3-0.39c-0.24,1.24-0.37,2.46-0.39,3.68H14.02z M13.58,14.15
	c0.3-0.31,0.62-0.57,0.96-0.8c-0.31,0.76-0.57,1.53-0.77,2.31c-0.67,0.19-1.33,0.41-1.96,0.66C12.21,15.57,12.78,14.81,13.58,14.15z
	 M11.25,17.6c0.73-0.29,1.48-0.53,2.23-0.73c-0.2,1-0.31,2.02-0.34,3.04H10.8C10.83,19.38,10.94,18.54,11.25,17.6z M11.23,23.13
	c-0.27-0.86-0.37-1.66-0.42-2.24h2.33c0.03,0.99,0.14,1.99,0.33,2.98C12.72,23.66,11.98,23.42,11.23,23.13z M13.83,26.87
	c-0.97-0.72-1.63-1.61-2.08-2.49c0.64,0.27,1.32,0.49,2,0.68c0.2,0.76,0.47,1.53,0.78,2.29C14.3,27.2,14.07,27.05,13.83,26.87z
	 M15.83,28.05c-0.42-0.94-0.77-1.85-1.04-2.74c0.75,0.16,1.5,0.28,2.27,0.36c0.25,1.01,0.56,2.04,0.94,3.07
	C17.41,28.63,16.66,28.43,15.83,28.05z M19.32,28.87c-0.12,0.01-0.19,0.01-0.19,0.01v0.01c-0.03,0-0.08,0-0.14-0.01
	c-0.34-1.11-0.62-2.14-0.84-3.11c0.68,0.03,1.37,0.04,2.05,0.01C19.98,26.81,19.69,27.84,19.32,28.87z M17.93,24.63
	c-0.24-1.34-0.37-2.57-0.4-3.74h3.24c-0.02,1.27-0.13,2.52-0.34,3.77C19.6,24.69,18.76,24.68,17.93,24.63z M22.48,28.12
	c-0.77,0.32-1.47,0.5-2.03,0.6c0.37-1.02,0.67-2.03,0.91-3.04c0.74-0.07,1.47-0.19,2.18-0.33C23.26,26.25,22.91,27.17,22.48,28.12z
	 M24.75,26.87c-0.33,0.24-0.67,0.46-1,0.64c0.34-0.8,0.62-1.6,0.84-2.4c0.75-0.2,1.48-0.44,2.17-0.72
	C26.29,25.32,25.65,26.22,24.75,26.87z M27.24,23.16c-0.78,0.31-1.58,0.58-2.39,0.79c0.21-1.03,0.32-2.05,0.34-3.07h2.52
	C27.67,21.49,27.52,22.31,27.24,23.16z M27.72,19.91H25.2c-0.03-1.05-0.15-2.09-0.36-3.12c0.84,0.22,1.66,0.49,2.45,0.81
	C27.6,18.48,27.69,19.28,27.72,19.91z M25.33,14.52c0.6,0.59,1.05,1.19,1.38,1.79c-0.68-0.28-1.41-0.52-2.15-0.72
	c-0.21-0.77-0.47-1.54-0.77-2.29C24.3,13.63,24.83,14.03,25.33,14.52z M48.21,14.08c-0.88,0-1.79,0.23-2.42,0.81h-0.06l0.71-2.42
	h0.06c0.25,0.1,0.51,0.1,0.77,0.15h0.5h7.58c0.34,0,0.67-0.02,0.93-0.15h0.06l-0.65,2.42h-0.06c-0.25-0.71-1.07-0.81-1.75-0.81
	h-1.83v9.27c0,1.16-0.02,1.96,1.06,2.58v0.06H49.1v-0.06c1.01-0.38,0.89-1.87,0.89-2.78v-9.07H48.21z M61.98,26h-3.85v-0.06
	c1.02-0.38,0.89-1.87,0.89-2.78v-7.69c0-0.92,0.14-2.4-0.89-2.79v-0.06h3.85v0.06c-1.02,0.39-0.89,1.87-0.89,2.81v2.52h7.34V15.5
	c0-0.94,0.15-2.43-0.89-2.81v-0.06h3.88v0.06c-1.03,0.39-0.91,1.87-0.91,2.79v7.69c0,0.91-0.12,2.4,0.91,2.78V26h-3.88v-0.06
	c1.03-0.38,0.89-1.87,0.89-2.78v-3.69h-7.34v3.69c0,0.91-0.12,2.4,0.89,2.78V26z M73.31,12.68v-0.06h3.86v0.06
	c-1.02,0.39-0.89,1.87-0.89,2.79v5.43c0,2.7,1.14,3.96,3.23,3.96c1.14,0,2.29-0.46,2.97-1.42c0.44-0.61,0.42-1.11,0.42-1.85v-6.11
	c0-0.92,0.11-2.4-0.89-2.79v-0.06h3.85l0.02,0.06c-1.04,0.39-0.92,1.87-0.92,2.81v7.67c0,0.91-0.12,2.4,0.92,2.78V26H82.9v-1.33
	c-0.89,1.17-2.56,1.66-3.98,1.66c-1.34,0-2.76-0.42-3.67-1.42c-1.09-1.18-1.04-2.53-1.04-4v-5.43
	C74.19,14.56,74.34,13.07,73.31,12.68z M92.51,26.01h-3.59v-0.06C90,25.32,90,24.5,90,23.36v-8.11c0-1.14,0-1.94-1.06-2.56v-0.06
	h2.97v0.02c0.08,0.24,0.16,0.34,0.3,0.51l0.29,0.41l7.44,9.39v-7.71c0-1.14,0.02-1.94-1.06-2.56v-0.06h3.58v0.06
	c-1.06,0.62-1.06,1.42-1.06,2.56v11.4c-1.44-0.49-2.07-1.15-2.97-2.32l-6.97-8.84v7.87c0,1.14-0.02,1.96,1.06,2.58h-0.01
	C92.51,25.94,92.51,26.01,92.51,26.01z M116.86,19.19c0-4.05-2.89-6.57-7.52-6.57h-4.98v0.06c1.04,0.31,0.89,1.79,0.89,2.72v7.67
	c0,1.2,0.12,2.18-0.89,2.87V26h4.88C113.79,26,116.86,23.2,116.86,19.19z M107.32,24.39V14.31c0.61-0.14,1.22-0.23,1.83-0.23
	c3.39,0,5.39,1.79,5.39,5.35c0,3.52-2.7,5.1-5.74,5.1C108.29,24.54,107.81,24.5,107.32,24.39z M127.5,26h-8.47v-0.06
	c1.04-0.36,0.92-1.87,0.92-2.78V15.5c0-0.94,0.12-2.43-0.92-2.81v-0.06h6.5c0.34,0,0.7,0.04,0.96-0.1h0.07v2.37h-0.07
	c-0.63-0.73-1.46-0.81-2.4-0.81c-0.71,0-1.42,0.03-2.07,0.15v3.78h2.42c0.32,0,0.65,0,0.89-0.12h0.06v2.15h-0.06
	c-0.32-0.59-1.18-0.57-1.81-0.57h-1.5v4.82l2.58,0.24c1.34,0.13,2.74-0.3,3.75-1.2h0.07L127.5,26z M134.14,26h-3.88v-0.06
	c1.03-0.36,0.89-1.87,0.89-2.78V15.5c0-0.94,0.14-2.43-0.89-2.81v-0.06h4.83c2.72,0,4.21,1.42,4.21,3.27c0,1.78-1.57,3.19-3.23,3.57
	l2.93,3.69c0.85,1.05,2.13,2.11,3.29,2.84h-1.87c-1.08,0-1.75-0.26-2.36-1.01l-2.48-3.07l-1.87-2.87c1.63-0.25,3.52-0.99,3.52-2.91
	c0-1.47-1.27-2.32-2.62-2.26c-0.47,0.02-0.91,0.08-1.38,0.16v9.11c0,0.93-0.12,2.41,0.92,2.78h-0.01L134.14,26L134.14,26z
	 M151.66,25.37c1.36-0.66,2.44-2,2.44-3.56c0-1.99-1.48-3.21-3.31-3.6c1.16-0.5,2.03-1.28,2.03-2.64c0-1.81-1.57-2.95-4.25-2.95
	h-4.82v0.06c1.04,0.38,0.9,1.87,0.9,2.79v7.66c0,0.94,0.12,2.43-0.9,2.81V26h3.36C148.63,26,150.24,26.06,151.66,25.37z
	 M146.73,14.03l1.36-0.14c1.22-0.12,2.52,0.6,2.52,2.01c0,1.66-1.89,2.11-3.22,2.11h-0.67L146.73,14.03L146.73,14.03z M146.73,19.35
	l1.42-0.08c1.79-0.1,3.7,0.75,3.7,2.72c0,1.93-1.68,2.7-3.35,2.54l-1.77-0.16L146.73,19.35L146.73,19.35z M160.99,25.99h-3.86v-0.06
	c1.02-0.36,0.9-1.87,0.9-2.78v-7.67c0-0.94,0.14-2.43-0.9-2.81v-0.06h3.86v0.06c-1.01,0.39-0.89,1.89-0.89,2.81v7.67
	c0,0.91-0.13,2.4,0.89,2.78V25.99z M167.96,26h-3.88v-0.06c1.04-0.36,0.89-1.87,0.89-2.78V15.5c0-0.94,0.15-2.43-0.89-2.81v-0.06
	h4.84c2.72,0,4.21,1.42,4.21,3.27c0,1.78-1.57,3.19-3.23,3.57l2.92,3.69c0.86,1.05,2.14,2.11,3.3,2.84h-1.88
	c-1.07,0-1.74-0.26-2.35-1.01l-2.48-3.07l-1.87-2.87c1.62-0.25,3.52-0.99,3.52-2.91c0-1.47-1.26-2.32-2.62-2.26
	c-0.47,0.02-0.92,0.08-1.39,0.16v9.11c0,0.93-0.11,2.41,0.92,2.78V26H167.96z M190.01,19.19c0-4.05-2.89-6.57-7.52-6.57h-4.97v0.06
	c1.03,0.31,0.89,1.79,0.89,2.72v7.67c0,1.2,0.12,2.18-0.89,2.87V26h4.88C186.94,26,190.01,23.2,190.01,19.19z M180.48,24.39V14.31
	c0.62-0.14,1.22-0.23,1.83-0.23c3.4,0,5.39,1.79,5.39,5.35c0,3.52-2.71,5.1-5.74,5.1C181.45,24.54,180.97,24.5,180.48,24.39z
	 M50.64,38.56c0.25,0.32,0.38,0.67,0.38,1.06c0,0.52-0.18,0.93-0.54,1.22s-0.85,0.43-1.46,0.43c-0.42,0-0.81-0.06-1.18-0.19
	c-0.37-0.12-0.7-0.32-0.99-0.58l0.57-0.64c0.21,0.17,0.46,0.31,0.74,0.41c0.28,0.1,0.57,0.15,0.87,0.15c0.35,0,0.63-0.07,0.83-0.22
	s0.3-0.33,0.3-0.57c0-0.2-0.06-0.37-0.18-0.51s-0.31-0.22-0.57-0.25c-0.05-0.01-0.09-0.01-0.14-0.02c-0.05-0.01-0.08-0.01-0.13-0.02
	c-0.07-0.01-0.15-0.02-0.23-0.03c-0.08-0.01-0.16-0.02-0.26-0.03c-0.49-0.07-0.86-0.25-1.12-0.54s-0.39-0.64-0.39-1.06
	c0-0.49,0.16-0.89,0.49-1.19c0.33-0.31,0.78-0.46,1.37-0.46c0.35,0,0.68,0.06,0.99,0.17c0.31,0.11,0.59,0.25,0.85,0.42l-0.48,0.71
	c-0.21-0.13-0.44-0.24-0.67-0.32c-0.24-0.08-0.49-0.12-0.73-0.12c-0.27,0-0.49,0.07-0.67,0.2c-0.2,0.11-0.29,0.31-0.29,0.58
	c0,0.16,0.06,0.31,0.19,0.45s0.33,0.23,0.62,0.28c0.07,0.01,0.17,0.02,0.28,0.04s0.23,0.03,0.36,0.05
	C49.98,38.05,50.37,38.24,50.64,38.56z M53.18,37.33c-0.03,0.19-0.05,0.54-0.05,1.06s0.01,0.87,0.05,1.06
	c0.03,0.19,0.09,0.34,0.17,0.46c0.01,0.02,0.02,0.03,0.03,0.05c0.01,0.01,0.02,0.03,0.03,0.05c0.09,0.11,0.21,0.21,0.36,0.29
	s0.32,0.12,0.53,0.12c0.24,0,0.45-0.07,0.63-0.2s0.33-0.32,0.45-0.58h0.91c-0.11,0.53-0.34,0.94-0.71,1.22
	c-0.37,0.28-0.79,0.41-1.28,0.41c-0.42,0-0.77-0.1-1.07-0.29s-0.51-0.41-0.66-0.64c-0.01-0.02-0.01-0.03-0.02-0.05
	c-0.01-0.01-0.02-0.03-0.02-0.05c-0.01-0.02-0.02-0.05-0.03-0.06c-0.01-0.02-0.02-0.04-0.03-0.06c-0.07-0.14-0.11-0.32-0.14-0.53
	s-0.04-0.62-0.04-1.22s0.01-1.01,0.04-1.22c0.02-0.21,0.07-0.39,0.14-0.53c0.01-0.02,0.02-0.05,0.03-0.06
	c0.01-0.02,0.02-0.04,0.03-0.06s0.01-0.03,0.02-0.05c0.01-0.02,0.02-0.03,0.02-0.05c0.15-0.24,0.37-0.45,0.66-0.64
	c0.29-0.2,0.65-0.29,1.07-0.29c0.54,0,0.98,0.16,1.34,0.49s0.58,0.72,0.66,1.18h-0.91c-0.07-0.21-0.2-0.4-0.39-0.57
	c-0.19-0.16-0.42-0.24-0.7-0.24c-0.2,0-0.38,0.04-0.53,0.12c-0.15,0.08-0.27,0.18-0.36,0.29c-0.01,0.01-0.02,0.03-0.03,0.05
	c-0.01,0.01-0.02,0.03-0.03,0.05C53.27,36.99,53.22,37.14,53.18,37.33z M60.84,35.53h0.86v5.7h-0.86v-2.48h-2.26v2.48h-0.86v-5.7
	h0.86v2.45h2.26V35.53z M67.14,36.64c-0.01-0.02-0.02-0.04-0.03-0.06s-0.02-0.04-0.03-0.06s-0.01-0.03-0.02-0.05
	c-0.01-0.01-0.02-0.03-0.02-0.05c-0.15-0.23-0.37-0.45-0.66-0.64s-0.65-0.29-1.07-0.29s-0.78,0.1-1.07,0.29
	c-0.29,0.19-0.51,0.41-0.66,0.64c-0.01,0.02-0.01,0.03-0.02,0.05c-0.01,0.01-0.02,0.03-0.02,0.05c-0.01,0.02-0.02,0.04-0.03,0.06
	s-0.02,0.04-0.03,0.06c-0.07,0.14-0.12,0.32-0.14,0.53c-0.03,0.21-0.04,0.62-0.04,1.22s0.01,1,0.04,1.22
	c0.03,0.21,0.07,0.39,0.14,0.53c0.01,0.02,0.02,0.04,0.03,0.06s0.02,0.04,0.03,0.06s0.01,0.03,0.02,0.05s0.02,0.03,0.02,0.05
	c0.15,0.23,0.37,0.45,0.66,0.64s0.65,0.29,1.07,0.29s0.78-0.1,1.07-0.29c0.29-0.19,0.51-0.41,0.66-0.64
	c0.01-0.02,0.01-0.03,0.02-0.05c0.01-0.01,0.02-0.03,0.02-0.05c0.01-0.02,0.02-0.04,0.03-0.06s0.02-0.04,0.03-0.06
	c0.07-0.14,0.12-0.32,0.14-0.53c0.03-0.21,0.04-0.62,0.04-1.22c0-0.6-0.01-1.01-0.04-1.22C67.26,36.96,67.21,36.77,67.14,36.64z
	 M66.41,39.44c-0.03,0.19-0.09,0.34-0.17,0.46c-0.01,0.02-0.02,0.03-0.03,0.05s-0.02,0.03-0.03,0.05c-0.08,0.11-0.2,0.21-0.35,0.29
	s-0.33,0.12-0.53,0.12s-0.38-0.04-0.53-0.12c-0.15-0.08-0.27-0.18-0.36-0.29c-0.01-0.02-0.02-0.03-0.03-0.05s-0.02-0.03-0.03-0.05
	c-0.08-0.12-0.14-0.28-0.17-0.46c-0.03-0.19-0.05-0.54-0.05-1.06c0-0.51,0.02-0.87,0.05-1.06c0.03-0.19,0.09-0.34,0.17-0.46
	c0.01-0.02,0.02-0.03,0.03-0.05s0.02-0.03,0.03-0.05c0.09-0.11,0.21-0.21,0.36-0.29s0.32-0.12,0.53-0.12c0.2,0,0.38,0.04,0.53,0.12
	c0.15,0.08,0.27,0.18,0.35,0.29c0.01,0.02,0.02,0.03,0.03,0.05s0.03,0.03,0.03,0.05c0.08,0.12,0.14,0.28,0.17,0.46
	c0.03,0.19,0.05,0.54,0.05,1.06C66.46,38.9,66.45,39.26,66.41,39.44z M72.57,36.64c-0.01-0.02-0.02-0.04-0.03-0.06
	s-0.02-0.04-0.03-0.06s-0.01-0.03-0.02-0.05c-0.01-0.01-0.02-0.03-0.02-0.05c-0.15-0.23-0.37-0.45-0.66-0.64s-0.65-0.29-1.07-0.29
	s-0.78,0.1-1.07,0.29c-0.29,0.19-0.51,0.41-0.66,0.64C69,36.44,69,36.45,68.99,36.47c-0.01,0.01-0.02,0.03-0.02,0.05
	c-0.01,0.02-0.02,0.04-0.03,0.06s-0.02,0.04-0.03,0.06c-0.07,0.14-0.12,0.32-0.14,0.53c-0.03,0.21-0.04,0.62-0.04,1.22
	s0.01,1,0.04,1.22c0.03,0.21,0.07,0.39,0.14,0.53c0.01,0.02,0.02,0.04,0.03,0.06s0.02,0.04,0.03,0.06s0.01,0.03,0.02,0.05
	c0.01,0.01,0.02,0.03,0.02,0.05c0.15,0.23,0.37,0.45,0.66,0.64s0.65,0.29,1.07,0.29s0.78-0.1,1.07-0.29
	c0.29-0.19,0.51-0.41,0.66-0.64c0.01-0.02,0.01-0.03,0.02-0.05c0.01-0.01,0.02-0.03,0.02-0.05c0.01-0.02,0.02-0.04,0.03-0.06
	s0.02-0.04,0.03-0.06c0.07-0.14,0.12-0.32,0.14-0.53c0.03-0.21,0.04-0.62,0.04-1.22c0-0.6-0.01-1.01-0.04-1.22
	C72.69,36.96,72.64,36.77,72.57,36.64z M71.84,39.44c-0.03,0.19-0.09,0.34-0.17,0.46c-0.01,0.02-0.02,0.03-0.03,0.05
	s-0.03,0.03-0.03,0.05c-0.08,0.11-0.2,0.21-0.35,0.29s-0.33,0.12-0.53,0.12s-0.38-0.04-0.53-0.12c-0.15-0.08-0.27-0.18-0.36-0.29
	c-0.01-0.02-0.02-0.03-0.03-0.05s-0.03-0.03-0.03-0.05c-0.08-0.12-0.14-0.28-0.17-0.46c-0.03-0.19-0.05-0.54-0.05-1.06
	c0-0.51,0.02-0.87,0.05-1.06c0.03-0.19,0.09-0.34,0.17-0.46c0.01-0.02,0.02-0.03,0.03-0.05s0.02-0.03,0.03-0.05
	c0.09-0.11,0.21-0.21,0.36-0.29s0.32-0.12,0.53-0.12c0.2,0,0.38,0.04,0.53,0.12c0.15,0.08,0.27,0.18,0.35,0.29
	c0.01,0.02,0.02,0.03,0.03,0.05s0.02,0.03,0.03,0.05c0.08,0.12,0.14,0.28,0.17,0.46c0.03,0.19,0.05,0.54,0.05,1.06
	C71.89,38.9,71.88,39.26,71.84,39.44z M75.18,40.41h2.77v0.81h-3.63v-5.7h0.86V40.41z M86.5,36.64c-0.01-0.02-0.02-0.04-0.03-0.06
	s-0.02-0.04-0.03-0.06s-0.01-0.03-0.02-0.05c-0.01-0.01-0.02-0.03-0.02-0.05c-0.15-0.23-0.37-0.45-0.66-0.64s-0.65-0.29-1.07-0.29
	s-0.78,0.1-1.07,0.29c-0.29,0.19-0.51,0.41-0.66,0.64c-0.01,0.02-0.01,0.03-0.02,0.05c-0.01,0.01-0.02,0.03-0.02,0.05
	c-0.01,0.02-0.02,0.04-0.03,0.06s-0.02,0.04-0.03,0.06c-0.07,0.14-0.12,0.32-0.14,0.53c-0.03,0.21-0.04,0.62-0.04,1.22
	s0.01,1,0.04,1.22c0.03,0.21,0.07,0.39,0.14,0.53c0.01,0.02,0.02,0.04,0.03,0.06s0.02,0.04,0.03,0.06s0.01,0.03,0.02,0.05
	c0.01,0.01,0.02,0.03,0.02,0.05c0.15,0.23,0.37,0.45,0.66,0.64s0.65,0.29,1.07,0.29s0.78-0.1,1.07-0.29
	c0.29-0.19,0.51-0.41,0.66-0.64c0.01-0.02,0.01-0.03,0.02-0.05c0.01-0.01,0.02-0.03,0.02-0.05c0.01-0.02,0.02-0.04,0.03-0.06
	s0.02-0.04,0.03-0.06c0.07-0.14,0.12-0.32,0.14-0.53c0.03-0.21,0.04-0.62,0.04-1.22c0-0.6-0.01-1.01-0.04-1.22
	C86.61,36.96,86.57,36.77,86.5,36.64z M85.77,39.44c-0.03,0.19-0.09,0.34-0.17,0.46c-0.01,0.02-0.02,0.03-0.03,0.05
	s-0.02,0.03-0.03,0.05c-0.08,0.11-0.2,0.21-0.35,0.29s-0.33,0.12-0.53,0.12s-0.38-0.04-0.53-0.12c-0.15-0.08-0.27-0.18-0.36-0.29
	c-0.01-0.02-0.02-0.03-0.03-0.05s-0.02-0.03-0.03-0.05c-0.08-0.12-0.14-0.28-0.17-0.46c-0.03-0.19-0.05-0.54-0.05-1.06
	c0-0.51,0.02-0.87,0.05-1.06c0.03-0.19,0.09-0.34,0.17-0.46c0.01-0.02,0.02-0.03,0.03-0.05s0.02-0.03,0.03-0.05
	c0.09-0.11,0.21-0.21,0.36-0.29s0.32-0.12,0.53-0.12s0.38,0.04,0.53,0.12c0.15,0.08,0.27,0.18,0.35,0.29
	c0.01,0.02,0.02,0.03,0.03,0.05s0.02,0.03,0.03,0.05c0.08,0.12,0.14,0.28,0.17,0.46c0.03,0.19,0.05,0.54,0.05,1.06
	C85.82,38.9,85.8,39.26,85.77,39.44z M88.24,35.53h3.63v0.83H89.1v1.67h2.36v0.76H89.1v2.44h-0.86V35.53z M99.45,38.1h2.02v1.16
	c0,0.57-0.2,1.04-0.59,1.43s-0.87,0.58-1.44,0.58c-0.42,0-0.77-0.1-1.07-0.29c-0.29-0.19-0.51-0.41-0.66-0.64
	c-0.01-0.02-0.01-0.03-0.02-0.05c-0.01-0.01-0.02-0.03-0.02-0.05c-0.01-0.02-0.02-0.05-0.03-0.06c-0.01-0.02-0.02-0.04-0.03-0.06
	c-0.07-0.14-0.11-0.32-0.14-0.53s-0.04-0.62-0.04-1.22s0.01-1.01,0.04-1.22c0.02-0.21,0.07-0.39,0.14-0.53
	c0.01-0.02,0.02-0.05,0.03-0.06c0.01-0.02,0.02-0.04,0.03-0.06s0.01-0.03,0.02-0.05c0.01-0.02,0.02-0.03,0.02-0.05
	c0.15-0.24,0.37-0.45,0.66-0.64c0.29-0.2,0.65-0.29,1.07-0.29c0.54,0,0.98,0.16,1.34,0.49c0.36,0.33,0.58,0.72,0.66,1.18h-0.91
	c-0.07-0.21-0.2-0.4-0.39-0.57c-0.19-0.16-0.42-0.24-0.7-0.24c-0.2,0-0.38,0.04-0.53,0.12c-0.15,0.08-0.27,0.18-0.36,0.29
	c-0.01,0.01-0.02,0.03-0.03,0.05c-0.01,0.01-0.02,0.03-0.03,0.05c-0.08,0.12-0.14,0.28-0.17,0.46c-0.03,0.19-0.05,0.54-0.05,1.06
	s0.02,0.87,0.05,1.06c0.03,0.19,0.09,0.34,0.17,0.46c0.01,0.02,0.02,0.03,0.03,0.05c0.01,0.01,0.02,0.03,0.03,0.05
	c0.09,0.11,0.21,0.21,0.36,0.29s0.32,0.12,0.53,0.12c0.33,0,0.6-0.11,0.83-0.33c0.22-0.23,0.33-0.51,0.33-0.87V38.9h-1.16v-0.8
	H99.45z M103.9,40.41h2.77v0.81h-3.63v-5.7h0.86V40.41z M111.72,36.64c-0.01-0.02-0.02-0.04-0.03-0.06s-0.02-0.04-0.03-0.06
	s-0.01-0.03-0.02-0.05c-0.01-0.01-0.02-0.03-0.02-0.05c-0.15-0.23-0.37-0.45-0.66-0.64s-0.65-0.29-1.07-0.29s-0.78,0.1-1.07,0.29
	c-0.29,0.19-0.51,0.41-0.66,0.64c-0.01,0.02-0.01,0.03-0.02,0.05c-0.01,0.01-0.02,0.03-0.02,0.05c-0.01,0.02-0.02,0.04-0.03,0.06
	s-0.02,0.04-0.03,0.06c-0.07,0.14-0.12,0.32-0.14,0.53c-0.03,0.21-0.04,0.62-0.04,1.22s0.01,1,0.04,1.22
	c0.03,0.21,0.07,0.39,0.14,0.53c0.01,0.02,0.02,0.04,0.03,0.06s0.02,0.04,0.03,0.06s0.01,0.03,0.02,0.05s0.02,0.03,0.02,0.05
	c0.15,0.23,0.37,0.45,0.66,0.64s0.65,0.29,1.07,0.29s0.78-0.1,1.07-0.29c0.29-0.19,0.51-0.41,0.66-0.64
	c0.01-0.02,0.01-0.03,0.02-0.05c0.01-0.01,0.02-0.03,0.02-0.05c0.01-0.02,0.02-0.04,0.03-0.06s0.02-0.04,0.03-0.06
	c0.07-0.14,0.12-0.32,0.14-0.53c0.03-0.21,0.04-0.62,0.04-1.22c0-0.6-0.01-1.01-0.04-1.22C111.84,36.96,111.79,36.77,111.72,36.64z
	 M110.99,39.44c-0.03,0.19-0.09,0.34-0.17,0.46c-0.01,0.02-0.02,0.03-0.03,0.05s-0.02,0.03-0.03,0.05c-0.08,0.11-0.2,0.21-0.35,0.29
	s-0.33,0.12-0.53,0.12s-0.38-0.04-0.53-0.12c-0.15-0.08-0.27-0.18-0.36-0.29c-0.01-0.02-0.02-0.03-0.03-0.05s-0.03-0.03-0.03-0.05
	c-0.08-0.12-0.14-0.28-0.17-0.46c-0.03-0.19-0.05-0.54-0.05-1.06c0-0.51,0.02-0.87,0.05-1.06c0.03-0.19,0.09-0.34,0.17-0.46
	c0.01-0.02,0.02-0.03,0.03-0.05s0.03-0.03,0.03-0.05c0.09-0.11,0.21-0.21,0.36-0.29s0.32-0.12,0.53-0.12c0.2,0,0.38,0.04,0.53,0.12
	c0.15,0.08,0.27,0.18,0.35,0.29c0.01,0.02,0.02,0.03,0.03,0.05s0.03,0.03,0.03,0.05c0.08,0.12,0.14,0.28,0.17,0.46
	c0.03,0.19,0.05,0.54,0.05,1.06C111.04,38.9,111.03,39.26,110.99,39.44z M116.51,38.3v-0.02c0.33-0.15,0.55-0.33,0.67-0.55
	s0.17-0.44,0.17-0.67c0-0.45-0.14-0.82-0.43-1.11c-0.28-0.29-0.71-0.43-1.25-0.43h-2.2v5.69h2.4c0.43,0,0.8-0.15,1.11-0.44
	c0.32-0.29,0.47-0.68,0.47-1.18c0-0.01,0-0.02,0-0.03s0-0.02,0-0.02c-0.01-0.28-0.1-0.54-0.25-0.79
	C117.04,38.53,116.81,38.37,116.51,38.3z M114.32,36.31h1.24c0.32,0,0.54,0.08,0.7,0.24c0.15,0.16,0.23,0.35,0.23,0.57
	s-0.07,0.41-0.23,0.57c-0.15,0.16-0.38,0.24-0.7,0.24h-1.24V36.31z M116.36,40.15c-0.15,0.18-0.38,0.26-0.7,0.26h-1.33V38.7h1.33
	c0.32,0,0.55,0.08,0.7,0.26c0.15,0.18,0.23,0.37,0.23,0.59C116.58,39.78,116.51,39.97,116.36,40.15z M120.64,35.53l-2.07,5.69h0.91
	l0.44-1.27h2.16l0.44,1.27h0.91l-2.07-5.69H120.64z M120.16,39.19l0.83-2.48H121l0.83,2.48H120.16z M125.44,40.41h2.78v0.81h-3.64
	v-5.7h0.86V40.41z M137.63,35.53h0.81v5.7h-0.86v-3.54h-0.02l-1.19,2.73h-0.72l-1.19-2.73h-0.02v3.54h-0.86v-5.7h0.81l1.63,3.71
	L137.63,35.53z M141.69,35.53l-2.07,5.69h0.91l0.44-1.27h2.16l0.44,1.27h0.91l-2.07-5.69H141.69z M141.21,39.19l0.83-2.48h0.02
	l0.83,2.48H141.21z M149.04,35.53h0.86v5.7h-0.82l-2.58-4.06h-0.02v4.06h-0.86v-5.7h0.81l2.58,4.05h0.02v-4.05H149.04z M153.4,35.53
	l-2.07,5.69h0.91l0.44-1.27h2.16l0.44,1.27h0.91l-2.07-5.69H153.4z M152.92,39.19l0.83-2.48h0.02l0.83,2.48H152.92z M159.05,38.1
	h2.02v1.16c0,0.57-0.2,1.04-0.59,1.43s-0.87,0.58-1.44,0.58c-0.42,0-0.78-0.1-1.07-0.29c-0.29-0.19-0.51-0.41-0.66-0.64
	c-0.01-0.02-0.01-0.03-0.02-0.05c-0.01-0.01-0.02-0.03-0.02-0.05c-0.01-0.02-0.02-0.05-0.03-0.06c-0.01-0.02-0.02-0.04-0.03-0.06
	c-0.07-0.14-0.11-0.32-0.14-0.53s-0.04-0.62-0.04-1.22s0.01-1.01,0.04-1.22c0.02-0.21,0.07-0.39,0.14-0.53
	c0.01-0.02,0.02-0.05,0.03-0.06c0.01-0.02,0.02-0.04,0.03-0.06s0.01-0.03,0.02-0.05c0.01-0.02,0.02-0.03,0.02-0.05
	c0.15-0.24,0.37-0.45,0.66-0.64c0.29-0.2,0.65-0.29,1.07-0.29c0.54,0,0.98,0.16,1.34,0.49s0.58,0.72,0.66,1.18h-0.91
	c-0.07-0.21-0.2-0.4-0.39-0.57c-0.19-0.16-0.42-0.24-0.7-0.24c-0.2,0-0.38,0.04-0.53,0.12c-0.15,0.08-0.27,0.18-0.36,0.29
	c-0.01,0.01-0.02,0.03-0.03,0.05c-0.01,0.01-0.02,0.03-0.03,0.05c-0.08,0.12-0.14,0.28-0.17,0.46c-0.03,0.19-0.05,0.54-0.05,1.06
	s0.02,0.87,0.05,1.06c0.03,0.19,0.09,0.34,0.17,0.46c0.01,0.02,0.02,0.03,0.03,0.05c0.01,0.01,0.02,0.03,0.03,0.05
	c0.09,0.11,0.21,0.21,0.36,0.29s0.32,0.12,0.53,0.12c0.33,0,0.6-0.11,0.83-0.33c0.22-0.23,0.33-0.51,0.33-0.87V38.9h-1.15
	L159.05,38.1L159.05,38.1z M162.63,35.53h3.63v0.83h-2.77v1.62h2.36v0.77h-2.36v1.67h2.77v0.81h-3.63V35.53z M171.66,35.53h0.81v5.7
	h-0.86v-3.54h-0.02l-1.19,2.73h-0.72l-1.19-2.73h-0.02v3.54h-0.86v-5.7h0.81l1.63,3.71L171.66,35.53z M174.23,35.53h3.63v0.83h-2.77
	v1.62h2.36v0.77h-2.36v1.67h2.77v0.81h-3.63V35.53z M182.9,35.53h0.86v5.7h-0.82l-2.58-4.06h-0.01v4.06h-0.86v-5.7h0.82l2.58,4.05
	h0.01V35.53z M184.92,35.53h3.98v0.79h-1.55v4.91h-0.86v-4.91h-1.56L184.92,35.53L184.92,35.53z M46.14,30.28h143.45v0.91H46.14
	V30.28z"/>
<rect x="214.81" style="fill:#8E9C9C;" width="1.13" height="54"/>
<path style="fill:#8C0B42;" d="M297.27,26.36c-0.76-0.81-0.72-1.68-0.72-1.68V5.08h-7.42v15.67c-0.09,1.49-1.54,1.86-2.34,1.84
	c-1.15-0.03-1.82-0.68-1.82-1.79V5.08h-7.22c0,0-3.01,0.01-5.09,0.01c-3.95,0-7.68,0.61-8.95,3.9l-0.75-2.91
	c-0.18-0.58-0.8-0.99-1.42-0.99h-12.91c-0.19,0-0.26,0.06-0.16,0.19c0,0,0.35,0.33,0.99,1.06C250.34,7.35,250,8.7,250,8.7
	l-4.73,18.93h6.88l0.99-4.16h6.64l1.03,4.16c0,0,8.47,0,9.06,0c3.72,0,6.74-0.38,8.23-2.7c1.11,2.12,3.52,3.11,7.75,2.75
	c1.48-0.12,2.92-0.81,3.54-1.92l0.29,0.91c0.24,0.55,0.75,0.96,1.47,0.96h6.92c0.19,0,0.25-0.06,0.16-0.19
	C298.26,27.44,297.88,27.02,297.27,26.36z M254.19,19.36l2.29-9.25l2.3,9.25H254.19z M298.9,5.79c0-0.12-0.05-0.21-0.11-0.26
	c-0.09-0.07-0.18-0.07-0.32-0.07h-0.33h-0.01V6.5h0.19V6.11h0.18l0.21,0.39h0.23l-0.23-0.42C298.75,6.06,298.9,5.99,298.9,5.79z
	 M298.52,5.95c-0.04,0.01-0.06,0.01-0.13,0.01h-0.07V5.62l0,0h0.09c0.12,0,0.17,0,0.21,0.02c0.08,0.04,0.08,0.12,0.08,0.14
	C298.7,5.94,298.56,5.95,298.52,5.95z M298.47,5.05c-0.51,0-0.94,0.4-0.94,0.94c0,0.56,0.45,0.94,0.94,0.94
	c0.53,0,0.94-0.42,0.94-0.94C299.42,5.48,299.02,5.05,298.47,5.05z M298.47,6.82c-0.46,0-0.83-0.37-0.83-0.83s0.37-0.83,0.84-0.83
	s0.83,0.38,0.83,0.84C299.3,6.46,298.95,6.82,298.47,6.82z M247.57,39.12h2.67l0.36,1.16h1.93l-2.67-7.26h-1.89l-2.7,7.26h1.93
	L247.57,39.12z M248.59,35.87c0.1-0.37,0.21-0.75,0.3-1.12l0.94,3.06h-1.84C248.16,37.27,248.43,36.41,248.59,35.87z M254.52,40.29
	h-1.58V34.9h1.54v0.57c0.35-0.3,0.73-0.54,1.55-0.62v1.4l-0.53,0.08c-0.76,0.14-0.99,0.25-0.99,0.93v3.03H254.52z M258.14,34.24
	h-1.57v-1.23h1.57V34.24z M258.14,40.29h-1.57V34.9h1.57V40.29z M263.71,40.29h-4.91V39.1l2.9-2.96h-2.59v-1.22h4.6v1.22l-2.86,2.92
	h2.86V40.29z M266.88,40.44c2.1,0,2.88-1.49,2.88-2.85c0-0.98-0.48-2.71-2.67-2.84c-2.06-0.11-3.1,1.19-3.1,2.84
	C263.99,39.57,265.37,40.44,266.88,40.44z M265.86,36.53c0.21-0.34,0.48-0.5,0.94-0.52c0.23-0.02,0.6-0.01,0.93,0.3
	c0.3,0.29,0.44,0.75,0.44,1.35c0,0.84-0.42,1.53-1.28,1.53c-0.88,0-1.29-0.75-1.29-1.61C265.59,37.21,265.66,36.84,265.86,36.53z
	 M271.89,40.28h-1.58v-5.35h1.59v0.46c0.15-0.16,0.26-0.28,0.53-0.42c0.25-0.1,0.6-0.2,0.98-0.2c0.32,0,0.68,0.06,0.96,0.21
	c0.57,0.3,0.71,0.78,0.71,1.62v3.67h-1.57v-3.02c0-0.49-0.01-0.66-0.07-0.8c-0.12-0.29-0.4-0.41-0.71-0.41
	c-0.83,0-0.83,0.67-0.83,1.34v2.9H271.89z M276.76,37.25c-0.44,0.19-1.13,0.68-1.13,1.54c0,0.75,0.53,1.63,1.76,1.63
	c0.79,0,1.24-0.34,1.64-0.64v0.49h1.55c-0.12-0.19-0.15-0.27-0.15-0.84V36.3c0-1.39-1.6-1.54-2.26-1.54c-0.63,0-1.27,0.08-1.76,0.47
	c-0.48,0.38-0.54,0.82-0.57,1.19v0.01h1.59c0.04-0.2,0.13-0.63,0.83-0.63c0.57,0,0.58,0.41,0.6,0.66v0.29
	C278.21,36.88,277.19,37.06,276.76,37.25z M278.88,37.71c-0.01,0.55-0.03,1.05-0.55,1.38c-0.16,0.1-0.34,0.18-0.54,0.18
	c-0.37,0-0.6-0.29-0.6-0.54c0-0.41,0.41-0.57,0.68-0.67L278.88,37.71z M287.38,38.18c0-0.58-0.73-0.67-1.27-0.74
	c-0.4-0.05-0.8-0.1-1.19-0.19c-0.44-0.09-1.96-0.41-1.96-1.97c0-1.87,1.67-2.43,2.92-2.43c1.68,0,2.58,0.81,3.21,1.38l-1.34,0.96
	c-0.23-0.23-0.43-0.42-0.72-0.59c-0.26-0.14-0.72-0.32-1.18-0.32c-0.72,0-1.08,0.41-1.08,0.76c0,0.55,0.62,0.64,0.93,0.68
	c0.77,0.09,1.81,0.29,2.22,0.43c0.83,0.31,1.25,0.96,1.25,1.78c0,0.53-0.2,1.1-0.58,1.54c-0.66,0.76-1.71,0.98-2.72,0.98
	c-2.05,0-2.86-0.94-3.31-1.47l1.37-0.88c0.19,0.2,0.34,0.37,0.7,0.57c0.49,0.25,0.98,0.35,1.4,0.35
	C286.76,39.02,287.38,38.68,287.38,38.18z M291.52,35.04h1.04v0.97h-1.05v2.42c-0.01,0.33-0.01,0.6,0.41,0.6l0.57-0.02v1.23
	c-0.34,0.05-0.54,0.08-0.83,0.08c-0.54,0-1.14-0.03-1.48-0.53c-0.21-0.32-0.23-0.7-0.23-1.22v-2.59h-0.78v-0.97h0.78v-1.66h1.57
	L291.52,35.04L291.52,35.04z M297.63,36.31c0-1.39-1.6-1.54-2.26-1.54c-0.63,0-1.27,0.08-1.76,0.47c-0.48,0.38-0.54,0.82-0.57,1.19
	v0.01h1.59c0.04-0.2,0.13-0.63,0.83-0.63c0.57,0,0.58,0.41,0.6,0.66v0.29c-0.67,0.12-1.69,0.31-2.12,0.49
	c-0.44,0.19-1.13,0.68-1.13,1.54c0,0.75,0.53,1.63,1.76,1.63c0.79,0,1.24-0.34,1.64-0.64v0.49h1.55c-0.12-0.19-0.15-0.27-0.15-0.84
	v-3.12H297.63z M295.52,39.09c-0.16,0.1-0.34,0.18-0.54,0.18c-0.37,0-0.6-0.29-0.6-0.54c0-0.41,0.41-0.57,0.68-0.67l1.02-0.34
	C296.06,38.26,296.05,38.76,295.52,39.09z M300.3,35.04h1.04v0.97h-1.05v2.42c-0.01,0.33-0.01,0.6,0.41,0.6l0.57-0.02v1.23
	c-0.34,0.05-0.54,0.08-0.83,0.08c-0.54,0-1.14-0.03-1.48-0.53c-0.21-0.32-0.23-0.7-0.23-1.22v-2.59h-0.78v-0.97h0.78v-1.66h1.57
	L300.3,35.04L300.3,35.04z M304.39,39.27c-0.86,0-1.24-0.67-1.23-1.34H307c-0.02-0.61-0.06-1.66-0.76-2.41
	c-0.69-0.75-1.62-0.77-1.93-0.77c-2.12,0-2.76,1.67-2.76,2.96c0,1.76,1.12,2.78,2.71,2.78c0.86,0,1.57-0.33,2.03-0.76
	c0.28-0.26,0.46-0.53,0.65-0.8l-1.19-0.59C305.55,38.7,305.25,39.27,304.39,39.27z M303.49,36.21c0.15-0.16,0.42-0.35,0.8-0.35
	c0.28,0,0.57,0.1,0.77,0.3c0.23,0.24,0.27,0.54,0.3,0.76h-2.19C303.22,36.7,303.28,36.45,303.49,36.21z M249.66,43.31h1.83v4.05
	c-0.01,0.7-0.02,1.4-0.42,2.06c-0.78,1.26-2.4,1.32-2.71,1.32c-0.54,0-1.19-0.14-1.68-0.39c-1.4-0.72-1.4-2-1.39-2.98v-4.05h1.83
	v4.53c0,0.37,0.01,0.68,0.14,0.9c0.23,0.38,0.72,0.49,1.17,0.49c1.23,0,1.23-0.84,1.24-1.41v-4.52H249.66z M257.08,46.89v3.67h-1.57
	v-3.02c0-0.49-0.01-0.66-0.07-0.8c-0.12-0.29-0.4-0.41-0.71-0.41c-0.83,0-0.83,0.67-0.83,1.34v2.9h-1.58v-5.36h1.59v0.47
	c0.15-0.16,0.26-0.28,0.53-0.42c0.25-0.1,0.6-0.2,0.98-0.2c0.32,0,0.68,0.06,0.96,0.21C256.93,45.58,257.08,46.06,257.08,46.89z
	 M257.9,45.19h1.57v5.38h-1.57V45.19z M257.9,43.3h1.57v1.23h-1.57V43.3z M265.06,45.2l-1.74,5.37h-1.66l-1.74-5.37h1.67
	c0.66,2.39,0.77,2.88,0.94,3.91c0.21-1.19,0.25-1.33,0.57-2.59l0.33-1.32H265.06z M269.73,45.81c-0.69-0.75-1.62-0.77-1.93-0.77
	c-2.12,0-2.76,1.67-2.76,2.96c0,1.76,1.12,2.78,2.71,2.78c0.86,0,1.57-0.33,2.03-0.76c0.28-0.26,0.46-0.53,0.65-0.8l-1.19-0.59
	c-0.19,0.38-0.49,0.94-1.36,0.94c-0.86,0-1.24-0.67-1.23-1.34h3.84C270.47,47.61,270.43,46.56,269.73,45.81z M266.67,47.22
	c0.05-0.23,0.1-0.47,0.32-0.71c0.15-0.16,0.42-0.35,0.8-0.35c0.28,0,0.57,0.1,0.77,0.3c0.23,0.24,0.27,0.54,0.3,0.76H266.67z
	 M274.22,46.54l-0.53,0.08c-0.76,0.14-0.99,0.25-0.99,0.93v3.02h-1.58v-5.38h1.54v0.57c0.35-0.3,0.73-0.54,1.55-0.62L274.22,46.54
	L274.22,46.54z M279.33,48.82c0,1.27-1.28,1.88-2.54,1.88c-1.49,0-2.26-0.72-2.6-1.04l0.99-0.9c0.43,0.42,0.97,0.74,1.57,0.74
	c0.38,0,0.96-0.12,0.96-0.53c0-0.19-0.11-0.25-0.2-0.31c-0.24-0.12-0.6-0.15-0.92-0.2c-0.24-0.04-0.49-0.09-0.72-0.16
	c-0.33-0.09-0.66-0.23-0.89-0.46c-0.24-0.24-0.4-0.6-0.4-1.01c0-0.88,0.76-1.8,2.26-1.8c1.27,0,2.03,0.54,2.4,0.8l-0.98,0.9
	c-0.5-0.39-0.98-0.54-1.35-0.54c-0.62,0-0.76,0.25-0.76,0.4c0,0.31,0.34,0.37,0.85,0.46C278.07,47.26,279.33,47.55,279.33,48.82z
	 M279.82,45.19h1.57v5.38h-1.57V45.19z M279.82,43.3h1.57v1.23h-1.57V43.3z M284.29,45.33h1.04v0.97h-1.05v2.42
	c-0.01,0.33-0.01,0.6,0.41,0.6l0.57-0.02v1.23c-0.34,0.05-0.54,0.08-0.83,0.08c-0.54,0-1.14-0.03-1.48-0.53
	c-0.21-0.32-0.23-0.7-0.23-1.22v-2.59h-0.78V45.3h0.78v-1.66h1.57L284.29,45.33L284.29,45.33z M289.15,45.2h1.7l-1.89,5.8
	c-0.12,0.35-0.24,0.68-0.5,0.98c-0.37,0.4-0.73,0.42-1.14,0.43h-1.14v-1.26h0.55c0.26-0.01,0.66-0.01,0.66-0.39
	c0-0.14-0.04-0.27-0.07-0.38l-1.61-5.18h1.68l0.88,3.85L289.15,45.2z"/>
<path style="fill:#FFCA38;" d="M262.12,9.34c-0.12-0.11,0.02-0.31,0.17-0.23l1.24,0.76c-0.04,0.2-0.09,0.47-0.12,0.67L262.12,9.34z
	 M263.39,12.57c-0.03-0.28-0.04-0.66-0.04-0.94l-2.33-0.93c-0.15-0.06-0.27,0.15-0.12,0.24L263.39,12.57z M259.99,12.71l3.94,1.72
	c-0.18-0.34-0.33-0.79-0.42-1.2l-3.43-0.77C259.92,12.42,259.84,12.65,259.99,12.71z M269.79,18.34c-2.15-0.75-4.6-1.59-5.75-3.71
	l-4.53-0.29c-0.16-0.01-0.2,0.23-0.04,0.27l4.55,1.16c0.04,0.01,0.03,0.06-0.01,0.07l-4.72,0.44c-0.16,0.01-0.16,0.25,0,0.27
	l4.71,0.44c0.04,0.01,0.05,0.06,0.01,0.07l-4.54,1.16c-0.16,0.04-0.12,0.28,0.04,0.27l4.73-0.31c0.04,0,0.06,0.06,0.02,0.07
	l-4.25,1.85c-0.15,0.06-0.07,0.29,0.08,0.25l4.59-1.03c0.04-0.01,0.07,0.05,0.03,0.07l-3.8,2.48c-0.14,0.09-0.03,0.31,0.12,0.24
	l4.32-1.74c0.04-0.02,0.07,0.04,0.04,0.07l-3.27,3.03c-0.12,0.12,0.02,0.32,0.17,0.23l3.91-2.38c0.04-0.03,0.08,0.02,0.06,0.06
	l-2.62,3.48c-0.11,0.14,0.08,0.31,0.21,0.2l3.37-2.94c0.04-0.03,0.1,0.01,0.07,0.06l-1.9,3.83c-0.08,0.16,0.13,0.29,0.24,0.16
	l2.78-3.44c0,0,0.79,0.38,1.54,0.46c1.33,0.13,2.54-0.16,3.2-0.77c0.34-0.32,0.52-0.7,0.52-1.12
	C273.69,19.68,271.88,19.06,269.79,18.34z M278.8,23.49c-0.08,0.27-0.24,0.65-0.24,0.65l1.07,0.93c0.13,0.12,0.31-0.06,0.21-0.19
	L278.8,23.49z M279.15,21.44c-0.02,0.34-0.1,0.97-0.1,0.97l2.15,1.31c0.15,0.08,0.29-0.11,0.17-0.23L279.15,21.44z M279.09,19.61
	c0.09,0.43,0.08,1.2,0.08,1.2l3.28,1.32c0.16,0.06,0.27-0.15,0.13-0.24L279.09,19.61z M284.18,16.28l-4.7-0.44
	c-0.04-0.01-0.05-0.06-0.01-0.07l4.53-1.16c0.16-0.04,0.12-0.28-0.05-0.27l-4.71,0.3c-0.04,0-0.06-0.06-0.02-0.07l4.25-1.85
	c0.15-0.06,0.07-0.29-0.08-0.25l-4.61,1.04c-0.04,0.01-0.06-0.05-0.03-0.07l3.81-2.48c0.14-0.09,0.03-0.31-0.13-0.24l-4.33,1.74
	c-0.04,0.02-0.07-0.03-0.04-0.06l3.27-3.04c0.12-0.12-0.02-0.32-0.17-0.23l-3.93,2.39c-0.04,0.02-0.07-0.02-0.05-0.06l2.64-3.51
	c0.1-0.14-0.08-0.31-0.21-0.19l-3.41,2.97c-0.03,0.03-0.07-0.01-0.06-0.05l1.92-3.87c0.08-0.16-0.13-0.29-0.24-0.16l-2.83,3.5
	c0,0-1.42-0.6-2.76-0.61c-1.24-0.01-2.16,0.21-2.67,0.71c-0.29,0.29-0.44,0.66-0.44,1.1c0,0.61,0.34,1.11,1.08,1.58
	c0.66,0.41,1.57,0.76,2.54,1.12c1.26,0.48,2.7,1.02,3.87,1.83c2.25,1.55,2.42,3.5,2.42,3.5l4.35,0.98c0.16,0.04,0.24-0.19,0.08-0.25
	l-4.25-1.85c-0.04-0.02-0.02-0.07,0.02-0.07l4.71,0.3c0.17,0.01,0.2-0.23,0.05-0.27l-4.53-1.16c-0.04-0.01-0.03-0.07,0.01-0.07
	l4.7-0.44C284.35,16.54,284.35,16.3,284.18,16.28z"/>
</svg>
