<?xml version="1.0" encoding="UTF-8"?>
<svg version="1.1" xmlns="http://www.w3.org/2000/svg" width="1418" height="398">
<path d="M0 0 C1.28795471 0.01110306 2.57590942 0.02220612 3.90289307 0.03364563 C4.61548782 0.0329155 5.32808258 0.03218536 6.06227112 0.03143311 C8.41129406 0.03490914 10.75831938 0.07376594 13.10699463 0.11299133 C14.73794471 0.12231953 16.36890882 0.12943561 17.99987793 0.13442993 C22.28774862 0.15349956 26.57476931 0.20259912 30.86230469 0.25794983 C35.23932395 0.30914363 39.61648088 0.33194419 43.99371338 0.35713196 C52.5787384 0.41071875 61.16307321 0.49603003 69.74761963 0.60127258 C69.74761963 1.26127258 69.74761963 1.92127258 69.74761963 2.60127258 C67.94683838 4.23017883 67.94683838 4.23017883 65.43511963 6.16377258 C64.53277588 6.87533508 63.63043213 7.58689758 62.70074463 8.32002258 C60.70579788 9.86109256 58.69478138 11.38154864 56.66949463 12.88252258 C55.68465088 13.63533508 54.69980713 14.38814758 53.68511963 15.16377258 C52.30646729 16.18664368 52.30646729 16.18664368 50.89996338 17.23017883 C48.11569649 20.29742021 48.25138034 22.55335463 47.74761963 26.60127258 C45.93511963 29.26924133 45.93511963 29.26924133 43.74761963 31.78877258 C39.25071948 37.57050135 38.54648871 42.39827139 38.74761963 49.60127258 C45.57956661 52.38267499 51.62549847 53.04402475 58.95880127 53.03364563 C60.6108074 53.04905632 60.6108074 53.04905632 62.2961874 53.06477833 C65.83344062 53.09448049 69.37041559 53.10417932 72.90777588 53.11299133 C75.10273192 53.12846986 77.29767906 53.14526894 79.49261475 53.16340637 C87.59835156 53.22117636 95.70425391 53.25345067 103.81011963 53.28877258 C121.93949463 53.39189758 140.06886963 53.49502258 158.74761963 53.60127258 C158.74761963 107.39127258 158.74761963 161.18127258 158.74761963 216.60127258 C145.21761963 216.60127258 131.68761963 216.60127258 117.74761963 216.60127258 C117.74761963 207.03127258 117.74761963 197.46127258 117.74761963 187.60127258 C106.19761963 187.60127258 94.64761963 187.60127258 82.74761963 187.60127258 C82.74761963 178.03127258 82.74761963 168.46127258 82.74761963 158.60127258 C70.58756318 158.13540424 70.58756318 158.13540424 66.68511963 162.60127258 C66.25199463 163.22904602 65.81886963 163.85681946 65.37261963 164.50361633 C58.81091932 172.97388812 48.34508671 177.53567889 38.74761963 181.60127258 C37.41100308 182.26133199 36.07701581 182.92678906 34.74761963 183.60127258 C35.12346191 184.39783264 35.4993042 185.1943927 35.88653564 186.01509094 C43.80889046 202.82150138 51.64282984 219.66328804 59.29693604 236.59370422 C62.28300993 243.19580481 65.28754548 249.78744924 68.35699463 256.35127258 C68.64158035 256.96125092 68.92616608 257.57122925 69.21937561 258.19969177 C70.55431716 261.06060222 71.89445846 263.918811 73.2444458 266.7726593 C73.7082666 267.76539856 74.1720874 268.75813782 74.64996338 269.78096008 C75.05722656 270.64447083 75.46448975 271.50798157 75.88409424 272.3976593 C76.74761963 274.60127258 76.74761963 274.60127258 76.74761963 277.60127258 C35.16761963 277.60127258 -6.41238037 277.60127258 -49.25238037 277.60127258 C-48.42275575 273.45314949 -47.58747755 270.88366899 -45.76800537 267.19111633 C-45.25205811 266.13416565 -44.73611084 265.07721497 -44.20452881 263.98823547 C-43.64281982 262.84991272 -43.08111084 261.71158997 -42.50238037 260.53877258 C-41.30098113 258.07952553 -40.10456523 255.6178683 -38.90863037 253.15596008 C-38.60205505 252.5258754 -38.29547974 251.89579071 -37.97961426 251.24661255 C-34.90865084 244.92194326 -31.9476312 238.54785797 -29.00238037 232.16377258 C-23.70634343 220.69854369 -18.33771218 209.26890685 -12.93988037 197.85127258 C-12.5551355 197.03740082 -12.17039062 196.22352905 -11.77398682 195.38499451 C-9.60136831 190.78982827 -7.42743872 186.19528442 -5.25238037 181.60127258 C-5.83390869 181.49242737 -6.41543701 181.38358215 -7.0145874 181.2714386 C-19.98008173 178.65296956 -32.3329059 170.16057188 -40.25238037 159.60127258 C-44.54238037 159.27127258 -48.83238037 158.94127258 -53.25238037 158.60127258 C-53.25238037 168.17127258 -53.25238037 177.74127258 -53.25238037 187.60127258 C-65.13238037 187.60127258 -77.01238037 187.60127258 -89.25238037 187.60127258 C-89.25238037 197.17127258 -89.25238037 206.74127258 -89.25238037 216.60127258 C-102.12238037 216.60127258 -114.99238037 216.60127258 -128.25238037 216.60127258 C-128.25238037 162.81127258 -128.25238037 109.02127258 -128.25238037 53.60127258 C-73.62738037 53.28877258 -73.62738037 53.28877258 -56.39056396 53.21333313 C-51.28393557 53.1767612 -51.28393557 53.1767612 -46.17733765 53.13626099 C-43.90596672 53.12012984 -41.63454978 53.10982902 -39.36312866 53.10415649 C-35.91889913 53.09441638 -32.47526968 53.06607615 -29.03118896 53.03364563 C-27.51779214 53.03578457 -27.51779214 53.03578457 -25.97382164 53.03796673 C-20.58019066 52.96545023 -16.99113564 52.44874387 -12.25238037 49.60127258 C-11.59238037 49.60127258 -10.93238037 49.60127258 -10.25238037 49.60127258 C-10.25238037 45.64127258 -10.25238037 41.68127258 -10.25238037 37.60127258 C-23.45238037 37.60127258 -36.65238037 37.60127258 -50.25238037 37.60127258 C-40.27575146 21.92371286 -40.27575146 21.92371286 -37.26626587 20.97549438 C-36.2227446 20.97455025 -36.2227446 20.97455025 -35.15814209 20.97358704 C-34.36406952 20.96039932 -33.56999695 20.94721161 -32.75186157 20.93362427 C-31.90382965 20.94383102 -31.05579773 20.95403778 -30.18206787 20.96455383 C-29.30462921 20.95417587 -28.42719055 20.94379791 -27.52316284 20.93310547 C-24.72416939 20.90341771 -21.92650294 20.90680242 -19.12738037 20.91377258 C-16.32148907 20.90489166 -13.51595348 20.88899412 -10.71017456 20.86230469 C-8.96517924 20.84734105 -7.22004504 20.84361484 -5.4750061 20.8520813 C-0.8860648 21.04569513 -0.8860648 21.04569513 2.74761963 18.60127258 C-3.52238037 18.27127258 -9.79238037 17.94127258 -16.25238037 17.60127258 C-14.52148837 13.27404259 -14.00669579 11.99828074 -10.87738037 9.10127258 C-8.76721476 7.13054523 -7.16287076 5.46287846 -5.5838623 3.02151489 C-3.25238037 0.60127258 -3.25238037 0.60127258 0 0 Z M12.74761963 53.60127258 C9.92238412 60.46255883 8.33335269 67.35220718 6.74761963 74.60127258 C11.36761963 74.60127258 15.98761963 74.60127258 20.74761963 74.60127258 C19.09761963 67.67127258 17.44761963 60.74127258 15.74761963 53.60127258 C14.75761963 53.60127258 13.76761963 53.60127258 12.74761963 53.60127258 Z M-9.25238037 57.60127258 C-13.77753786 62.49333473 -17.25238037 70.8690393 -17.25238037 77.60127258 C-12.30238037 76.94127258 -7.35238037 76.28127258 -2.25238037 75.60127258 C-0.27238037 68.67127258 1.70761963 61.74127258 3.74761963 54.60127258 C-1.10268465 54.60127258 -4.88749908 55.4874114 -9.25238037 57.60127258 Z M23.74761963 54.60127258 C25.52672891 61.3517936 27.45200154 68.00747595 29.74761963 74.60127258 C31.30878782 74.94078877 32.87163301 75.27259802 34.43511963 75.60127258 C35.30523682 75.78689758 36.175354 75.97252258 37.07183838 76.16377258 C39.68474927 76.59099305 42.10575001 76.67743459 44.74761963 76.60127258 C43.84697277 73.82427812 42.9281462 71.05574701 41.99761963 68.28877258 C41.74496338 67.50308899 41.49230713 66.7174054 41.23199463 65.90791321 C39.34305553 60.23412963 39.34305553 60.23412963 34.74761963 56.60127258 C30.8872994 55.0407176 27.87794481 54.51041941 23.74761963 54.60127258 Z M49.74761963 65.60127258 C50.2257314 67.37239102 50.70514742 69.14315742 51.18511963 70.91377258 C51.45195557 71.8999054 51.7187915 72.88603821 51.99371338 73.90205383 C52.52841388 75.81644784 53.11906501 77.71560873 53.74761963 79.60127258 C55.96946854 80.66893551 55.96946854 80.66893551 58.62261963 81.35127258 C59.5069165 81.61424133 60.39121338 81.87721008 61.30230713 82.14814758 C63.87262387 82.82837464 63.87262387 82.82837464 66.74761963 81.60127258 C60.00073058 72.84476099 60.00073058 72.84476099 51.74761963 65.60127258 C51.08761963 65.60127258 50.42761963 65.60127258 49.74761963 65.60127258 Z M-24.25238037 66.60127258 C-30.45575278 71.66046741 -35.1764454 76.69615922 -39.25238037 83.60127258 C-37.4600197 83.12470846 -35.6685114 82.6449376 -33.87738037 82.16377258 C-32.879646 81.89693665 -31.88191162 81.63010071 -30.85394287 81.35517883 C-28.29820336 80.69942902 -28.29820336 80.69942902 -26.25238037 79.60127258 C-25.30076828 77.36345373 -25.30076828 77.36345373 -24.56488037 74.72627258 C-24.29288818 73.84197571 -24.020896 72.95767883 -23.74066162 72.04658508 C-23.01775334 69.47870004 -23.01775334 69.47870004 -24.25238037 66.60127258 Z M4.74761963 83.60127258 C2.8609589 92.65724409 2.22061376 101.37788706 1.74761963 110.60127258 C9.33761963 110.60127258 16.92761963 110.60127258 24.74761963 110.60127258 C24.74761963 104.01454351 24.59431474 97.93493606 23.74761963 91.47627258 C23.25261963 87.57814758 23.25261963 87.57814758 22.74761963 83.60127258 C16.80761963 83.60127258 10.86761963 83.60127258 4.74761963 83.60127258 Z M31.74761963 84.60127258 C32.73761963 93.18127258 33.72761963 101.76127258 34.74761963 110.60127258 C40.02761963 110.60127258 45.30761963 110.60127258 50.74761963 110.60127258 C51.18743653 102.24475137 49.50708762 94.73881206 47.74761963 86.60127258 C42.46761963 85.94127258 37.18761963 85.28127258 31.74761963 84.60127258 Z M-12.18988037 85.47627258 C-13.25077881 85.63869446 -14.31167725 85.80111633 -15.40472412 85.96846008 C-18.43446382 86.46194359 -18.43446382 86.46194359 -21.25238037 88.60127258 C-23.58968074 95.68816728 -23.44384596 103.22984742 -23.25238037 110.60127258 C-17.97238037 110.60127258 -12.69238037 110.60127258 -7.25238037 110.60127258 C-6.26238037 102.02127258 -5.27238037 93.44127258 -4.25238037 84.60127258 C-6.9567387 84.60127258 -9.51855925 85.05533713 -12.18988037 85.47627258 Z M56.74761963 89.60127258 C56.889653 91.97655409 57.03613575 94.35142509 57.18511963 96.72627258 C57.22443604 97.39142883 57.26375244 98.05658508 57.30426025 98.74189758 C57.56211623 102.78825296 58.07719772 106.57874112 58.74761963 110.60127258 C64.35761963 110.60127258 69.96761963 110.60127258 75.74761963 110.60127258 C75.90161791 102.14671399 75.90161791 102.14671399 72.74761963 94.60127258 C67.83827306 91.44093485 62.44584444 90.46640453 56.74761963 89.60127258 Z M-44.25238037 94.60127258 C-47.63704143 99.58701106 -47.25238037 104.72332908 -47.25238037 110.60127258 C-41.97238037 110.60127258 -36.69238037 110.60127258 -31.25238037 110.60127258 C-30.26238037 100.20627258 -30.26238037 100.20627258 -29.25238037 89.60127258 C-34.27054443 89.60127258 -39.89318639 92.27117961 -44.25238037 94.60127258 Z M-47.25238037 119.60127258 C-47.01170081 127.49473807 -47.01170081 127.49473807 -44.25238037 134.60127258 C-39.34437635 137.53410426 -34.92313656 138.65614655 -29.25238037 139.60127258 C-29.91238037 133.00127258 -30.57238037 126.40127258 -31.25238037 119.60127258 C-36.53238037 119.60127258 -41.81238037 119.60127258 -47.25238037 119.60127258 Z M-24.25238037 119.60127258 C-23.96363037 122.28252258 -23.67488037 124.96377258 -23.37738037 127.72627258 C-23.29117432 128.55916809 -23.20496826 129.3920636 -23.1161499 130.25019836 C-22.62519071 134.60032515 -21.81941966 138.4795642 -20.25238037 142.60127258 C-18.52430719 142.94022914 -16.79486063 143.27218783 -15.06488037 143.60127258 C-14.10195068 143.78689758 -13.139021 143.97252258 -12.14691162 144.16377258 C-8.91630725 144.72581393 -8.91630725 144.72581393 -4.25238037 144.60127258 C-5.24238037 136.35127258 -6.23238037 128.10127258 -7.25238037 119.60127258 C-12.86238037 119.60127258 -18.47238037 119.60127258 -24.25238037 119.60127258 Z M1.74761963 119.60127258 C2.23644421 128.48158578 2.954403 136.874285 4.74761963 145.60127258 C10.68761963 145.60127258 16.62761963 145.60127258 22.74761963 145.60127258 C23.07761963 143.35314758 23.40761963 141.10502258 23.74761963 138.78877258 C23.93324463 137.52420227 24.11886963 136.25963196 24.31011963 134.95674133 C24.82189711 129.86181378 24.74761963 124.72183925 24.74761963 119.60127258 C17.15761963 119.60127258 9.56761963 119.60127258 1.74761963 119.60127258 Z M34.74761963 119.60127258 C34.41036898 122.64255076 34.07769631 125.68421449 33.74761963 128.72627258 C33.652229 129.58221008 33.55683838 130.43814758 33.45855713 131.32002258 C32.97916754 135.77149733 32.62996505 140.11569184 32.74761963 144.60127258 C38.16619623 144.82704661 42.52249684 144.06797372 47.74761963 142.60127258 C49.81425163 134.75299151 51.11139484 127.72558561 50.74761963 119.60127258 C45.46761963 119.60127258 40.18761963 119.60127258 34.74761963 119.60127258 Z M58.74761963 119.60127258 C58.41761963 121.95252258 58.08761963 124.30377258 57.74761963 126.72627258 C57.64320557 127.45475403 57.5387915 128.18323547 57.43121338 128.93379211 C56.89513968 132.85542648 56.64903795 136.64568255 56.74761963 140.60127258 C59.19606397 139.92064722 61.62727193 139.20903112 64.06011963 138.47627258 C64.7504126 138.28806946 65.44070557 138.09986633 66.1519165 137.90596008 C69.78905828 136.78143316 71.51934985 135.93631372 73.68511963 132.75752258 C74.6776968 129.80898453 75.22610843 127.31963832 75.43511963 124.22627258 C75.53824463 122.70002258 75.64136963 121.17377258 75.74761963 119.60127258 C70.13761963 119.60127258 64.52761963 119.60127258 58.74761963 119.60127258 Z M-39.25238037 145.60127258 C-37.80840203 150.03001062 -35.56008968 152.85981693 -32.43988037 156.28877258 C-31.58781006 157.24138977 -30.73573975 158.19400696 -29.85784912 159.17549133 C-27.33299703 161.52621569 -25.51505678 162.59962507 -22.25238037 163.60127258 C-23.7068621 155.67588368 -23.7068621 155.67588368 -27.86566162 149.14033508 C-29.88984873 148.24717466 -29.88984873 148.24717466 -33.25238037 147.60127258 C-34.38675537 147.20939758 -35.52113037 146.81752258 -36.68988037 146.41377258 C-37.53550537 146.14564758 -38.38113037 145.87752258 -39.25238037 145.60127258 Z M66.74761963 145.60127258 C59.34060542 147.12948233 59.34060542 147.12948233 53.35308838 151.24971008 C52.46833215 153.29202933 52.46833215 153.29202933 51.74761963 156.60127258 C51.35574463 157.50877258 50.96386963 158.41627258 50.56011963 159.35127258 C49.5777974 161.6728483 49.5777974 161.6728483 49.74761963 164.60127258 C57.76715608 161.94223757 63.55035408 154.71837503 67.74761963 147.60127258 C67.41761963 146.94127258 67.08761963 146.28127258 66.74761963 145.60127258 Z M-17.25238037 152.60127258 C-15.34521748 163.57832049 -15.34521748 163.57832049 -9.13128662 172.30049133 C-5.02202269 174.16455878 -0.74294082 175.14070228 3.74761963 175.60127258 C1.86142141 168.56481681 -0.12165732 161.56767914 -2.25238037 154.60127258 C-3.81354856 154.26175639 -5.37639376 153.92994714 -6.93988037 153.60127258 C-7.80999756 153.41564758 -8.68011475 153.23002258 -9.57659912 153.03877258 C-12.18951001 152.61155212 -14.61051075 152.52511058 -17.25238037 152.60127258 Z M34.99761963 153.60127258 C33.520354 153.87971008 33.520354 153.87971008 32.01324463 154.16377258 C31.26558838 154.30814758 30.51793213 154.45252258 29.74761963 154.60127258 C29.39828369 155.8658429 29.04894775 157.13041321 28.68902588 158.43330383 C28.22943146 160.09347143 27.76979379 161.75362706 27.31011963 163.41377258 C26.96497314 164.66384094 26.96497314 164.66384094 26.612854 165.93916321 C26.39049072 166.74160461 26.16812744 167.54404602 25.93902588 168.37080383 C25.63267212 169.4783905 25.63267212 169.4783905 25.32012939 170.60835266 C24.83835443 172.2854226 24.29940498 173.94591654 23.74761963 175.60127258 C25.33229691 175.31699841 26.91532533 175.0235244 28.49761963 174.72627258 C29.82019775 174.48263977 29.82019775 174.48263977 31.16949463 174.23408508 C34.67575923 173.38970514 34.67575923 173.38970514 37.74761963 171.60127258 C38.98664867 169.31182548 39.98652402 167.19106017 40.93511963 164.78877258 C41.19486572 164.17195618 41.45461182 163.55513977 41.722229 162.91963196 C43.1225421 159.5147363 44.17261406 156.23835599 44.74761963 152.60127258 C41.2678546 152.60127258 38.39223602 152.95467898 34.99761963 153.60127258 Z M6.74761963 155.60127258 C7.50292253 158.9180375 8.27589345 162.22884375 9.06011963 165.53877258 C9.27345947 166.48429993 9.48679932 167.42982727 9.706604 168.40400696 C10.03048096 169.7526886 10.03048096 169.7526886 10.36090088 171.12861633 C10.65154419 172.37759705 10.65154419 172.37759705 10.94805908 173.65180969 C11.34384155 174.61679382 11.34384155 174.61679382 11.74761963 175.60127258 C12.73761963 175.93127258 13.72761963 176.26127258 14.74761963 176.60127258 C15.74983275 173.28943801 16.74901889 169.976698 17.74761963 166.66377258 C18.0337915 165.71824524 18.31996338 164.7727179 18.61480713 163.79853821 C18.88551025 162.89941711 19.15621338 162.00029602 19.43511963 161.07392883 C19.68648682 160.24127502 19.937854 159.40862122 20.19683838 158.55073547 C20.79293407 156.77851358 20.79293407 156.77851358 20.74761963 155.60127258 C16.12761963 155.60127258 11.50761963 155.60127258 6.74761963 155.60127258 Z " fill="#163058" transform="translate(128.25238037109375,34.39872741699219)"/>
<path d="M0 0 C349.47 0 698.94 0 1059 0 C1059 2.64 1059 5.28 1059 8 C709.53 8 360.06 8 0 8 C0 5.36 0 2.72 0 0 Z " fill="#173058" transform="translate(340,222)"/>
<path d="M0 0 C6.7402406 -0.07675517 13.4803664 -0.12889239 20.22094727 -0.16479492 C22.50875053 -0.17977948 24.79652557 -0.20017412 27.08422852 -0.22631836 C47.18405604 -0.45008854 65.56671412 0.09266288 81.03125 14.80078125 C90.39004003 25.25514393 93.35532385 37.83837021 93.21484375 51.55859375 C92.33128077 65.71166629 86.3398926 77.43198118 76 87 C64.0217326 96.39225465 51.01506212 99.1746912 36.1328125 99.09765625 C35.09808807 99.0962413 34.06336365 99.09482635 32.99728394 99.09336853 C29.70649268 99.08779039 26.41577054 99.07524188 23.125 99.0625 C20.88802182 99.05748218 18.65104257 99.05291976 16.4140625 99.04882812 C10.94268492 99.03782812 5.4713474 99.02111177 0 99 C1.0754812 96.76630828 2.15855795 94.77722749 3.60073853 92.75097656 C5.43164344 89.15138021 5.42051874 85.92958479 5.38818359 81.984375 C5.39606903 80.79563782 5.39606903 80.79563782 5.40411377 79.58288574 C5.41728265 76.97172142 5.4085869 74.36117018 5.3984375 71.75 C5.40045913 69.93066288 5.40337132 68.11132654 5.40713501 66.29199219 C5.41155414 62.48234325 5.40514055 58.67290559 5.39111328 54.86328125 C5.37402163 49.98402081 5.38386501 45.10525546 5.40183067 40.22601318 C5.41267961 36.47017701 5.40921707 32.7144579 5.4014473 28.95861816 C5.39944836 27.15970806 5.40189379 25.36078727 5.40888596 23.56188965 C5.41651874 21.04618237 5.40487104 18.53127297 5.38818359 16.015625 C5.39425629 15.27469604 5.40032898 14.53376709 5.40658569 13.77038574 C5.35180179 9.30445423 4.63647543 6.6012848 2 3 C1.34 2.01 0.68 1.02 0 0 Z M23 13 C23 37.42 23 61.84 23 87 C46.28390591 87.30854338 46.28390591 87.30854338 65.04296875 76.18359375 C72.52022049 68.29182486 75.37777524 58.34227128 75.21484375 47.625 C74.28161144 36.22259799 71.04108499 27.69735057 62.875 19.75 C51.19545403 9.95611384 37.28908591 10.14218282 23 13 Z " fill="#163058" transform="translate(1309,92)"/>
<path d="M0 0 C6.36792224 -0.07656229 12.73572416 -0.12881323 19.10400391 -0.16479492 C21.26680945 -0.17980768 23.42958493 -0.20022416 25.59228516 -0.22631836 C28.71524511 -0.26303366 31.8377998 -0.27980196 34.9609375 -0.29296875 C36.39280899 -0.31619453 36.39280899 -0.31619453 37.85360718 -0.33988953 C47.87620674 -0.34235753 56.69949537 1.85743898 64 9 C67.72089872 14.2812756 68.63603114 20.83212533 67.66796875 27.17578125 C65.92641937 32.96221951 61.91895377 36.65803566 57 40 C56.34 40 55.68 40 55 40 C55 40.66 55 41.32 55 42 C55.804375 42.04125 56.60875 42.0825 57.4375 42.125 C65.49997634 44.10525735 70.55996257 48.96994074 74.90625 55.8515625 C78.04850746 62.02385393 78.06498129 69.8876325 76.3515625 76.50390625 C72.47434085 86.03126715 66.29434314 91.37230842 57.16015625 95.7734375 C49.67330602 98.67933487 43.11118417 99.28041465 35.15625 99.1953125 C34.14655151 99.1924826 33.13685303 99.18965271 32.09655762 99.18673706 C28.89758033 99.1756153 25.6988915 99.15052563 22.5 99.125 C20.32031657 99.11495985 18.14062871 99.10583582 15.9609375 99.09765625 C10.64052795 99.07570225 5.32028459 99.04230518 0 99 C0.81275391 98.06696045 1.62550781 97.1339209 2.46289062 96.17260742 C6.82489143 89.12859938 5.67260687 80.2361513 5.59375 72.23828125 C5.59203721 70.40081358 5.59210629 68.56334347 5.59387207 66.72587585 C5.59222342 62.88691634 5.57360451 59.04854404 5.54199219 55.2097168 C5.50223189 50.29350902 5.49795952 45.37806625 5.50545502 40.4617281 C5.50852593 36.67240918 5.49640127 32.88326174 5.47932434 29.0939846 C5.47230427 27.2811306 5.4691686 25.46825718 5.47001648 23.65538979 C5.4682159 21.12317437 5.44681511 18.5918717 5.41992188 16.05981445 C5.42285248 15.31424789 5.42578308 14.56868134 5.42880249 13.80052185 C5.35565892 9.33006706 4.63993129 6.60591897 2 3 C1.34 2.01 0.68 1.02 0 0 Z M23 11 C23 20.24 23 29.48 23 39 C35.84746542 39.14496556 35.84746542 39.14496556 46.73046875 33.71484375 C49.50265854 30.92712349 50.3521213 28.29319168 50.5625 24.5 C50.27680311 20.02658813 49.05649744 17.36998436 46 14 C38.85721037 8.46069376 31.55213518 9.28957296 23 11 Z M23 50 C23 61.88 23 73.76 23 86 C29.29528265 89.14764132 40.04961951 88.67030316 46.6875 86.8125 C51.59847451 84.98324439 54.76338193 82.7483221 57.8125 78.4375 C59.67564214 73.04419381 60.14713064 67.35504877 58.2734375 61.875 C55.07194653 55.8364154 50.59802563 52.91860931 44.31347656 50.61962891 C40.22736521 49.5252272 36.19880411 49.68772838 32 49.8125 C27.545 49.9053125 27.545 49.9053125 23 50 Z " fill="#173058" transform="translate(1060,92)"/>
<path d="M0 0 C6.84597788 -0.10252838 13.69175345 -0.17193196 20.53833008 -0.21972656 C22.86099648 -0.23967881 25.18361373 -0.26685049 27.50610352 -0.30175781 C47.10312151 -0.58864634 62.11534601 0.74356401 78.8125 11.875 C87.14991634 19.97420444 92.88866665 30.42061831 93.30078125 42.14453125 C93.31526347 44.0338027 93.31893939 45.92318402 93.3125 47.8125 C93.32861328 48.74642578 93.34472656 49.68035156 93.36132812 50.64257812 C93.37022681 63.46558594 88.74633717 74.64254607 80.07421875 84.0859375 C67.89979627 95.32033866 52.75437635 99.36127029 36.62109375 99.1953125 C35.56841812 99.1924826 34.51574249 99.18965271 33.4311676 99.18673706 C30.09982484 99.17562562 26.76876023 99.15053798 23.4375 99.125 C21.16601953 99.11495852 18.89453481 99.10583472 16.62304688 99.09765625 C11.08193784 99.07571597 5.5409888 99.0423295 0 99 C0.52400391 98.31164062 0.52400391 98.31164062 1.05859375 97.609375 C1.51363281 96.99578125 1.96867188 96.3821875 2.4375 95.75 C2.88996094 95.14671875 3.34242188 94.5434375 3.80859375 93.921875 C6.4380968 89.68018483 6.15353492 85.2482147 6.16113281 80.38916016 C6.16609772 79.62768173 6.17106262 78.86620331 6.17617798 78.08164978 C6.19075968 75.56744476 6.19759454 73.05330282 6.203125 70.5390625 C6.20887925 68.78795368 6.21463695 67.03684488 6.22039795 65.28573608 C6.23089624 61.61561795 6.23674673 57.94552165 6.24023438 54.27539062 C6.24572002 49.57896768 6.26975444 44.88283452 6.29820633 40.18650246 C6.31685362 36.56962242 6.3220394 32.95281195 6.32357025 29.33588791 C6.32659202 27.60477487 6.33460449 25.87366292 6.34775543 24.1425972 C6.36486171 21.71805151 6.36292487 19.2942109 6.35644531 16.86962891 C6.37026749 15.80335014 6.37026749 15.80335014 6.3843689 14.7155304 C6.33832025 9.19889375 5.01790733 5.24211925 1.3125 1.125 C0.879375 0.75375 0.44625 0.3825 0 0 Z M28.1875 12 C27.21167969 12.185625 26.23585938 12.37125 25.23046875 12.5625 C24.12638672 12.7790625 24.12638672 12.7790625 23 13 C22.97687516 22.50074325 22.9590842 32.00147688 22.94818783 41.50224209 C22.94295931 45.91337004 22.93586223 50.3244788 22.92456055 54.7355957 C22.91373056 58.98901115 22.90772293 63.24240809 22.90512276 67.49583626 C22.90326871 69.12221633 22.89964848 70.74859534 22.89426994 72.37496758 C22.88705802 74.64510193 22.88600912 76.91515885 22.88647461 79.18530273 C22.884254 80.47991928 22.88203339 81.77453583 22.87974548 83.10838318 C22.66871888 85.89442383 22.66871888 85.89442383 24 87 C37.98580312 88.40731537 51.30886839 87.17719216 62.96484375 78.7578125 C69.83560497 72.82337383 74.13275941 65.73523902 75.29980469 56.67163086 C75.43577242 54.31378157 75.46746844 51.98646498 75.4375 49.625 C75.43137695 48.79718018 75.42525391 47.96936035 75.41894531 47.11645508 C75.17097989 37.36855289 72.39701987 28.60894473 65.5078125 21.44921875 C55.47736288 12.13522981 41.40341784 9.45235319 28.1875 12 Z " fill="#163058" transform="translate(769,92)"/>
<path d="M0 0 C20.30093076 -1.78582253 20.30093076 -1.78582253 25.8515625 1.88671875 C27.83882559 4.8150866 29.36932078 7.85917003 31 11 C33.01274015 13.71988097 35.1930241 16.29005493 37.375 18.875 C38.51061427 20.25551252 39.64345144 21.63831437 40.7734375 23.0234375 C41.32225586 23.69600586 41.87107422 24.36857422 42.43652344 25.06152344 C44.67527735 27.83724269 46.83897686 30.66321718 49 33.5 C52.74368226 38.41054426 56.59100988 43.22020087 60.5 48 C67.19535815 56.18868076 73.65697697 64.53511965 80 73 C80.06969519 65.1675358 80.1229099 57.33514507 80.15543652 49.50244808 C80.17105247 45.86488278 80.19221541 42.22753058 80.22631836 38.59008789 C80.25905835 35.07578517 80.27688359 31.56168665 80.28463173 28.04724312 C80.29282327 26.06259038 80.31621919 24.07801909 80.33988953 22.0934906 C80.34171613 12.2529177 79.25790934 7.82238668 73 0 C81.91 0 90.82 0 100 0 C100 2 100 2 97.5625 4.5 C96.716875 5.325 95.87125 6.15 95 7 C93.30908431 10.38183138 93.81898892 14.22584467 93.79467773 17.94775391 C93.78477814 18.87463516 93.77487854 19.80151642 93.76467896 20.75648499 C93.7330118 23.82981789 93.70828592 26.90316628 93.68359375 29.9765625 C93.66302873 32.10363168 93.64203238 34.23069674 93.62062073 36.35775757 C93.56535342 41.96371116 93.5159647 47.56970192 93.46777344 53.17572021 C93.4175924 58.89322223 93.36188862 64.6106701 93.30664062 70.328125 C93.19900207 81.5520371 93.09756978 92.77599617 93 104 C77.86744822 101.12667144 69.75341204 88.18242338 61.02832031 76.61230469 C57.28747438 71.65289948 53.44387483 66.7991945 49.5 62 C44.4667362 55.86908058 39.59732769 49.63267461 34.83984375 43.28515625 C30.10659075 37.01171775 25.05960948 31.01044654 20 25 C19.93019021 32.66752104 19.87703252 40.33500872 19.84456348 48.00277615 C19.82897223 51.56405886 19.80785545 55.12512258 19.77368164 58.6862793 C19.73455615 62.78957099 19.72023683 66.89263614 19.70703125 70.99609375 C19.69154739 72.26206894 19.67606354 73.52804413 19.66011047 74.8323822 C19.65883522 81.58910795 19.8427649 87.88208286 23 94 C25.02946853 95.92336969 25.02946853 95.92336969 27 97 C27 97.66 27 98.32 27 99 C18.09 99 9.18 99 0 99 C0 98.34 0 97.68 0 97 C0.78375 96.29875 1.5675 95.5975 2.375 94.875 C8.80576265 87.83178376 7.29386811 77.38285745 7.265625 68.40625 C7.26697472 66.88985126 7.26891781 65.37345294 7.27142334 63.85705566 C7.27436016 60.68998058 7.27012363 57.52301886 7.26074219 54.35595703 C7.24934848 50.31454695 7.25591571 46.27340261 7.26788712 42.23200226 C7.27514483 39.10400421 7.27279991 35.97606824 7.26763153 32.84806824 C7.26630583 31.35865751 7.26790452 29.86924098 7.27259064 28.37983704 C7.84503202 15.33256004 7.84503202 15.33256004 2.375 4.125 C1.59125 3.42375 0.8075 2.7225 0 2 C0 1.34 0 0.68 0 0 Z " fill="#163058" transform="translate(656,92)"/>
<path d="M0 0 C9.57 0 19.14 0 29 0 C27.35 2.31 25.7 4.62 24 7 C22.24298916 17.54206503 22.41075321 28.32041649 22 39 C39.49 39 56.98 39 75 39 C76.52780031 18.09403292 76.52780031 18.09403292 69 0 C78.57 0 88.14 0 98 0 C98 0.66 98 1.32 98 2 C96.66666667 3.33333333 95.33333333 4.66666667 94 6 C92.79603547 9.61189358 92.84456927 12.92053951 92.83886719 16.6809082 C92.83390228 17.46174774 92.82893738 18.24258728 92.82382202 19.04708862 C92.80921105 21.63166179 92.80239993 24.21617356 92.796875 26.80078125 C92.79112236 28.59815981 92.78536464 30.39553835 92.77960205 32.19291687 C92.76909488 35.96316819 92.76325046 39.73339821 92.75976562 43.50366211 C92.75428364 48.32902595 92.73026078 53.15410723 92.70179367 57.97938251 C92.68314667 61.69319983 92.67796058 65.40694939 92.67642975 69.12080956 C92.67340699 70.89937064 92.66539119 72.67793063 92.65224457 74.45644569 C92.63514195 76.94815021 92.63707451 79.4391684 92.64355469 81.9309082 C92.6343399 82.66203323 92.62512512 83.39315826 92.6156311 84.1464386 C92.65361121 88.82108248 93.51622554 92.03552839 96 96 C96.66 96.33 97.32 96.66 98 97 C98 97.66 98 98.32 98 99 C88.43 99 78.86 99 69 99 C70.32 97.35 71.64 95.7 73 94 C75.73954628 84.76722561 75.24486754 74.71909124 75.125 65.1875 C75.08375 60.505625 75.0425 55.82375 75 51 C57.51 51 40.02 51 22 51 C22.12375 56.61 22.2475 62.22 22.375 68 C22.40899902 69.75441406 22.44299805 71.50882812 22.47802734 73.31640625 C22.51328542 74.73178875 22.54921231 76.14715481 22.5859375 77.5625 C22.60297729 78.63467773 22.60297729 78.63467773 22.62036133 79.72851562 C22.84097079 87.5322431 23.9477697 92.68471213 29 99 C19.43 99 9.86 99 0 99 C0 98.34 0 97.68 0 97 C1.33333333 95.66666667 2.66666667 94.33333333 4 93 C5.20396453 89.38810642 5.15543073 86.07946049 5.16113281 82.3190918 C5.16609772 81.53825226 5.17106262 80.75741272 5.17617798 79.95291138 C5.19078895 77.36833821 5.19760007 74.78382644 5.203125 72.19921875 C5.20887764 70.40184019 5.21463536 68.60446165 5.22039795 66.80708313 C5.23090512 63.03683181 5.23674954 59.26660179 5.24023438 55.49633789 C5.24571636 50.67097405 5.26973922 45.84589277 5.29820633 41.02061749 C5.31685333 37.30680017 5.32203942 33.59305061 5.32357025 29.87919044 C5.32659301 28.10062936 5.33460881 26.32206937 5.34775543 24.54355431 C5.36485805 22.05184979 5.36292549 19.5608316 5.35644531 17.0690918 C5.3656601 16.33796677 5.37487488 15.60684174 5.3843689 14.8535614 C5.34638879 10.17891752 4.48377446 6.96447161 2 3 C1.34 2.67 0.68 2.34 0 2 C0 1.34 0 0.68 0 0 Z " fill="#173058" transform="translate(429,92)"/>
<path d="M0 0 C9.9 0 19.8 0 30 0 C28.68 1.65 27.36 3.3 26 5 C23.49192827 11.229149 23.69374937 17.42862107 23.69921875 24.07421875 C23.69493362 25.23444046 23.6906485 26.39466217 23.68623352 27.59004211 C23.68050429 30.04008331 23.67997955 32.49014151 23.68432617 34.94018555 C23.68747475 38.65769069 23.6640475 42.37439062 23.63867188 46.09179688 C23.63639738 48.48176984 23.63569608 50.87174492 23.63671875 53.26171875 C23.627509 54.35900803 23.61829926 55.4562973 23.60881042 56.58683777 C23.66401214 65.95983959 24.4670597 76.74117744 31 84 C37.27275972 88.52869802 43.42035718 89.79603555 51 89 C59.08869154 87.21889962 64.4388018 83.98523121 69 77 C70.09675959 73.70972124 70.14019564 71.25271189 70.16113281 67.7878418 C70.17074036 66.50608566 70.1803479 65.22432953 70.19024658 63.9037323 C70.195095 62.5022296 70.19937372 61.10072482 70.203125 59.69921875 C70.20887936 58.26056416 70.21463706 56.82190957 70.22039795 55.383255 C70.23090039 52.36625817 70.2367478 49.34928793 70.24023438 46.33227539 C70.24571343 42.47542683 70.26973168 38.61893231 70.29820633 34.76219463 C70.31687617 31.7895456 70.32204064 28.81698104 70.32357025 25.84427834 C70.32658821 24.42297241 70.33458773 23.00166767 70.34775543 21.58041954 C70.36490275 19.58713194 70.36107837 17.59369777 70.35644531 15.6003418 C70.36009094 14.46799606 70.36373657 13.33565033 70.36749268 12.16899109 C69.9458628 8.53315993 68.88684509 6.11975419 67 3 C66.01 2.505 66.01 2.505 65 2 C65 1.34 65 0.68 65 0 C74.57 0 84.14 0 94 0 C92.35 2.31 90.7 4.62 89 7 C87.8219014 11.38251874 87.86346108 15.71417199 87.83886719 20.23950195 C87.83390228 20.93793213 87.82893738 21.6363623 87.82382202 22.35595703 C87.80930318 24.65007539 87.80241589 26.94412463 87.796875 29.23828125 C87.79404762 30.02692251 87.79122025 30.81556377 87.78830719 31.62810326 C87.77335664 35.80114447 87.76410093 39.97415147 87.75976562 44.1472168 C87.7542853 48.43749584 87.7302548 52.72745684 87.70179367 57.0176363 C87.68308794 60.33524974 87.6779575 63.65278774 87.67642975 66.97044945 C87.67342088 68.55115689 87.66545266 70.13186357 87.65224457 71.71251869 C87.57251975 81.9860668 87.62019678 90.49359571 94 99 C86.41 99 78.82 99 71 99 C70.505 95.535 70.505 95.535 70 92 C69.52691406 92.39832031 69.05382812 92.79664063 68.56640625 93.20703125 C59.71706181 100.29685691 49.36427944 103.01433238 38 102 C28.04141159 100.51062936 19.98674565 97.65508247 13.125 90.0625 C8.36312799 83.1998021 6.88976232 76.78108213 6.84228516 68.57666016 C6.83202301 67.29828278 6.82176086 66.0199054 6.81118774 64.70278931 C6.80774982 64.02456745 6.8043119 63.3463456 6.80076981 62.64757156 C6.78890804 60.51124306 6.76943767 58.37511018 6.74765015 56.23886108 C6.68627465 50.16744551 6.63203869 44.09605332 6.59863281 38.02441406 C6.57761366 34.30317822 6.54225775 30.58230581 6.49787521 26.86127853 C6.48377757 25.44923571 6.47500694 24.03712867 6.47182083 22.62501907 C6.58910024 10.11225219 6.58910024 10.11225219 0 0 Z " fill="#173058" transform="translate(540,92)"/>
<path d="M0 0 C6.3495494 -0.1021981 12.69888337 -0.17179699 19.04907227 -0.21972656 C21.20507737 -0.23972691 23.36102904 -0.26693624 25.5168457 -0.30175781 C28.63245912 -0.35078853 31.74734971 -0.37308514 34.86328125 -0.390625 C35.81270096 -0.41127014 36.76212067 -0.43191528 37.74031067 -0.45318604 C47.0941442 -0.45625738 55.73504898 1.93705609 62.6328125 8.48828125 C67.67763118 14.06640933 68.43307164 19.7696272 68.3359375 27.0546875 C67.45078858 34.81517918 63.28218108 40.4026773 57.453125 45.33203125 C53.78716001 47.82465394 49.89883861 49.89623859 46 52 C46.57331055 52.69391846 46.57331055 52.69391846 47.15820312 53.40185547 C64.75801369 74.71329877 64.75801369 74.71329877 69.87890625 81.484375 C72.15747684 84.18676811 74.55853041 86.28747563 77.3125 88.5 C78.27414062 89.2734375 79.23578125 90.046875 80.2265625 90.84375 C82.51336381 92.6216575 84.81746686 94.33614 87.1875 96 C88.115625 96.66 89.04375 97.32 90 98 C90 98.33 90 98.66 90 99 C86.50028801 99.1173794 83.00109045 99.18763961 79.5 99.25 C78.51773437 99.28351563 77.53546875 99.31703125 76.5234375 99.3515625 C69.12367327 99.45022602 63.71020383 98.56324457 58.24951172 93.31884766 C56.46927625 91.33588437 54.82072426 89.29302166 53.1875 87.1875 C52.28801636 86.0596106 52.28801636 86.0596106 51.37036133 84.90893555 C49.5593029 82.62137137 47.77475267 80.31581132 46 78 C45.484375 77.3287207 44.96875 76.65744141 44.4375 75.96582031 C39.29442855 69.21895862 34.43656471 62.29995803 29.8125 55.1875 C29.42537842 54.59428955 29.03825684 54.0010791 28.6394043 53.38989258 C26 49.24765499 26 49.24765499 26 47 C27.50240234 46.56300781 27.50240234 46.56300781 29.03515625 46.1171875 C38.06456955 43.3802458 44.91750446 41.10538324 50 32.6875 C51.24711514 28.08876293 51.44836205 24.56234047 50 20 C46.9348946 14.75548523 43.85696702 12.59566029 38 11 C35.33212358 10.86525877 32.78353559 10.80802139 30.125 10.875 C29.09246094 10.88853516 29.09246094 10.88853516 28.0390625 10.90234375 C26.35922162 10.92567487 24.67956254 10.96153674 23 11 C23.08456263 20.90151581 23.17950735 30.8028733 23.28752708 40.7041626 C23.33736834 45.30225638 23.38369905 49.90032855 23.421875 54.49853516 C23.45888206 58.94012824 23.50528297 63.38153487 23.55806351 67.82296753 C23.57652581 69.51330274 23.59166355 71.2036778 23.60334396 72.89407349 C23.62034708 75.27072036 23.64941406 77.64694776 23.68115234 80.0234375 C23.68331253 80.71468216 23.68547272 81.40592682 23.68769836 82.11811829 C23.7714172 87.05934211 24.54651509 91.30446292 26 96 C27.97034802 97.5748108 27.97034802 97.5748108 30 98 C30 98.33 30 98.66 30 99 C20.1 99 10.2 99 0 99 C1.65 97.02 3.3 95.04 5 93 C6.53528537 89.36413432 6.15502299 85.30384231 6.16113281 81.4050293 C6.16609772 80.64515717 6.17106262 79.88528503 6.17617798 79.10238647 C6.19076134 76.59298795 6.19759531 74.08365266 6.203125 71.57421875 C6.20887973 69.82550556 6.21463742 68.07679239 6.22039795 66.32807922 C6.23089714 62.66215726 6.23674684 58.99625715 6.24023438 55.33032227 C6.24571595 50.64296543 6.26974131 45.95589952 6.29820633 41.26863384 C6.31687049 37.65600247 6.32204032 34.04344065 6.32357025 30.43076515 C6.32658892 28.70326968 6.33459084 26.9757752 6.34775543 25.24832726 C6.36489483 22.82638055 6.36291669 20.40513778 6.35644531 17.9831543 C6.37026749 16.92226845 6.37026749 16.92226845 6.3843689 15.83995056 C6.33653979 10.09820916 5.14435486 5.46203706 1.3125 1.0625 C0.879375 0.711875 0.44625 0.36125 0 0 Z " fill="#163058" transform="translate(960,92)"/>
<path d="M0 0 C6.24387037 -0.07453656 12.4874778 -0.12878447 18.73168945 -0.16479492 C20.85282914 -0.17981784 22.9739381 -0.20024211 25.0949707 -0.22631836 C28.15583919 -0.26298838 31.21629454 -0.27979175 34.27734375 -0.29296875 C35.6841465 -0.31619453 35.6841465 -0.31619453 37.11936951 -0.33988953 C45.77440527 -0.34206799 53.12616433 1.53217617 60 7 C65.18940513 12.21823516 67.28701046 16.96537308 67.375 24.3125 C67.22321306 32.23220662 65.13277515 36.8828168 59.875 42.6875 C55.82207586 46.53733644 51.08258827 48.78084174 46 51 C47.71387983 54.98599481 50.37475317 58.20212965 53.0625 61.5625 C53.79895752 62.48905396 53.79895752 62.48905396 54.55029297 63.43432617 C55.55359973 64.69406242 56.55880191 65.95229145 57.56591797 67.20898438 C58.85333217 68.81682751 60.1322963 70.43142806 61.41015625 72.046875 C68.95017051 81.46191926 76.92523847 89.22713778 86.69140625 96.25 C87.45324219 96.8275 88.21507812 97.405 89 98 C89 98.33 89 98.66 89 99 C85.45849107 99.08761663 81.91726367 99.14059739 78.375 99.1875 C77.37597656 99.21263672 76.37695312 99.23777344 75.34765625 99.26367188 C68.16306145 99.33504202 63.81731104 98.62301373 58.39453125 93.57421875 C48.49805958 82.50993348 39.58785091 71.08716811 31.3125 58.75 C30.37506958 57.35503296 30.37506958 57.35503296 29.41870117 55.93188477 C28.8435376 55.06233154 28.26837402 54.19277832 27.67578125 53.296875 C27.15927002 52.51666992 26.64275879 51.73646484 26.1105957 50.93261719 C25 49 25 49 25 47 C26.01320313 46.68546875 27.02640625 46.3709375 28.0703125 46.046875 C29.42203235 45.6150756 30.77358614 45.18275612 32.125 44.75 C32.79015625 44.54503906 33.4553125 44.34007812 34.140625 44.12890625 C39.26595669 42.4707107 44.03423647 40.50188086 47.4609375 36.140625 C50.10733522 30.66687929 51.33763682 26.10487299 49.375 20.08203125 C47.45170804 16.0551387 44.88992231 13.48158282 40.78320312 11.71777344 C37.08061375 10.76289513 33.49555265 10.83370157 29.703125 10.90234375 C28.96143066 10.90939331 28.21973633 10.91644287 27.45556641 10.92370605 C25.63695856 10.94200927 23.818453 10.97002989 22 11 C22.08469303 20.34544898 22.17968647 29.69072183 22.28752708 39.03593254 C22.3372944 43.37613659 22.38362479 47.71631858 22.421875 52.05664062 C22.45897669 56.25186123 22.50540114 60.44688797 22.55806351 64.64194107 C22.57647618 66.23572485 22.59163158 67.82954997 22.60334396 69.42339706 C22.31217164 85.24353446 22.31217164 85.24353446 29 99 C19.43 99 9.86 99 0 99 C0 98.34 0 97.68 0 97 C1.33333333 95.66666667 2.66666667 94.33333333 4 93 C5.20396453 89.38810642 5.15543073 86.07946049 5.16113281 82.3190918 C5.16609772 81.53825226 5.17106262 80.75741272 5.17617798 79.95291138 C5.19078895 77.36833821 5.19760007 74.78382644 5.203125 72.19921875 C5.20887764 70.40184019 5.21463536 68.60446165 5.22039795 66.80708313 C5.23090512 63.03683181 5.23674954 59.26660179 5.24023438 55.49633789 C5.24571636 50.67097405 5.26973922 45.84589277 5.29820633 41.02061749 C5.31685333 37.30680017 5.32203942 33.59305061 5.32357025 29.87919044 C5.32659301 28.10062936 5.33460881 26.32206937 5.34775543 24.54355431 C5.36485805 22.05184979 5.36292549 19.5608316 5.35644531 17.0690918 C5.3656601 16.33796677 5.37487488 15.60684174 5.3843689 14.8535614 C5.33470956 8.74142177 3.31991732 4.97987598 0 0 Z " fill="#163058" transform="translate(1210,92)"/>
<path d="M0 0 C0 5.94 0 11.88 0 18 C-5 16 -5 16 -6.90234375 14.9140625 C-9.79401143 13.65400619 -12.42039127 13.56457974 -15.5625 13.375 C-16.69816406 13.30023438 -17.83382812 13.22546875 -19.00390625 13.1484375 C-23.99940384 12.96287649 -29.00105721 13 -34 13 C-34 21.91 -34 30.82 -34 40 C-21.625 39.505 -21.625 39.505 -9 39 C-9 44.61 -9 50.22 -9 56 C-10.32 55.34 -11.64 54.68 -13 54 C-19.82172615 52.29456846 -26.98045968 52.41291414 -34 52 C-34 63.55 -34 75.1 -34 87 C-31.03 87 -28.06 87 -25 87 C-22.39450059 87.2134812 -19.79020225 87.44226058 -17.1875 87.6875 C-7.29943141 88.42399383 1.28692511 86.94655927 9.37890625 80.890625 C9.91386719 80.59671875 10.44882812 80.3028125 11 80 C12.485 80.495 12.485 80.495 14 81 C13.02567877 83.98077372 12.04473557 86.95932578 11.0625 89.9375 C10.78470703 90.78763672 10.50691406 91.63777344 10.22070312 92.51367188 C9.95322266 93.32255859 9.68574219 94.13144531 9.41015625 94.96484375 C9.16402588 95.7137085 8.91789551 96.46257324 8.66430664 97.23413086 C8 99 8 99 7 100 C5.0056827 100.09405142 3.00800457 100.11743249 1.01147461 100.11352539 C-0.26977798 100.11344986 -1.55103058 100.11337433 -2.87110901 100.11329651 C-4.27995848 100.10818909 -5.68880756 100.10297309 -7.09765625 100.09765625 C-8.53112234 100.09579202 -9.96458907 100.09436814 -11.39805603 100.09336853 C-15.17759957 100.08954372 -18.9571049 100.07971377 -22.7366333 100.06866455 C-26.59069298 100.05844963 -30.44475882 100.05387074 -34.29882812 100.04882812 C-41.86590287 100.03809146 -49.43294609 100.02101549 -57 100 C-55.73046875 98.53515625 -54.4609375 97.0703125 -53.19140625 95.60546875 C-50.42468702 91.8772012 -50.845566 87.73677927 -50.83886719 83.3190918 C-50.83390228 82.53825226 -50.82893738 81.75741272 -50.82382202 80.95291138 C-50.80921105 78.36833821 -50.80239993 75.78382644 -50.796875 73.19921875 C-50.79112236 71.40184019 -50.78536464 69.60446165 -50.77960205 67.80708313 C-50.76909488 64.03683181 -50.76325046 60.26660179 -50.75976562 56.49633789 C-50.75428364 51.67097405 -50.73026078 46.84589277 -50.70179367 42.02061749 C-50.68314667 38.30680017 -50.67796058 34.59305061 -50.67642975 30.87919044 C-50.67340699 29.10062936 -50.66539119 27.32206937 -50.65224457 25.54355431 C-50.63514195 23.05184979 -50.63707451 20.5608316 -50.64355469 18.0690918 C-50.6343399 17.33796677 -50.62512512 16.60684174 -50.6156311 15.8535614 C-50.66097266 10.27286058 -51.93616778 6.29314691 -55.6875 2.125 C-56.120625 1.75375 -56.55375 1.3825 -57 1 C-49.36450918 0.85719579 -41.72901039 0.71482329 -34.09350586 0.57275391 C-31.49487118 0.52435131 -28.89623836 0.47584912 -26.29760742 0.42724609 C-22.56689934 0.35748662 -18.83618478 0.28808288 -15.10546875 0.21875 C-13.93976852 0.19687622 -12.7740683 0.17500244 -11.57304382 0.15246582 C-9.9517028 0.12243469 -9.9517028 0.12243469 -8.29760742 0.09179688 C-7.34496506 0.07403198 -6.39232269 0.05626709 -5.41081238 0.03796387 C-3.60738745 0.00956473 -1.80364852 0 0 0 Z " fill="#173058" transform="translate(934,91)"/>
<path d="M0 0 C24.42 0 48.84 0 74 0 C72.875 9 72.875 9 71.4375 13.5 C71.16808594 14.3559375 70.89867187 15.211875 70.62109375 16.09375 C70.41613281 16.7228125 70.21117187 17.351875 70 18 C67.50638429 16.79618552 65.31856917 15.54571278 63 14 C58.8002317 12.87359678 54.51098198 12.6898755 50.1875 12.4375 C49.14819336 12.37272461 49.14819336 12.37272461 48.08789062 12.30664062 C46.39211314 12.20138547 44.69607948 12.10027137 43 12 C43.06126625 22.06649217 43.1384123 32.13272625 43.23571491 42.19893837 C43.28040231 46.87333063 43.31966204 51.54763606 43.34643555 56.22216797 C43.37248479 60.73513922 43.41289867 65.24777604 43.46318626 69.76054001 C43.47984402 71.48043018 43.4913651 73.20037819 43.49761391 74.92033768 C43.50726699 77.3334771 43.53533972 79.74576308 43.56762695 82.15869141 C43.56619186 82.86647736 43.56475677 83.57426331 43.5632782 84.30349731 C43.69847796 91.46941038 45.99358107 94.99358107 51 100 C40.77 100 30.54 100 20 100 C21.32 98.35 22.64 96.7 24 95 C26.7573558 86.56240327 26.35060718 77.72048668 26.4140625 68.93359375 C26.43280003 67.28734901 26.45237532 65.64111362 26.4727478 63.99488831 C26.52380223 59.68945862 26.56356972 55.38399788 26.60089111 51.07843018 C26.64109929 46.67395517 26.69211442 42.26960632 26.7421875 37.86523438 C26.83863024 29.24357618 26.92313496 20.62185488 27 12 C23.66424581 12.22250421 20.33246805 12.48304662 17 12.75 C15.59814453 12.8428125 15.59814453 12.8428125 14.16796875 12.9375 C7.82140459 13.47007881 3.56892992 14.9420608 -2 18 C-2.99 18 -3.98 18 -5 18 C-4.54472226 16.12425571 -4.0856282 14.24943754 -3.625 12.375 C-3.36976563 11.33085938 -3.11453125 10.28671875 -2.8515625 9.2109375 C-2.02764916 6.1042551 -1.01638126 3.04914379 0 0 Z " fill="#163058" transform="translate(342,91)"/>
<path d="M0 0 C9.9 0 19.8 0 30 0 C28.68 1.65 27.36 3.3 26 5 C24.17844707 9.933151 23.74767019 14.30131909 23.74121094 19.53662109 C23.7377063 20.25470444 23.73420166 20.97278778 23.73059082 21.71263123 C23.72185005 24.06633418 23.7275966 26.41973193 23.734375 28.7734375 C23.73302585 30.42339129 23.73108324 32.07334468 23.72857666 33.72329712 C23.7256355 37.17461955 23.7298894 40.62583813 23.73925781 44.07714844 C23.75063379 48.48056529 23.74409825 52.88373778 23.73211288 57.28714561 C23.72485165 60.69312345 23.72720201 64.09904432 23.73236847 67.50502396 C23.73369413 69.12758031 23.73209562 70.75014198 23.72740936 72.37269211 C23.5324252 84.3636156 23.5324252 84.3636156 26 96 C28.00260573 97.24727522 28.00260573 97.24727522 30 98 C30 98.33 30 98.66 30 99 C20.1 99 10.2 99 0 99 C1.65 97.02 3.3 95.04 5 93 C6.53528537 89.36413432 6.15502299 85.30384231 6.16113281 81.4050293 C6.16609772 80.64515717 6.17106262 79.88528503 6.17617798 79.10238647 C6.19076134 76.59298795 6.19759531 74.08365266 6.203125 71.57421875 C6.20887973 69.82550556 6.21463742 68.07679239 6.22039795 66.32807922 C6.23089714 62.66215726 6.23674684 58.99625715 6.24023438 55.33032227 C6.24571595 50.64296543 6.26974131 45.95589952 6.29820633 41.26863384 C6.31687049 37.65600247 6.32204032 34.04344065 6.32357025 30.43076515 C6.32658892 28.70326968 6.33459084 26.9757752 6.34775543 25.24832726 C6.36489483 22.82638055 6.36291669 20.40513778 6.35644531 17.9831543 C6.37026749 16.92226845 6.37026749 16.92226845 6.3843689 15.83995056 C6.32903361 9.19711481 4.73966188 4.73966188 0 0 Z " fill="#163058" transform="translate(1158,92)"/>
<path d="M0 0 C2.31 0 4.62 0 7 0 C10.63 8.25 14.26 16.5 18 25 C20.94403093 19.11193813 23.73363201 13.47016116 26.25 7.4375 C28.89463956 1.10536044 28.89463956 1.10536044 30 0 C32.31 0 34.62 0 37 0 C37 14.19 37 28.38 37 43 C34.36 43 31.72 43 29 43 C28.505 33.1 28.505 33.1 28 23 C26.02 27.62 24.04 32.24 22 37 C19.69 37 17.38 37 15 37 C14.01836578 35.06374902 13.03977546 33.12595461 12.0625 31.1875 C11.51722656 30.10855469 10.97195313 29.02960938 10.41015625 27.91796875 C9 25 9 25 8 22 C7.67 28.93 7.34 35.86 7 43 C4.69 43 2.38 43 0 43 C0 28.81 0 14.62 0 0 Z " fill="#163058" transform="translate(985,260)"/>
<path d="M0 0 C2.31 0 4.62 0 7 0 C10.63 8.25 14.26 16.5 18 25 C19.051875 22.73125 20.10375 20.4625 21.1875 18.125 C24.02257671 12.0303822 26.94305703 5.98710028 30 0 C32.31 0 34.62 0 37 0 C37 14.19 37 28.38 37 43 C34.36 43 31.72 43 29 43 C28.505 33.1 28.505 33.1 28 23 C26.02 27.62 24.04 32.24 22 37 C19.69 37 17.38 37 15 37 C12.69 32.38 10.38 27.76 8 23 C7.67 29.6 7.34 36.2 7 43 C4.69 43 2.38 43 0 43 C0 28.81 0 14.62 0 0 Z " fill="#173058" transform="translate(1236,260)"/>
<path d="M0 0 C7 0 7 0 8.86328125 1.625 C9.34152344 2.40875 9.81976562 3.1925 10.3125 4 C10.87710937 4.89460938 11.44171875 5.78921875 12.0234375 6.7109375 C12.67570312 7.79632813 13.32796875 8.88171875 14 10 C15.30488251 12.08006023 16.61843062 14.15450384 17.93212891 16.22900391 C19.97177535 19.47536949 21.98294265 22.73955114 24 26 C24.33 17.42 24.66 8.84 25 0 C27.64 0 30.28 0 33 0 C33 14.19 33 28.38 33 43 C25 43 25 43 22.83837891 41.02807617 C22.30647949 40.12549072 21.77458008 39.22290527 21.2265625 38.29296875 C20.33130859 36.8244043 20.33130859 36.8244043 19.41796875 35.32617188 C18.53044922 33.7725293 18.53044922 33.7725293 17.625 32.1875 C17.01011719 31.16333984 16.39523437 30.13917969 15.76171875 29.08398438 C14.62293327 27.18393201 13.49612788 25.27661215 12.38525391 23.36010742 C11.31556388 21.53763765 10.1721949 19.75829234 9 18 C8.67 26.25 8.34 34.5 8 43 C5.36 43 2.72 43 0 43 C0 28.81 0 14.62 0 0 Z " fill="#173058" transform="translate(1323,260)"/>
<path d="M0 0 C19 0 19 0 26 2 C29.00674841 5.23803674 30.23691764 7.77134427 30.375 12.125 C30.05530256 15.42854019 29.80562845 17.29155733 28 20 C27.34 20 26.68 20 26 20 C26.639375 20.763125 27.27875 21.52625 27.9375 22.3125 C31.15993818 26.5114346 31.44092288 29.79710998 31 35 C28.97333762 38.70390021 27.51955484 40.65363011 24 43 C21.45629883 43.22705078 21.45629883 43.22705078 18.45703125 43.1953125 C17.48999268 43.19031738 16.5229541 43.18532227 15.52661133 43.18017578 C14.30095459 43.16196777 13.07529785 43.14375977 11.8125 43.125 C7.914375 43.08375 4.01625 43.0425 0 43 C0 28.81 0 14.62 0 0 Z M8 7 C8 10.63 8 14.26 8 18 C9.93627769 18.10807131 11.87427756 18.1856225 13.8125 18.25 C14.89144531 18.29640625 15.97039063 18.3428125 17.08203125 18.390625 C20.08658929 18.28479311 20.08658929 18.28479311 21.890625 16.1484375 C23.21037751 14.01403345 23.21037751 14.01403345 22.9375 11.375 C22.22848354 8.91289997 22.22848354 8.91289997 20.26953125 7.859375 C17.61107862 6.85273201 15.58359145 6.8004318 12.75 6.875 C10.39875 6.936875 10.39875 6.936875 8 7 Z M8 25 C8 28.63 8 32.26 8 36 C10.12472576 36.05386629 12.24983652 36.09273071 14.375 36.125 C16.15003906 36.15980469 16.15003906 36.15980469 17.9609375 36.1953125 C21.11153817 36.32866229 21.11153817 36.32866229 23 34 C23.46261477 29.93915818 23.46261477 29.93915818 21.8671875 26.3203125 C19.16566496 24.41003087 17.07776508 24.70716887 13.8125 24.8125 C12.18248047 24.85310547 12.18248047 24.85310547 10.51953125 24.89453125 C9.68808594 24.92933594 8.85664062 24.96414063 8 25 Z " fill="#173058" transform="translate(836,260)"/>
<path d="M0 0 C7 0 7 0 8.6015625 1.29418945 C8.93929688 1.89448975 9.27703125 2.49479004 9.625 3.11328125 C10.02203125 3.78552734 10.4190625 4.45777344 10.828125 5.15039062 C11.21484375 5.86388672 11.6015625 6.57738281 12 7.3125 C12.79060783 8.68420458 13.58229972 10.05528483 14.375 11.42578125 C15.24125 12.93527344 16.1075 14.44476563 17 16 C19.31 19.63 21.62 23.26 24 27 C24.33 18.09 24.66 9.18 25 0 C27.31 0 29.62 0 32 0 C32 14.19 32 28.38 32 43 C25 43 25 43 23.13671875 41.375 C22.65847656 40.59125 22.18023438 39.8075 21.6875 39 C20.84058594 37.65808594 20.84058594 37.65808594 19.9765625 36.2890625 C19.32429688 35.20367187 18.67203125 34.11828125 18 33 C16.69511749 30.91993977 15.38156938 28.84549616 14.06787109 26.77099609 C12.02822465 23.52463051 10.01705735 20.26044886 8 17 C7.67 25.58 7.34 34.16 7 43 C4.69 43 2.38 43 0 43 C0 28.81 0 14.62 0 0 Z " fill="#163058" transform="translate(1074,260)"/>
<path d="M0 0 C4.31012988 2.34337159 5.86995623 4.9858372 7.8125 9.4375 C7.8125 10.4275 7.8125 11.4175 7.8125 12.4375 C2.50345641 12.8799203 2.50345641 12.8799203 -0.1875 12.4375 C-1.54577971 10.79110035 -2.88004251 9.12454193 -4.1875 7.4375 C-7.73021642 6.68738633 -7.73021642 6.68738633 -11.1875 7.4375 C-13.31567579 9.24620367 -14.09092246 10.73290964 -14.4699707 13.49829102 C-14.59213167 16.00606283 -14.59639894 18.48959517 -14.5625 21 C-14.57410156 21.86302734 -14.58570313 22.72605469 -14.59765625 23.61523438 C-14.59378906 24.44474609 -14.58992187 25.27425781 -14.5859375 26.12890625 C-14.58255371 26.88373291 -14.57916992 27.63855957 -14.57568359 28.41625977 C-14.07967055 30.99895911 -13.2858166 31.88387469 -11.1875 33.4375 C-6.5704262 33.97208134 -6.5704262 33.97208134 -2.375 32.3125 C-0.79480475 29.81745487 -0.00400319 27.26385719 0.8125 24.4375 C-2.1575 24.4375 -5.1275 24.4375 -8.1875 24.4375 C-8.1875 22.1275 -8.1875 19.8175 -8.1875 17.4375 C-2.9075 17.4375 2.3725 17.4375 7.8125 17.4375 C8.41104015 33.14917883 8.41104015 33.14917883 3.8125 38.4375 C-0.90732093 41.84682835 -5.34105473 43.27270647 -11.1875 42.4375 C-16.01408188 40.98316271 -18.88093553 39.35394933 -21.3984375 34.9140625 C-23.65978853 30.06177528 -23.74769196 25.59221223 -23.625 20.3125 C-23.63208984 19.44496094 -23.63917969 18.57742188 -23.64648438 17.68359375 C-23.58819705 11.79209053 -22.81000178 7.31269076 -18.6875 2.79296875 C-12.67709759 -1.88700605 -7.15694585 -3.12448755 0 0 Z " fill="#163058" transform="translate(741.1875,261.5625)"/>
<path d="M0 0 C3.52912227 3.43625063 4.54655595 6.12547646 5 11 C2.36 11 -0.28 11 -3 11 C-3.28875 10.360625 -3.5775 9.72125 -3.875 9.0625 C-4.82823451 6.84793921 -4.82823451 6.84793921 -7 6 C-10.39848265 5.63059971 -12.29082047 5.52338024 -15.16796875 7.45703125 C-17.86987529 11.20743884 -17.54909385 14.4930484 -17.4375 19 C-17.44458984 19.80695313 -17.45167969 20.61390625 -17.45898438 21.4453125 C-17.42157904 24.93264026 -17.30876115 27.38814305 -15.72265625 30.53125 C-13.10087173 32.76660369 -11.19136702 32.56339384 -7.87109375 32.38671875 C-5.82076783 32.12247125 -5.82076783 32.12247125 -4.0625 30.3125 C-2.93781945 27.86466586 -2.36992668 25.66347212 -2 23 C-4.64 23 -7.28 23 -10 23 C-10 20.69 -10 18.38 -10 16 C-5.05 16 -0.1 16 5 16 C5.0825 18.35125 5.165 20.7025 5.25 23.125 C5.28641602 23.85348145 5.32283203 24.58196289 5.36035156 25.33251953 C5.44559421 30.40170745 4.14008814 33.10536203 1 37 C-3.03457634 40.54553678 -6.56965804 41.30939271 -11.9453125 41.2109375 C-16.60392991 40.7326764 -19.37199836 38.62238612 -22.62109375 35.40234375 C-25.6193645 31.69889406 -25.81669882 28.32992489 -25.875 23.6875 C-25.89763916 22.9342041 -25.92027832 22.1809082 -25.94360352 21.40478516 C-25.99320829 19.26878065 -26.00371194 17.13648506 -26 15 C-26.01740234 13.58267578 -26.01740234 13.58267578 -26.03515625 12.13671875 C-25.81282237 6.98746615 -24.09479721 3.95549856 -20.60546875 0.375 C-14.34386701 -4.98773433 -6.81943298 -3.73138786 0 0 Z " fill="#163058" transform="translate(1183,263)"/>
<path d="M0 0 C3.66591934 3.01588003 5.57578482 6.4446182 6.27416992 11.07641602 C6.43167923 13.91488095 6.4403739 16.71634915 6.39453125 19.55859375 C6.41 20.51765625 6.42546875 21.47671875 6.44140625 22.46484375 C6.40723744 28.68356737 5.63413996 32.5349424 1.89453125 37.55859375 C-1.53385108 40.37905674 -5.25565062 41.43719116 -9.60546875 42.05859375 C-14.91052481 41.3007286 -19.28531854 39.43745848 -23.04296875 35.55859375 C-25.67700342 30.60041084 -25.35807555 25.28682502 -25.41796875 19.80859375 C-25.44697266 18.93976563 -25.47597656 18.0709375 -25.50585938 17.17578125 C-25.56485138 11.13136988 -24.63416357 6.55571329 -21.10546875 1.55859375 C-14.73872422 -4.00738497 -7.25013391 -3.32236279 0 0 Z M-15.48046875 7.18359375 C-18.75625353 11.9712792 -18.5411965 17.91591939 -18.10546875 23.55859375 C-17.39535419 26.89066977 -16.69824403 29.59143409 -14.91796875 32.49609375 C-11.90359605 34.26313981 -9.50560091 33.97615384 -6.10546875 33.55859375 C-3.52539038 31.72538017 -2.40635866 30.41111516 -1.35546875 27.43359375 C-0.71815238 20.10445555 -0.20283569 13.14169857 -4.29296875 6.68359375 C-8.07797731 4.33427809 -11.9010902 4.73454527 -15.48046875 7.18359375 Z " fill="#163058" transform="translate(820.10546875,262.44140625)"/>
<path d="M0 0 C3.67620946 3.02434551 5.59076101 6.44117852 6.25805664 11.0925293 C6.39556716 13.94631575 6.39125871 16.76480168 6.33203125 19.62109375 C6.33912109 20.58853516 6.34621094 21.55597656 6.35351562 22.55273438 C6.30563515 27.93376306 5.99522264 31.96227475 2.89453125 36.55859375 C-2.42372983 40.65808667 -6.38977405 42.10906053 -13.10546875 41.55859375 C-17.93242705 40.14472723 -20.80989076 38.45566724 -23.31640625 34.03515625 C-25.57775728 29.18286903 -25.66566071 24.71330598 -25.54296875 19.43359375 C-25.55005859 18.56605469 -25.55714844 17.69851563 -25.56445312 16.8046875 C-25.5061658 10.91318428 -24.72797053 6.43378451 -20.60546875 1.9140625 C-13.66986206 -3.48631875 -7.81829264 -3.58272066 0 0 Z M-17.10546875 9.55859375 C-18.61988098 15.98337293 -18.59592349 23.13817332 -17.10546875 29.55859375 C-15.64548888 32.18575952 -15.64548888 32.18575952 -13.10546875 33.55859375 C-9.08487712 34.13296398 -7.04178549 34.24851135 -3.73046875 31.80859375 C-0.94059346 27.9456895 -0.94751376 24.306932 -0.91796875 19.62109375 C-0.90378906 18.60144531 -0.88960937 17.58179688 -0.875 16.53125 C-1.1684787 12.74587216 -2.22055696 9.90924859 -4.29296875 6.74609375 C-9.29856714 3.46656377 -13.72421562 5.24532854 -17.10546875 9.55859375 Z " fill="#163058" transform="translate(634.10546875,262.44140625)"/>
<path d="M0 0 C4.07592745 2.23022446 6.24910972 4.68571945 8.3125 8.8125 C8.60892382 12.72284132 8.59057153 16.64224443 8.625 20.5625 C8.65400391 21.64789063 8.68300781 22.73328125 8.71289062 23.8515625 C8.7630775 30.16738773 8.60223087 34.03818842 4.3125 38.8125 C0.27792366 42.35803678 -3.25715804 43.12189271 -8.6328125 43.0234375 C-13.39321305 42.53472718 -16.16165601 40.32665857 -19.5 37.0625 C-24.44074408 29.72196595 -23.45187237 18.47563527 -22.125 9.9375 C-20.90606631 5.07943096 -17.84657621 2.40613327 -13.6875 -0.1875 C-8.78222524 -1.82259159 -4.91018173 -1.58124496 0 0 Z M-12.8828125 8.7734375 C-15.325683 12.88718912 -15.27896943 16.1170691 -15.1875 20.8125 C-15.20296875 21.6065625 -15.2184375 22.400625 -15.234375 23.21875 C-15.20781652 27.20252203 -14.95943059 29.35771953 -12.875 32.84375 C-10.73507669 35.13732454 -10.73507669 35.13732454 -7.1875 35.3125 C-3.61878619 34.80268374 -2.15589735 34.37583571 0.3125 31.8125 C1.53200118 28.15399645 1.53503359 24.74846431 1.5625 20.9375 C1.583125 20.22980469 1.60375 19.52210938 1.625 18.79296875 C1.65870196 14.26848041 1.11993987 11.39675575 -1.6875 7.8125 C-5.6903841 5.81105795 -9.51715766 5.76710524 -12.8828125 8.7734375 Z " fill="#163058" transform="translate(488.6875,261.1875)"/>
<path d="M0 0 C4.07592745 2.23022446 6.24910972 4.68571945 8.3125 8.8125 C8.60892382 12.72284132 8.59057153 16.64224443 8.625 20.5625 C8.65400391 21.64789063 8.68300781 22.73328125 8.71289062 23.8515625 C8.7630775 30.16738773 8.60223087 34.03818842 4.3125 38.8125 C0.27792366 42.35803678 -3.25715804 43.12189271 -8.6328125 43.0234375 C-13.36305566 42.53782318 -16.14591114 40.33001824 -19.5 37.125 C-22.03664885 33.28378889 -22.57596929 30.28966129 -22.6875 25.8125 C-22.72617187 25.02617187 -22.76484375 24.23984375 -22.8046875 23.4296875 C-23.21513044 8.88176553 -23.21513044 8.88176553 -19.1015625 3.88671875 C-13.18210917 -1.34587818 -7.67915973 -2.47294974 0 0 Z M-12.3515625 8.7734375 C-15.50530454 12.87646644 -15.40106408 15.78247448 -15.25 20.8125 C-15.26095703 21.6065625 -15.27191406 22.400625 -15.28320312 23.21875 C-15.23350162 27.19487036 -14.95347659 29.3686337 -12.87109375 32.84375 C-10.73494836 35.13778208 -10.73494836 35.13778208 -7.1875 35.3125 C-3.61878619 34.80268374 -2.15589735 34.37583571 0.3125 31.8125 C1.53200118 28.15399645 1.53503359 24.74846431 1.5625 20.9375 C1.583125 20.22980469 1.60375 19.52210938 1.625 18.79296875 C1.65870196 14.26848041 1.11993987 11.39675575 -1.6875 7.8125 C-5.73988563 5.78630719 -8.73887325 6.11424395 -12.3515625 8.7734375 Z " fill="#163058" transform="translate(528.6875,261.1875)"/>
<path d="M0 0 C9.24 0 18.48 0 28 0 C28 2.64 28 5.28 28 8 C21.07 8 14.14 8 7 8 C7 11.63 7 15.26 7 19 C12.94 19 18.88 19 25 19 C25 20.98 25 22.96 25 25 C19.06 25 13.12 25 7 25 C7 28.63 7 32.26 7 36 C13.93 36 20.86 36 28 36 C28 38.31 28 40.62 28 43 C18.76 43 9.52 43 0 43 C0 28.81 0 14.62 0 0 Z " fill="#173058" transform="translate(1199,260)"/>
<path d="M0 0 C-1.24976756 3.65316671 -1.67098753 4.78065836 -5 7 C-6.0209375 6.566875 -6.0209375 6.566875 -7.0625 6.125 C-11.34275611 4.48575298 -15.4669375 4.84156286 -20 5 C-20.2502157 7.91634129 -20.2502157 7.91634129 -20 11 C-15.9405763 13.70628247 -11.88762785 14.07581619 -7.12890625 14.92578125 C-2.7758077 16.42029074 -1.01384608 18.97230784 1 23 C1.52408886 26.74349188 1.78325109 30.39636092 0.09375 33.85546875 C-2.75041238 37.5474103 -5.49665244 39.13397162 -10 40 C-16.15993683 40.62973332 -21.50512523 39.96450354 -27 37 C-29.5 34.8125 -29.5 34.8125 -31 33 C-29.02 30.525 -29.02 30.525 -27 28 C-22.25 29.875 -22.25 29.875 -20 31 C-18.35857459 31.14640501 -16.7101859 31.22096589 -15.0625 31.25 C-13.74958984 31.28867187 -13.74958984 31.28867187 -12.41015625 31.328125 C-9.96211484 31.17555171 -9.96211484 31.17555171 -8.12109375 29.734375 C-6.75139685 28.03144057 -6.75139685 28.03144057 -7.3125 25.8125 C-7.539375 25.214375 -7.76625 24.61625 -8 24 C-9.02480469 23.78085937 -10.04960937 23.56171875 -11.10546875 23.3359375 C-23.4001371 20.51973845 -23.4001371 20.51973845 -26.375 17.125 C-28.81326673 12.43602551 -29.27415121 9.590077 -28.375 4.375 C-26.81364197 0.54257575 -25.48728759 -0.84120292 -22 -3 C-14.32447743 -6.1760783 -7.04202185 -3.23240347 0 0 Z " fill="#163058" transform="translate(376,264)"/>
<path d="M0 0 C8.91 0 17.82 0 27 0 C27 2.64 27 5.28 27 8 C20.4 8 13.8 8 7 8 C7 11.63 7 15.26 7 19 C12.61 19 18.22 19 24 19 C24 20.98 24 22.96 24 25 C18.39 25 12.78 25 7 25 C7 28.63 7 32.26 7 36 C13.6 36 20.2 36 27 36 C27 38.31 27 40.62 27 43 C18.09 43 9.18 43 0 43 C0 28.81 0 14.62 0 0 Z " fill="#173058" transform="translate(1285,260)"/>
<path d="M0 0 C2.31 0 4.62 0 7 0 C7 6.27 7 12.54 7 19 C12.28 19 17.56 19 23 19 C23 12.73 23 6.46 23 0 C25.31 0 27.62 0 30 0 C30 14.19 30 28.38 30 43 C27.69 43 25.38 43 23 43 C23 37.06 23 31.12 23 25 C17.72 25 12.44 25 7 25 C7 30.94 7 36.88 7 43 C4.69 43 2.38 43 0 43 C0 28.81 0 14.62 0 0 Z " fill="#173058" transform="translate(426,260)"/>
<path d="M0 0 C2.31 0 4.62 0 7 0 C9.14033196 5.80090681 11.27647133 11.60333318 13.40869141 17.40722656 C14.13507072 19.38258831 14.86260633 21.35752525 15.59130859 23.33203125 C16.63681405 26.16556439 17.67819017 29.00058506 18.71875 31.8359375 C19.04685669 32.72243988 19.37496338 33.60894226 19.7130127 34.52230835 C20.01332397 35.34300812 20.31363525 36.16370789 20.62304688 37.00927734 C20.88952026 37.73319672 21.15599365 38.45711609 21.43054199 39.20297241 C22 41 22 41 22 43 C19.36 43 16.72 43 14 43 C12.515 38.545 12.515 38.545 11 34 C6.05 34 1.1 34 -4 34 C-4.99 36.97 -5.98 39.94 -7 43 C-9.64 43 -12.28 43 -15 43 C-12.44807178 33.77783981 -9.10843213 24.84934958 -5.8125 15.875 C-5.2477835 14.33082546 -4.68332832 12.78655533 -4.11914062 11.2421875 C-2.74910272 7.49368325 -1.37553937 3.74648876 0 0 Z M3 12 C2.32779649 13.93558599 1.66241923 15.87354372 1 17.8125 C0.62875 18.89144531 0.2575 19.97039062 -0.125 21.08203125 C-1.14361512 23.97120802 -1.14361512 23.97120802 -1 27 C1.97 27 4.94 27 8 27 C6.91266548 21.87399439 5.77362508 16.94081272 4 12 C3.67 12 3.34 12 3 12 Z " fill="#163058" transform="translate(889,260)"/>
<path d="M0 0 C1.4540625 0.0309375 1.4540625 0.0309375 2.9375 0.0625 C6.69217507 8.80993276 10.05624407 17.65882595 13.25 26.625 C13.70881931 27.89393991 14.16780298 29.16282039 14.62695312 30.43164062 C15.05556641 31.63111328 15.48417969 32.83058594 15.92578125 34.06640625 C16.31290283 35.14736572 16.70002441 36.2283252 17.09887695 37.34204102 C17.9375 40.0625 17.9375 40.0625 17.9375 43.0625 C15.2975 43.0625 12.6575 43.0625 9.9375 43.0625 C9.2775 40.0925 8.6175 37.1225 7.9375 34.0625 C2.6575 34.0625 -2.6225 34.0625 -8.0625 34.0625 C-8.7225 37.0325 -9.3825 40.0025 -10.0625 43.0625 C-12.7025 43.0625 -15.3425 43.0625 -18.0625 43.0625 C-17.40507601 37.95486008 -15.91693312 33.44150429 -14.15625 28.63671875 C-13.87148804 27.84852249 -13.58672607 27.06032623 -13.29333496 26.24824524 C-12.69394507 24.59258362 -12.0920526 22.93782609 -11.48779297 21.28393555 C-10.55991325 18.74291612 -9.64069799 16.19888507 -8.72265625 13.65429688 C-8.13852606 12.04408746 -7.55390794 10.43405496 -6.96875 8.82421875 C-6.69268921 8.06074631 -6.41662842 7.29727386 -6.13220215 6.51066589 C-3.774845 0.07703765 -3.774845 0.07703765 0 0 Z M-1.0625 13.0625 C-1.73281719 15.0195868 -2.39864683 16.97821113 -3.0625 18.9375 C-3.43375 20.02804687 -3.805 21.11859375 -4.1875 22.2421875 C-5.161272 24.88870854 -5.161272 24.88870854 -5.0625 27.0625 C-1.7625 27.0625 1.5375 27.0625 4.9375 27.0625 C4.45938823 25.29138156 3.9799722 23.52061517 3.5 21.75 C3.23316406 20.76386719 2.96632813 19.77773438 2.69140625 18.76171875 C2.15670575 16.84732474 1.56605462 14.94816385 0.9375 13.0625 C0.2775 13.0625 -0.3825 13.0625 -1.0625 13.0625 Z " fill="#163058" transform="translate(1134.0625,259.9375)"/>
<path d="M0 0 C1.4540625 0.0309375 1.4540625 0.0309375 2.9375 0.0625 C5.07783196 5.86340681 7.21397133 11.66583318 9.34619141 17.46972656 C10.07257072 19.44508831 10.80010633 21.42002525 11.52880859 23.39453125 C12.57431405 26.22806439 13.61569017 29.06308506 14.65625 31.8984375 C14.98435669 32.78493988 15.31246338 33.67144226 15.6505127 34.58480835 C15.95082397 35.40550812 16.25113525 36.22620789 16.56054688 37.07177734 C16.82702026 37.79569672 17.09349365 38.51961609 17.36804199 39.26547241 C17.9375 41.0625 17.9375 41.0625 17.9375 43.0625 C15.2975 43.0625 12.6575 43.0625 9.9375 43.0625 C8.9475 40.4225 7.9575 37.7825 6.9375 35.0625 C1.9875 34.7325 -2.9625 34.4025 -8.0625 34.0625 C-9.0525 37.0325 -10.0425 40.0025 -11.0625 43.0625 C-13.7025 43.0625 -16.3425 43.0625 -19.0625 43.0625 C-15.33117204 32.31161133 -11.5555878 21.57753308 -7.6875 10.875 C-7.16929688 9.43229736 -7.16929688 9.43229736 -6.640625 7.96044922 C-6.31835938 7.07244629 -5.99609375 6.18444336 -5.6640625 5.26953125 C-5.37869629 4.4803833 -5.09333008 3.69123535 -4.79931641 2.87817383 C-3.57931513 -0.12817126 -3.47538129 0.07092615 0 0 Z M-1.0625 12.0625 C-1.73470351 13.99808599 -2.40008077 15.93604372 -3.0625 17.875 C-3.43375 18.95394531 -3.805 20.03289062 -4.1875 21.14453125 C-5.20611512 24.03370802 -5.20611512 24.03370802 -5.0625 27.0625 C-1.7625 27.0625 1.5375 27.0625 4.9375 27.0625 C3.2875 22.1125 1.6375 17.1625 -0.0625 12.0625 C-0.3925 12.0625 -0.7225 12.0625 -1.0625 12.0625 Z " fill="#163058" transform="translate(1048.0625,259.9375)"/>
<path d="M0 0 C3.54908941 1.94195458 5.22869548 3.3662079 7.3125 6.8125 C8.0625 10.125 8.0625 10.125 8.3125 12.8125 C5.6725 12.8125 3.0325 12.8125 0.3125 12.8125 C0.02375 12.173125 -0.265 11.53375 -0.5625 10.875 C-1.51573451 8.66043921 -1.51573451 8.66043921 -3.6875 7.8125 C-7.14550359 7.39576793 -7.14550359 7.39576793 -10.6875 7.8125 C-12.76297975 9.59216424 -13.57783825 11.05341279 -13.96948242 13.7644043 C-14.09226425 16.12145501 -14.09642798 18.45262018 -14.0625 20.8125 C-14.07410156 21.61945313 -14.08570313 22.42640625 -14.09765625 23.2578125 C-14.08026311 26.77122595 -14.00967852 29.18930096 -12.37890625 32.34375 C-10.61982712 34.13835161 -10.61982712 34.13835161 -7.25 34.3125 C-3.6450848 34.17863064 -3.6450848 34.17863064 -1.75 31.8125 C0.68040975 29.45573903 1.3051213 29.53968124 4.5625 29.5625 C5.8 29.645 7.0375 29.7275 8.3125 29.8125 C7.87784864 34.73854873 5.71623025 37.33141224 2.3125 40.8125 C-1.7455002 43.22536498 -6.06870292 43.38530357 -10.6875 42.8125 C-15.82629492 40.99880768 -18.61811692 38.28502963 -21.6875 33.8125 C-23.66130315 25.06608478 -24.13210951 14.19937532 -20.6875 5.8125 C-14.77775845 -0.81048622 -8.68356611 -2.79640264 0 0 Z " fill="#163058" transform="translate(407.6875,261.1875)"/>
<path d="M0 0 C8.91 0 17.82 0 27 0 C27 2.64 27 5.28 27 8 C20.4 8 13.8 8 7 8 C7 11.63 7 15.26 7 19 C12.61 19 18.22 19 24 19 C24 21.31 24 23.62 24 26 C18.39 26 12.78 26 7 26 C7 31.61 7 37.22 7 43 C4.69 43 2.38 43 0 43 C0 28.81 0 14.62 0 0 Z " fill="#173058" transform="translate(651,260)"/>
<path d="M0 0 C2.64 0 5.28 0 8 0 C8 11.88 8 23.76 8 36 C14.6 36 21.2 36 28 36 C28 38.31 28 40.62 28 43 C18.76 43 9.52 43 0 43 C0 28.81 0 14.62 0 0 Z " fill="#173058" transform="translate(918,260)"/>
<path d="M0 0 C10.23 0 20.46 0 31 0 C31 2.31 31 4.62 31 7 C27.04 7 23.08 7 19 7 C19 18.88 19 30.76 19 43 C16.69 43 14.38 43 12 43 C12 31.12 12 19.24 12 7 C8.04 7 4.08 7 0 7 C0 4.69 0 2.38 0 0 Z " fill="#173058" transform="translate(1363,260)"/>
<path d="M0 0 C2.31 0 4.62 0 7 0 C7 11.88 7 23.76 7 36 C13.93 36 20.86 36 28 36 C28 38.31 28 40.62 28 43 C18.76 43 9.52 43 0 43 C0 28.81 0 14.62 0 0 Z " fill="#173058" transform="translate(548,260)"/>
<path d="M0 0 C2.31 0 4.62 0 7 0 C7 11.88 7 23.76 7 36 C13.6 36 20.2 36 27 36 C27 38.31 27 40.62 27 43 C18.09 43 9.18 43 0 43 C0 28.81 0 14.62 0 0 Z " fill="#173058" transform="translate(760,260)"/>
<path d="M0 0 C3.6875 0.3125 3.6875 0.3125 6.125 1.9375 C8.14682313 5.01067115 8.21505517 6.69497881 7.6875 10.3125 C6.6875 12.6875 6.6875 12.6875 4.6875 14.3125 C1.10411679 14.97691897 -2.09817803 15.05676185 -5.25 13.125 C-6.65064633 10.73566214 -7.17996284 9.09578027 -7.3125 6.3125 C-4.36200495 0.4115099 -4.36200495 0.4115099 0 0 Z M-2.3125 2.3125 C-2.3125 2.6425 -2.3125 2.9725 -2.3125 3.3125 C-0.6625 3.3125 0.9875 3.3125 2.6875 3.3125 C2.6875 2.9825 2.6875 2.6525 2.6875 2.3125 C1.0375 2.3125 -0.6125 2.3125 -2.3125 2.3125 Z M-3.3125 3.3125 C-3.9725 4.9625 -4.6325 6.6125 -5.3125 8.3125 C-4.3225 9.3025 -3.3325 10.2925 -2.3125 11.3125 C-2.3125 8.6725 -2.3125 6.0325 -2.3125 3.3125 C-2.6425 3.3125 -2.9725 3.3125 -3.3125 3.3125 Z M3.6875 3.3125 C3.6875 5.9525 3.6875 8.5925 3.6875 11.3125 C4.3475 10.9825 5.0075 10.6525 5.6875 10.3125 C5.3575 8.0025 5.0275 5.6925 4.6875 3.3125 C4.3575 3.3125 4.0275 3.3125 3.6875 3.3125 Z M-0.3125 9.3125 C-0.3125 9.9725 -0.3125 10.6325 -0.3125 11.3125 C-1.3025 11.8075 -1.3025 11.8075 -2.3125 12.3125 C-1.3225 12.6425 -0.3325 12.9725 0.6875 13.3125 C1.6775 12.6525 2.6675 11.9925 3.6875 11.3125 C2.6975 11.3125 1.7075 11.3125 0.6875 11.3125 C0.3575 10.6525 0.0275 9.9925 -0.3125 9.3125 Z " fill="#163059" transform="translate(303.3125,87.6875)"/>
</svg>
