<?xml version="1.0" encoding="utf-8"?>
<!-- Generator: Adobe Illustrator 25.4.1, SVG Export Plug-In . SVG Version: 6.00 Build 0)  -->
<svg version="1.1" xmlns="http://www.w3.org/2000/svg" xmlns:xlink="http://www.w3.org/1999/xlink" x="0px" y="0px"
	 viewBox="0 0 205 100" style="enable-background:new 0 0 205 100;" xml:space="preserve">
<g>
	<g>
		<g>
			<path style="fill:#002E5F;" d="M140,58.15c0-1.97,0.01-3.94,0.01-5.91c0-4.15,0-8.31,0-12.46c0-0.21-0.04-0.43,0.04-0.64
				c4.06,0,8.11-0.01,12.17,0.01c0.5,0,0.86-0.29,1.31-0.42c0-0.47,0-0.94,0-1.44c-1.48,0-2.95,0-4.54,0
				c0.46-0.67,0.86-1.25,1.27-1.85c1.53,0,3.04,0,4.5,0c0.25-0.12,0.3-0.31,0.52-0.56c-0.85,0-1.57,0-2.3,0
				c-0.02-0.04-0.03-0.09-0.05-0.13c0.51-0.59,1.02-1.19,1.51-1.76c2.76,0,5.48,0,8.34,0c-0.93,0.76-1.74,1.43-2.56,2.1
				c-0.01,0.24-0.03,0.47-0.04,0.74c-0.3,0.44-0.62,0.91-0.95,1.4c-0.03,0.46-0.06,0.94-0.02,1.42c0.6,0.36,1.21,0.52,1.91,0.51
				c3.73-0.03,7.46-0.01,11.19-0.01c0.21,0,0.42,0,0.68,0c0,6.35,0,12.67,0,19.03c-1.48,0-2.99,0-4.54,0c0-1.08,0-2.16,0-3.31
				c-1.4,0-2.75,0-4.15,0c0-1.16,0-2.27,0-3.4c-0.52,0-1,0-1.53,0c-1.08,1.3-2.47,2.24-4.18,2.76c1.67,3.72,3.32,7.39,5,11.12
				c-4.85,0-9.65,0-14.53,0c1.72-3.73,3.43-7.43,5.16-11.16c-1.66-0.52-3.02-1.42-4.1-2.74c-0.51,0-1.01,0-1.57,0
				c0,1.12,0,2.22,0,3.37c-1.4,0-2.74,0-4.14,0c0,1.13,0,2.21,0,3.22c-0.11,0.14-0.19,0.15-0.27,0.15c-1.27,0-2.54,0-3.81,0
				C140.22,58.21,140.11,58.17,140,58.15z M150.2,42.65c0.53,0.03,0.97-0.31,1.48-0.39c0.2-0.62,0.39-1.21,0.58-1.8
				c-0.81,0.63-1.62,1.24-2.04,2.2c-0.01,0.02-0.03,0.04-0.04,0.07C150.23,42.72,150.23,42.69,150.2,42.65z M152.18,52.16
				c0.02,0.02,0.04,0.05,0.07,0.07c0-0.06,0.01-0.12-0.08-0.06c-0.03-0.63-0.37-1.16-0.48-1.79c-0.53-0.1-0.99-0.37-1.59-0.45
				C150.65,50.91,151.27,51.68,152.18,52.16z M160.36,52.27c0.81-0.2,1.92-1.36,2.24-2.36c-0.56,0.18-1.1,0.36-1.67,0.55
				c-0.18,0.6-0.37,1.21-0.56,1.82c-0.02,0.02-0.04,0.04-0.1,0.11C160.36,52.34,160.42,52.35,160.36,52.27z M157.66,46.81
				c-0.94,0-1.8,0-2.7,0c-0.02,1.09,0.11,2.14,0.34,3.19c0.72,0,1.39,0,2.05,0C157.59,48.95,157.62,47.9,157.66,46.81z
				 M157.34,42.66c-0.7-0.02-1.38-0.06-2.07,0.04c-0.17,1.08-0.36,2.12-0.32,3.19c0.92,0,1.79,0,2.69,0
				C157.62,44.79,157.55,43.73,157.34,42.66z M160.27,43.03c-0.64-0.09-1.22-0.3-1.88-0.23c0.19,1.05,0.27,2.07,0.33,3.09
				c0.69,0,1.32,0,1.98,0C160.63,44.91,160.52,43.98,160.27,43.03z M158.71,46.82c-0.03,1.05-0.13,2.06-0.3,3.14
				c0.68-0.16,1.31-0.14,1.9-0.39c0.22-0.91,0.34-1.81,0.38-2.75C160.03,46.82,159.41,46.82,158.71,46.82z M154.27,42.76
				c-0.71,0.1-1.33,0.16-1.94,0.37c-0.19,0.93-0.37,1.84-0.37,2.76c0.69,0,1.31,0,1.94,0C154.02,44.85,154.04,43.84,154.27,42.76z
				 M154.29,49.88c-0.23-1.06-0.25-2.07-0.38-3.08c-0.67-0.02-1.29-0.04-1.95,0.02c0.03,0.94,0.15,1.84,0.38,2.72
				C152.95,49.72,153.57,49.82,154.29,49.88z M161.15,43.26c0.25,0.9,0.21,1.79,0.35,2.63c0.73,0,1.39,0,2.09,0
				c-0.07-0.7-0.13-1.35-0.4-1.95C162.55,43.66,161.9,43.45,161.15,43.26z M161.17,49.4c0.75-0.21,1.41-0.39,2.01-0.7
				c0.2-0.63,0.34-1.23,0.38-1.88c-0.68,0-1.35,0-2.07,0C161.39,47.64,161.37,48.47,161.17,49.4z M149.59,43.98
				c-0.2,0.62-0.36,1.25-0.36,1.92c0.66,0,1.28,0,1.93,0c0.08-0.86,0.13-1.68,0.29-2.58C150.77,43.54,150.16,43.69,149.59,43.98z
				 M155.26,53.53c-0.28-0.92-0.54-1.76-0.79-2.59c-0.63-0.1-1.21-0.19-1.84-0.28c0.23,0.82,0.53,1.57,0.86,2.29
				C154.05,53.22,154.6,53.41,155.26,53.53z M151.15,46.83c-0.66,0-1.26,0-1.88,0c-0.02,0.67,0.13,1.26,0.32,1.87
				c0.59,0.24,1.18,0.49,1.85,0.59C151.26,48.44,151.25,47.64,151.15,46.83z M159.95,41.94c-0.21-0.82-0.51-1.54-0.82-2.27
				c-0.56-0.24-1.12-0.46-1.76-0.5c0.33,0.85,0.54,1.7,0.79,2.51C158.76,41.76,159.32,41.84,159.95,41.94z M155.24,39.17
				c-0.67,0.13-1.22,0.27-1.76,0.53c-0.29,0.72-0.61,1.44-0.8,2.28c0.63-0.1,1.21-0.19,1.79-0.28
				C154.72,40.87,154.97,40.06,155.24,39.17z M159.13,53.02c0.31-0.78,0.66-1.51,0.85-2.34c-0.65,0.1-1.21,0.19-1.76,0.27
				c-0.25,0.85-0.48,1.66-0.73,2.52C158.08,53.45,158.58,53.22,159.13,53.02z M156.32,53.68c0.39-0.86,0.69-1.72,0.82-2.64
				c-0.57,0-1.08,0-1.64,0C155.7,51.96,155.87,52.85,156.32,53.68z M155.5,41.63c0.59-0.06,1.12,0.04,1.66-0.08
				c-0.19-0.87-0.35-1.7-0.63-2.48c-0.16-0.03-0.27-0.05-0.38,0.07C155.91,39.92,155.69,40.72,155.5,41.63z M162.6,42.72
				c-0.5-0.98-1.55-2.03-2.23-2.27c0.19,0.58,0.37,1.14,0.56,1.72C161.46,42.34,161.98,42.51,162.6,42.72z"/>
		</g>
	</g>
</g>
<polygon style="fill:#F7BE3D;" points="105,0 105,40 114,49.5 114,9 196,9 196,91 114,91 114,49.5 105,59 105,100 205,100 205,0 "/>
<path style="fill:#2A6FAA;" d="M100,40V0H0v100h100V59l9-9.5L100,40z M91,91H9V9h82V91z"/>
<g>
	<path style="fill:#002E5F;" d="M25.77,47.56c-1.03,0-1.93-0.23-2.7-0.7c-0.77-0.47-1.37-1.12-1.79-1.95
		c-0.43-0.83-0.64-1.8-0.64-2.89c0-1.13,0.23-2.11,0.68-2.96c0.45-0.84,1.08-1.5,1.88-1.96c0.8-0.47,1.72-0.7,2.76-0.7
		c0.73,0,1.39,0.11,1.97,0.33c0.58,0.22,1.08,0.52,1.49,0.9s0.73,0.8,0.95,1.28c0.22,0.48,0.33,0.97,0.35,1.47h-3.06
		c-0.06-0.3-0.17-0.56-0.32-0.8c-0.15-0.24-0.34-0.42-0.58-0.56s-0.53-0.21-0.87-0.21c-0.36,0-0.69,0.1-1,0.29
		c-0.31,0.19-0.57,0.52-0.76,0.97c-0.19,0.45-0.29,1.07-0.29,1.85c0,0.67,0.07,1.2,0.21,1.61c0.14,0.41,0.31,0.72,0.53,0.93
		c0.22,0.22,0.45,0.36,0.71,0.44s0.5,0.11,0.73,0.11c0.21,0,0.4-0.03,0.57-0.09s0.33-0.14,0.47-0.24c0.14-0.1,0.25-0.21,0.34-0.33
		s0.16-0.24,0.2-0.37l0.13-0.39h-1.89v-1.97l4.97,0.03v5.74h-1.91v-1.2c-0.18,0.19-0.4,0.38-0.65,0.59
		c-0.25,0.21-0.57,0.39-0.97,0.54C26.87,47.48,26.38,47.56,25.77,47.56z"/>
	<path style="fill:#002E5F;" d="M35.45,47.57c-0.72,0-1.28-0.08-1.68-0.23c-0.4-0.15-0.69-0.35-0.87-0.6s-0.29-0.52-0.33-0.81
		c-0.04-0.3-0.06-0.59-0.06-0.87v-8.82h2.86v8.42c0,0.19,0.05,0.36,0.14,0.53s0.34,0.28,0.74,0.33l0.32,0.03v1.77
		c-0.18,0.07-0.36,0.12-0.54,0.17C35.83,47.55,35.64,47.57,35.45,47.57z"/>
	<path style="fill:#002E5F;" d="M41.23,47.56c-0.8,0-1.5-0.17-2.08-0.51c-0.59-0.34-1.04-0.81-1.37-1.41s-0.48-1.29-0.48-2.06
		c0-0.82,0.17-1.53,0.51-2.14s0.8-1.09,1.4-1.43c0.59-0.34,1.28-0.51,2.05-0.51c0.81,0,1.51,0.18,2.1,0.53
		c0.59,0.35,1.04,0.84,1.36,1.45s0.48,1.32,0.48,2.1c0,0.77-0.16,1.46-0.48,2.05s-0.78,1.07-1.37,1.41
		C42.74,47.38,42.04,47.56,41.23,47.56z M41.25,45.44c0.31,0,0.54-0.11,0.7-0.32c0.16-0.21,0.26-0.47,0.31-0.78
		c0.05-0.31,0.08-0.6,0.08-0.87c0-0.28-0.03-0.57-0.08-0.86c-0.05-0.29-0.16-0.54-0.31-0.74c-0.16-0.2-0.39-0.3-0.7-0.3
		c-0.32,0-0.55,0.1-0.71,0.3c-0.16,0.2-0.26,0.44-0.32,0.74s-0.08,0.58-0.08,0.86c0,0.28,0.03,0.57,0.08,0.87s0.16,0.56,0.32,0.78
		C40.7,45.33,40.93,45.44,41.25,45.44z"/>
	<path style="fill:#002E5F;" d="M51.07,47.56c-0.31,0-0.6-0.04-0.85-0.12c-0.25-0.08-0.47-0.2-0.66-0.35
		c-0.19-0.15-0.36-0.33-0.5-0.55c-0.14-0.22-0.25-0.46-0.34-0.73l-0.35,1.59h-2.06V36.25h2.93v4.28c0.12-0.2,0.26-0.37,0.43-0.5
		c0.17-0.13,0.34-0.24,0.54-0.32c0.19-0.08,0.39-0.13,0.59-0.17c0.2-0.03,0.4-0.05,0.59-0.05c0.96,0,1.7,0.36,2.23,1.07
		c0.53,0.71,0.79,1.68,0.79,2.91c0,0.83-0.13,1.54-0.39,2.15c-0.26,0.61-0.63,1.09-1.13,1.42S51.79,47.56,51.07,47.56z M50.38,45.51
		c0.33,0,0.61-0.15,0.85-0.45s0.35-0.83,0.35-1.6c0-0.72-0.12-1.22-0.35-1.5c-0.24-0.28-0.52-0.42-0.85-0.42
		c-0.23,0-0.42,0.06-0.6,0.19c-0.17,0.13-0.31,0.33-0.4,0.62c-0.1,0.28-0.14,0.65-0.14,1.12c0,0.77,0.1,1.3,0.32,1.6
		S50.04,45.51,50.38,45.51z"/>
	<path style="fill:#002E5F;" d="M57.87,47.56c-0.49,0-0.93-0.1-1.34-0.29c-0.41-0.19-0.73-0.47-0.98-0.84
		c-0.24-0.37-0.36-0.82-0.36-1.36c0-0.84,0.33-1.49,1-1.96c0.67-0.47,1.71-0.7,3.12-0.7h0.6v-0.33c0-0.25-0.07-0.43-0.21-0.55
		c-0.14-0.12-0.35-0.17-0.65-0.16c-0.2,0-0.42,0.05-0.66,0.14c-0.24,0.09-0.42,0.27-0.54,0.53h-2.37c0.03-0.61,0.21-1.1,0.55-1.48
		c0.34-0.38,0.78-0.65,1.33-0.83c0.55-0.17,1.16-0.26,1.82-0.26c0.9,0,1.61,0.1,2.12,0.31c0.51,0.21,0.87,0.49,1.08,0.85
		c0.21,0.36,0.32,0.78,0.32,1.26v5.5h-2.42l-0.25-1.23c-0.23,0.53-0.52,0.89-0.86,1.08C58.84,47.46,58.4,47.56,57.87,47.56z
		 M58.9,45.71c0.14,0,0.27-0.03,0.39-0.08c0.12-0.05,0.23-0.12,0.32-0.21c0.09-0.09,0.16-0.19,0.21-0.3
		c0.05-0.11,0.08-0.23,0.09-0.35V43.8h-0.47c-0.16,0-0.35,0.03-0.59,0.09c-0.24,0.06-0.45,0.16-0.64,0.3
		c-0.19,0.14-0.28,0.34-0.28,0.59c0,0.29,0.1,0.52,0.3,0.68S58.65,45.71,58.9,45.71z"/>
	<path style="fill:#002E5F;" d="M67.22,47.57c-0.72,0-1.28-0.08-1.68-0.23c-0.4-0.15-0.69-0.35-0.87-0.6s-0.29-0.52-0.33-0.81
		c-0.04-0.3-0.06-0.59-0.06-0.87v-8.82h2.86v8.42c0,0.19,0.05,0.36,0.14,0.53s0.34,0.28,0.74,0.33l0.32,0.03v1.77
		c-0.18,0.07-0.36,0.12-0.54,0.17C67.6,47.55,67.41,47.57,67.22,47.57z"/>
	<path style="fill:#002E5F;" d="M80.17,40.9v2.07h-7.64V40.9H80.17z M77.4,45.75h-2.07v-7.64h2.07V45.75z"/>
	<path style="fill:#002E5F;" d="M21.01,52.55c0.08,0,0.28,0,0.6,0s0.69,0,1.12,0c0.42,0,0.83,0,1.24,0c0.4,0,0.72,0.01,0.95,0.02
		c1.31,0.05,2.37,0.3,3.2,0.77c0.83,0.46,1.44,1.09,1.83,1.88c0.39,0.79,0.59,1.7,0.59,2.72c0,1.06-0.2,2-0.61,2.82
		c-0.41,0.82-1.02,1.47-1.85,1.94s-1.89,0.71-3.17,0.71h-3.89V52.55z M23.93,54.84v6.26h1.06c0.37,0,0.75-0.1,1.13-0.31
		c0.38-0.21,0.71-0.55,0.97-1.02c0.26-0.47,0.39-1.1,0.39-1.88c0-0.67-0.1-1.22-0.31-1.68c-0.21-0.45-0.5-0.79-0.88-1.03
		s-0.81-0.35-1.31-0.35H23.93z"/>
	<path style="fill:#002E5F;" d="M34.78,52.55v2.46H32v-2.46H34.78z M34.78,55.64v7.76H32v-7.76H34.78z"/>
	<path style="fill:#002E5F;" d="M40.17,65.97c-1.53,0-2.67-0.17-3.42-0.52s-1.13-0.77-1.13-1.26c0-0.25,0.07-0.46,0.22-0.62
		c0.15-0.16,0.32-0.29,0.51-0.38s0.37-0.16,0.53-0.2s0.26-0.06,0.29-0.07c-0.07-0.04-0.2-0.11-0.38-0.2
		c-0.17-0.09-0.34-0.23-0.49-0.41s-0.23-0.41-0.23-0.69c0-0.31,0.15-0.6,0.44-0.86c0.29-0.26,0.74-0.43,1.35-0.51
		c-0.56-0.25-0.98-0.6-1.25-1.04s-0.41-0.87-0.41-1.28c0-0.52,0.18-0.96,0.55-1.32c0.37-0.36,0.85-0.63,1.45-0.82
		c0.6-0.18,1.25-0.28,1.96-0.28c0.56,0,1,0.05,1.34,0.17c0.34,0.11,0.65,0.24,0.94,0.39c0.15-0.06,0.32-0.12,0.52-0.2
		c0.2-0.08,0.42-0.16,0.65-0.25c0.23-0.09,0.47-0.18,0.7-0.28c0.24-0.1,0.46-0.19,0.68-0.28l-0.01,2.07l-1.32,0.18
		c0.03,0.11,0.05,0.23,0.07,0.35c0.01,0.12,0.02,0.21,0.02,0.25c0,0.44-0.14,0.87-0.43,1.27c-0.29,0.41-0.71,0.74-1.27,1.01
		s-1.25,0.39-2.07,0.39c-0.12,0-0.29,0-0.51-0.01c-0.22-0.01-0.4-0.02-0.53-0.03c-0.08,0.02-0.13,0.03-0.16,0.05
		s-0.05,0.05-0.05,0.09c0,0.1,0.11,0.17,0.34,0.19c0.23,0.02,0.53,0.04,0.91,0.07c0.14,0,0.34,0.01,0.63,0.03
		c0.28,0.01,0.59,0.04,0.92,0.06c1.08,0.08,1.86,0.33,2.35,0.77c0.49,0.44,0.74,0.96,0.74,1.56c0,0.75-0.37,1.37-1.11,1.87
		C42.75,65.72,41.64,65.97,40.17,65.97z M40.62,64.44c0.51,0,0.84-0.04,0.99-0.13c0.15-0.09,0.23-0.21,0.23-0.35
		c0-0.17-0.08-0.3-0.25-0.4c-0.17-0.1-0.41-0.16-0.71-0.18l-1.41-0.09c-0.27-0.01-0.48,0.01-0.62,0.06
		c-0.15,0.06-0.25,0.13-0.3,0.23c-0.06,0.09-0.08,0.18-0.08,0.27c0,0.25,0.18,0.41,0.53,0.48C39.33,64.4,39.88,64.44,40.62,64.44z
		 M40.05,59.06c0.28,0,0.51-0.1,0.68-0.29c0.17-0.2,0.25-0.44,0.25-0.73c0-0.29-0.08-0.55-0.25-0.77c-0.17-0.22-0.4-0.33-0.68-0.33
		c-0.28,0-0.5,0.11-0.67,0.33s-0.26,0.47-0.26,0.77c0,0.29,0.09,0.53,0.26,0.73S39.77,59.06,40.05,59.06z"/>
	<path style="fill:#002E5F;" d="M48.65,52.55v2.46h-2.78v-2.46H48.65z M48.65,55.64v7.76h-2.78v-7.76H48.65z"/>
	<path style="fill:#002E5F;" d="M55.58,57.62h-1.7l0.02,3.51c0,0.12,0.02,0.2,0.06,0.26c0.04,0.06,0.1,0.1,0.17,0.12
		c0.07,0.02,0.15,0.03,0.23,0.03h1.22v1.73c-0.1,0.05-0.27,0.1-0.5,0.16c-0.23,0.06-0.58,0.08-1.04,0.08c-0.82,0-1.45-0.1-1.89-0.3
		c-0.44-0.2-0.75-0.47-0.92-0.82c-0.17-0.34-0.26-0.72-0.26-1.13v-3.65H49.7v-1.98h1.37l0.75-2.42h2.06v2.4h1.7V57.62z"/>
	<path style="fill:#002E5F;" d="M59.2,63.55c-0.49,0-0.93-0.1-1.34-0.29c-0.41-0.19-0.73-0.47-0.98-0.84
		c-0.24-0.37-0.36-0.82-0.36-1.36c0-0.84,0.33-1.49,1-1.96c0.67-0.47,1.71-0.7,3.12-0.7h0.6v-0.33c0-0.25-0.07-0.43-0.21-0.55
		c-0.14-0.12-0.35-0.17-0.65-0.16c-0.2,0.01-0.42,0.05-0.66,0.14c-0.24,0.09-0.42,0.27-0.54,0.53h-2.37
		c0.03-0.61,0.21-1.1,0.55-1.48c0.34-0.38,0.78-0.65,1.33-0.83c0.55-0.17,1.16-0.26,1.82-0.26c0.9,0,1.61,0.1,2.12,0.31
		c0.51,0.21,0.87,0.49,1.08,0.85c0.21,0.36,0.32,0.78,0.32,1.26v5.5h-2.42l-0.25-1.23c-0.23,0.53-0.52,0.89-0.86,1.08
		C60.16,63.46,59.73,63.55,59.2,63.55z M60.22,61.71c0.14,0,0.27-0.02,0.39-0.08c0.12-0.05,0.23-0.12,0.32-0.21
		c0.09-0.09,0.16-0.19,0.21-0.3c0.05-0.11,0.08-0.23,0.09-0.35V59.8h-0.47c-0.16,0-0.35,0.03-0.59,0.09s-0.45,0.16-0.64,0.3
		c-0.19,0.14-0.28,0.34-0.28,0.59c0,0.29,0.1,0.52,0.3,0.68C59.75,61.62,59.97,61.71,60.22,61.71z"/>
	<path style="fill:#002E5F;" d="M68.54,63.57c-0.72,0-1.28-0.08-1.68-0.23c-0.4-0.15-0.69-0.35-0.87-0.6
		c-0.18-0.25-0.29-0.52-0.33-0.81c-0.04-0.29-0.06-0.59-0.06-0.87v-8.82h2.86v8.42c0,0.19,0.05,0.36,0.14,0.53
		c0.1,0.17,0.34,0.28,0.74,0.33l0.32,0.03v1.77c-0.18,0.07-0.36,0.12-0.54,0.17C68.92,63.55,68.73,63.57,68.54,63.57z"/>
</g>
</svg>
