<?xml version="1.0" encoding="UTF-8"?>
<svg version="1.1" xmlns="http://www.w3.org/2000/svg" width="461" height="396">
<path d="M0 0 C12.95199262 -0.06948838 25.90394095 -0.12280549 38.85608196 -0.15543652 C44.87018604 -0.17109719 50.88416265 -0.19234309 56.89819336 -0.22631836 C62.70127937 -0.25889704 68.50424271 -0.27684999 74.3074131 -0.28463173 C76.52221419 -0.29017788 78.73700851 -0.30100805 80.95175743 -0.31719017 C84.05221479 -0.33894427 87.15216424 -0.34196772 90.25268555 -0.34057617 C91.16978302 -0.351362 92.08688049 -0.36214783 93.0317688 -0.3732605 C97.86419754 -0.34976743 101.0654658 -0.1273438 105 3 C108.1962441 6.27819908 109.10642954 10.16730516 110.1875 14.5 C110.36474609 15.16386719 110.54199219 15.82773437 110.72460938 16.51171875 C111.57991612 19.82066607 112 22.55473366 112 26 C112.66 26 113.32 26 114 26 C114.185625 25.34 114.37125 24.68 114.5625 24 C119.38396881 13.93780421 128.40568047 8.62804366 138.5 4.75 C150.35432589 0.73186703 162.42613473 -0.16034549 174.86572266 -0.11352539 C175.9010614 -0.11367142 176.93640015 -0.11381744 178.00311279 -0.1139679 C181.39011812 -0.11327697 184.77706691 -0.10552334 188.1640625 -0.09765625 C190.52631602 -0.09578915 192.88856993 -0.09436663 195.25082397 -0.09336853 C201.44196661 -0.08956633 207.63308546 -0.07975583 213.82421875 -0.06866455 C220.15234048 -0.05840086 226.48046608 -0.05386032 232.80859375 -0.04882812 C245.20573957 -0.03813135 257.6028678 -0.02108275 270 0 C270.00496522 0.91937568 270.00496522 0.91937568 270.01003075 1.8573246 C270.09130132 16.78072914 270.18340708 31.70403736 270.28752708 46.62729836 C270.3376186 53.84412142 270.38406186 61.06093333 270.421875 68.27783203 C270.45484768 74.56912088 270.49470794 80.86032223 270.54279006 87.15151441 C270.56800276 90.48171358 270.58877195 93.81184372 270.60334396 97.14210892 C270.62020815 100.86260787 270.64924459 104.58282655 270.68115234 108.30322266 C270.68331253 109.40373962 270.68547272 110.50425659 270.68769836 111.63812256 C270.73795586 119.02530159 270.73795586 119.02530159 273 126 C278.23901144 128.81117687 284.5719655 128.94032891 290.25 127.3828125 C294.34301672 125.68240482 295.6190617 124.81475682 297.58088684 120.61877441 C299.49776024 115.27180696 299.44002099 110.0706326 299.43237305 104.44335938 C299.4425647 103.31077698 299.45275635 102.17819458 299.46325684 101.0112915 C299.49331514 97.28872687 299.50264213 93.5664199 299.51171875 89.84375 C299.52857068 87.25442657 299.54672161 84.6651113 299.56611633 82.07580566 C299.60872328 75.97037082 299.63828374 69.86500209 299.66143972 63.75946665 C299.69121668 56.12080866 299.74109824 48.48229838 299.79101562 40.84375 C299.8798975 27.22921169 299.93853864 13.61475098 300 0 C318.15 0 336.3 0 355 0 C355.02187378 6.62461304 355.02187378 6.62461304 355.04418945 13.38305664 C355.09450484 27.96763345 355.16094434 42.55210378 355.23571491 57.13657475 C355.28065817 65.97995372 355.32007623 74.82329255 355.34643555 83.66674805 C355.36942753 91.37575343 355.40283897 99.08463163 355.44870156 106.79353613 C355.47261763 110.87440619 355.49135698 114.95515042 355.49761391 119.03608894 C355.50367211 122.87995103 355.52369828 126.72349123 355.55427551 130.56723404 C355.56304399 131.97525864 355.56678078 133.38332533 355.56500816 134.79137611 C355.55690643 144.19927055 355.75026371 151.09206491 362.5625 158.125 C365.28904681 160.95122702 366.61369769 163.33558231 368 167 C360.54153868 167.11609586 353.08327369 167.20481645 345.62409019 167.25906086 C342.16003775 167.28510226 338.69660562 167.32039692 335.23291016 167.37719727 C331.24649606 167.44215686 327.26032894 167.46622587 323.2734375 167.48828125 C322.03572601 167.51408768 320.79801453 167.5398941 319.52279663 167.56648254 C309.91873509 167.56960727 309.91873509 167.56960727 306.25634766 164.67651367 C303.85714698 161.83054559 302.83887236 159.60715115 302 156 C301.0925 156.886875 300.185 157.77375 299.25 158.6875 C286.34708643 169.77717317 268.95034954 168.75503012 253 168 C240.77484328 166.85148275 229.22100813 162.25784281 221.125 152.8125 C220 151 220 151 220 149 C219.53851563 149.43570313 219.07703125 149.87140625 218.6015625 150.3203125 C204.38192606 163.30345882 188.0448298 167.20029449 169.10546875 167.11352539 C167.83087547 167.11374443 167.83087547 167.11374443 166.53053284 167.1139679 C163.74949502 167.11327672 160.96852597 167.10552192 158.1875 167.09765625 C156.24837277 167.09578924 154.30924506 167.09436667 152.37011719 167.09336853 C147.28699421 167.08956564 142.20390018 167.07975454 137.12078857 167.06866455 C131.92558178 167.05840236 126.73037027 167.05386064 121.53515625 167.04882812 C111.35675817 167.03813013 101.1783815 167.02108068 91 167 C87.8289504 157.4868512 85.43208402 147.72833608 83 138 C67.16 137.67 51.32 137.34 35 137 C34.34 140.63 33.68 144.26 33 148 C32.33586389 151.02996438 31.65790916 154.04664264 30.9375 157.0625 C30.76412109 157.80693359 30.59074219 158.55136719 30.41210938 159.31835938 C29.12848268 164.74303464 29.12848268 164.74303464 28 167 C10.84 167 -6.32 167 -24 167 C-19.40799808 146.33599134 -19.40799808 146.33599134 -16.80786133 136.06787109 C-16.5162764 134.90766449 -16.22469147 133.74745789 -15.92427063 132.55209351 C-15.30115299 130.07375485 -14.67696533 127.59568501 -14.05176735 125.11787033 C-13.06136755 121.19151808 -12.07439123 117.26432019 -11.08854675 113.33682251 C-8.28855543 102.18467493 -5.48274798 91.03399468 -2.6730957 79.88427734 C-1.11270582 73.69192453 0.44425674 67.49871978 1.99760419 61.30459654 C2.81594618 58.04210879 3.63610032 54.78010053 4.46065331 51.51917648 C5.37675513 47.89324538 6.28703041 44.26589692 7.19604492 40.63818359 C7.46668762 39.57313599 7.73733032 38.50808838 8.01617432 37.4107666 C11.39164632 24.5023714 11.39164632 24.5023714 8 12 C5.99385129 9.50811056 3.9001055 7.21307904 1.64453125 4.9453125 C0 3 0 3 0 0 Z M59 41 C54.98435959 54.94837049 51.52424354 69.0005967 48.1875 83.125 C47.68065047 85.25918869 47.1734908 87.39330374 46.66601562 89.52734375 C45.43987584 94.68393164 44.22006731 99.84195714 43 105 C53.56 105 64.12 105 75 105 C74.37853417 100.02827334 73.80237277 95.71210827 72.60131836 90.95117188 C72.32110336 89.83061401 72.04088837 88.71005615 71.75218201 87.55554199 C71.45111038 86.37190063 71.15003876 85.18825928 70.83984375 83.96875 C70.53051407 82.73709106 70.22118439 81.50543213 69.90248108 80.2364502 C69.08553064 76.9871613 68.26451904 73.73895573 67.44146729 70.49121094 C66.60009459 67.16688699 65.76415389 63.84119796 64.92773438 60.515625 C63.29012275 54.00915649 61.64713724 47.5040632 60 41 C59.67 41 59.34 41 59 41 Z " fill="#8C0C42" transform="translate(29,34)"/>
<path d="M0 0 C0.99 0 1.98 0 3 0 C1.74577315 3.98792946 0.28484419 7.66949404 -1.6015625 11.3984375 C-2.09140625 12.37167969 -2.58125 13.34492187 -3.0859375 14.34765625 C-3.84777344 15.84619141 -3.84777344 15.84619141 -4.625 17.375 C-5.140625 18.39722656 -5.65625 19.41945313 -6.1875 20.47265625 C-7.45471873 22.98362669 -8.72564556 25.49264561 -10 28 C-6.61747304 25.33843793 -3.37129047 22.58325773 -0.1875 19.6875 C0.67617187 18.90890625 1.53984375 18.1303125 2.4296875 17.328125 C4.06637034 15.84565848 5.69725224 14.35674373 7.3203125 12.859375 C8.36832031 11.90804687 8.36832031 11.90804687 9.4375 10.9375 C10.05496094 10.36902344 10.67242187 9.80054688 11.30859375 9.21484375 C13 8 13 8 16 8 C14.70548234 11.6148347 13.17901545 14.33206366 10.77734375 17.3203125 C9.84631836 18.49400391 9.84631836 18.49400391 8.89648438 19.69140625 C8.25001953 20.49449219 7.60355469 21.29757813 6.9375 22.125 C5.65118038 23.72875628 4.36845628 25.33540494 3.08984375 26.9453125 C2.52128662 27.65187988 1.95272949 28.35844727 1.36694336 29.08642578 C-0.18241164 31.05703416 -0.18241164 31.05703416 -1 34 C-0.46109131 33.65743164 0.07781738 33.31486328 0.63305664 32.96191406 C3.10850565 31.38964431 5.58548914 29.81980791 8.0625 28.25 C8.91005859 27.71117188 9.75761719 27.17234375 10.63085938 26.6171875 C24.23971037 18 24.23971037 18 27 18 C23.72050355 25.64640488 15.88238509 31.26200519 9.62890625 36.4921875 C7.7642126 38.10040045 7.7642126 38.10040045 6 41 C6.69561035 40.70230713 7.3912207 40.40461426 8.10791016 40.09790039 C11.27742949 38.74598397 14.45112859 37.40416537 17.625 36.0625 C18.71941406 35.59392578 19.81382812 35.12535156 20.94140625 34.64257812 C22.00488281 34.19462891 23.06835938 33.74667969 24.1640625 33.28515625 C25.13811035 32.87144775 26.1121582 32.45773926 27.11572266 32.03149414 C30.07918468 30.97168146 32.88681408 30.42195581 36 30 C34.7460528 33.76184159 33.5145593 34.22083388 30.1953125 36.28515625 C28.73158203 37.20458008 28.73158203 37.20458008 27.23828125 38.14257812 C26.21089844 38.77615234 25.18351562 39.40972656 24.125 40.0625 C22.10676787 41.32421402 20.08853858 42.58593257 18.0703125 43.84765625 C17.17070801 44.40461182 16.27110352 44.96156738 15.34423828 45.53540039 C13.54374447 46.66028712 11.76644653 47.82236898 10 49 C10.71542969 48.85377197 11.43085938 48.70754395 12.16796875 48.55688477 C15.44468798 47.88898299 18.72232766 47.22570795 22 46.5625 C23.12535156 46.33240234 24.25070312 46.10230469 25.41015625 45.86523438 C31.26481144 44.68403201 37.06016035 43.63329173 43 43 C43 43.66 43 44.32 43 45 C39.21051275 46.69246257 35.42021168 48.38308753 31.62915039 50.07202148 C30.33986328 50.64671315 29.05079878 51.22190452 27.76196289 51.79760742 C25.90829986 52.62550548 24.05384101 53.45159717 22.19921875 54.27734375 C21.08377686 54.77484131 19.96833496 55.27233887 18.8190918 55.78491211 C16 57 16 57 13 58 C13.60360352 57.96970703 14.20720703 57.93941406 14.82910156 57.90820312 C36.98908797 56.80991939 36.98908797 56.80991939 47 57 C47 57.66 47 58.32 47 59 C43.52182631 59.9619614 40.04228696 60.9188924 36.5625 61.875 C35.58861328 62.14441406 34.61472656 62.41382813 33.61132812 62.69140625 C27.76846679 64.29379632 21.92580794 65.7376252 16 67 C17.78257668 68.78257668 20.44348043 68.34126645 22.86328125 68.5 C24.06017578 68.5825 25.25707031 68.665 26.49023438 68.75 C27.75158203 68.8325 29.01292969 68.915 30.3125 69 C32.78797724 69.16341469 35.26325099 69.32994961 37.73828125 69.5 C39.39404175 69.60828125 39.39404175 69.60828125 41.08325195 69.71875 C43.50755852 69.9525159 45.66928899 70.32084305 48 71 C48 71.66 48 72.32 48 73 C45.3226629 74.33866855 43.02888996 74.30293619 40.0390625 74.5 C38.84539062 74.5825 37.65171875 74.665 36.421875 74.75 C35.16890625 74.8325 33.9159375 74.915 32.625 75 C30.15863577 75.16340301 27.69247645 75.32993697 25.2265625 75.5 C23.58034912 75.60828125 23.58034912 75.60828125 21.90087891 75.71875 C18.78726655 75.94850297 18.78726655 75.94850297 15 77 C25.56 79.64 36.12 82.28 47 85 C47 85.66 47 86.32 47 87 C36.44 87 25.88 87 15 87 C18.691875 88.60875 22.38375 90.2175 26.1875 91.875 C27.92036255 92.63079346 27.92036255 92.63079346 29.68823242 93.40185547 C30.60967041 93.80291504 31.5311084 94.20397461 32.48046875 94.6171875 C33.41785889 95.02565918 34.35524902 95.43413086 35.32104492 95.85498047 C37.8663086 96.94285859 40.42558735 97.98330095 43 99 C43 99.66 43 100.32 43 101 C35.1526675 100.48250859 27.64697498 99.32970533 20 97.5 C18.46666016 97.190625 18.46666016 97.190625 16.90234375 96.875 C13.9933901 96.16979911 11.59821797 95.49017547 9 94 C7.24887898 91.12488306 6.67256744 88.26801624 6 85 C-2.8983004 67.51838328 -22.71565849 60.56343035 -40 54 C-57.04773365 47.32129964 -57.04773365 47.32129964 -62 41.75 C-63.45943485 37.73655417 -63.76502023 34.21132495 -63 30 C-60.18641308 25.0989131 -57.19750767 22.97592667 -51.76953125 21.47265625 C-40.47797965 19.54560725 -30.62537873 21.33268901 -20 25 C-17.78863447 22.33583537 -15.58148664 19.66820618 -13.375 17 C-12.44880859 15.88431641 -12.44880859 15.88431641 -11.50390625 14.74609375 C-7.93111067 10.42113068 -4.52963451 6.05504777 -1.34619141 1.43359375 C-0.90194824 0.96050781 -0.45770508 0.48742188 0 0 Z " fill="#FBC439" transform="translate(245,46)"/>
<path d="M0 0 C3.03787988 0.22093672 5.98518939 0.57580554 9 1 C9.65935547 1.07605469 10.31871094 1.15210937 10.99804688 1.23046875 C16.12594796 1.8662732 21.39901965 2.52186824 26 5 C28.39993804 8.15984687 29.53831682 10.99867505 30.828125 14.73828125 C34.48662448 24.92110481 44.6151958 31.07452751 53.9375 35.5 C60.79287299 38.65795697 67.84072582 41.14813233 74.97265625 43.59765625 C93.76046742 50.07667184 93.76046742 50.07667184 99.9375 57.25 C101.49420766 61.27912571 101.88050806 64.75027513 101 69 C98.2861549 74.16922876 94.6243137 76.53034695 89.23828125 78.41992188 C85.40821093 79.41253172 81.68451304 79.39446902 77.75 79.3125 C76.96109375 79.31572266 76.1721875 79.31894531 75.359375 79.32226562 C71.26193143 79.28419816 68.64367428 78.96390701 65 77 C62.51236633 77.30248156 61.27959774 77.73500221 59.44775391 79.47119141 C58.96226074 80.09171387 58.47676758 80.71223633 57.9765625 81.3515625 C57.15671875 82.38216797 57.15671875 82.38216797 56.3203125 83.43359375 C55.76085937 84.15675781 55.20140625 84.87992187 54.625 85.625 C53.51394647 87.03458426 52.40197272 88.4434437 51.2890625 89.8515625 C50.74540039 90.54024414 50.20173828 91.22892578 49.64160156 91.93847656 C48.01471407 93.98152207 46.37861264 96.01351938 44.7109375 98.0234375 C44.2370459 98.59755371 43.7631543 99.17166992 43.27490234 99.76318359 C42 101 42 101 40 101 C40.59072258 97.37941639 41.57559308 94.50026015 43.25 91.2421875 C43.91515625 89.93314453 43.91515625 89.93314453 44.59375 88.59765625 C45.28984375 87.24994141 45.28984375 87.24994141 46 85.875 C46.91838099 84.08160602 47.83512144 82.28737073 48.75 80.4921875 C49.15734375 79.70183105 49.5646875 78.91147461 49.984375 78.09716797 C51.10690974 75.89408063 51.10690974 75.89408063 52 73 C51.17757812 73.7734375 50.35515625 74.546875 49.5078125 75.34375 C30.62811495 93 30.62811495 93 27 93 C28.37452192 89.09941225 30.17060096 86.18406384 32.6953125 82.91796875 C33.76845703 81.52094727 33.76845703 81.52094727 34.86328125 80.09570312 C35.60964844 79.13599609 36.35601562 78.17628906 37.125 77.1875 C37.87910156 76.20845703 38.63320312 75.22941406 39.41015625 74.22070312 C41.26832987 71.80978166 43.13173187 69.40310194 45 67 C36.72684255 71.66372893 28.56814099 76.44459352 20.546875 81.53125 C18 83 18 83 16 83 C16 80 16 80 17.2578125 78.6328125 C17.87398437 78.13523437 18.49015625 77.63765625 19.125 77.125 C23.3803771 73.56861083 27.44774694 69.84617469 31.5 66.0625 C32.13566895 65.47033691 32.77133789 64.87817383 33.42626953 64.26806641 C34.95181315 62.84641434 36.47604599 61.42335592 38 60 C23.53131134 64.05614672 23.53131134 64.05614672 11 71 C9.33382885 71.04063832 7.66611905 71.042721 6 71 C6 70.34 6 69.68 6 69 C8.40814022 67.34723626 10.81259435 65.81501945 13.3125 64.3125 C14.77758369 63.41575648 16.24242619 62.51861879 17.70703125 61.62109375 C18.4335791 61.17878418 19.16012695 60.73647461 19.90869141 60.28076172 C22.79504206 58.51309939 25.64821314 56.6979069 28.5 54.875 C29.3765625 54.31554687 30.253125 53.75609375 31.15625 53.1796875 C32.06890625 52.59574219 32.06890625 52.59574219 33 52 C27.02446735 52.88642282 21.18020076 53.86827832 15.375 55.5625 C10.27126488 57.03344549 5.29127852 57.667143 0 58 C0 57.34 0 56.68 0 56 C8.91 52.04 17.82 48.08 27 44 C16.77 44 6.54 44 -4 44 C-4 43.34 -4 42.68 -4 42 C-3.45174561 41.86424561 -2.90349121 41.72849121 -2.33862305 41.58862305 C0.21207995 40.95623283 2.76228914 40.32187177 5.3125 39.6875 C6.60510742 39.36749023 6.60510742 39.36749023 7.92382812 39.04101562 C14.30815043 37.45086843 20.65890408 35.75434192 27 34 C26.10692139 33.91435791 25.21384277 33.82871582 24.29370117 33.74047852 C20.97798907 33.4208424 17.66261232 33.09807919 14.34741211 32.77319336 C12.91296362 32.63326694 11.47839313 32.49458531 10.04370117 32.35717773 C7.98062273 32.15936786 5.91802556 31.9570743 3.85546875 31.75390625 C2.61434326 31.63345947 1.37321777 31.5130127 0.09448242 31.38891602 C-3 31 -3 31 -6 30 C-6 29.34 -6 28.68 -6 28 C-4.85144531 27.87882812 -3.70289062 27.75765625 -2.51953125 27.6328125 C6.69786644 26.64402626 15.8525756 25.51918356 25 24 C15.36368136 21.20858566 5.70147163 18.55444911 -4 16 C-4 15.34 -4 14.68 -4 14 C5.9 14 15.8 14 26 14 C17.82252875 10.50318193 17.82252875 10.50318193 9.63500977 7.0300293 C8.62237061 6.59086182 7.60973145 6.15169434 6.56640625 5.69921875 C5.52427979 5.25408936 4.48215332 4.80895996 3.40844727 4.3503418 C1 3 1 3 0 0 Z " fill="#FBC539" transform="translate(114,89)"/>
<path d="M0 0 C3.09555267 1.94951305 6.03568167 3.99699487 8.94140625 6.22265625 C7.42468661 10.77281518 3.77249572 12.72322889 -0.05859375 15.22265625 C-2.27692263 14.15457198 -4.28098282 13.0682194 -6.30859375 11.66015625 C-10.51894428 9.4592912 -14.82693137 8.5359909 -19.49609375 9.97265625 C-21.36468704 11.23551731 -21.36468704 11.23551731 -22.05859375 14.22265625 C-21.72859375 14.88265625 -21.39859375 15.54265625 -21.05859375 16.22265625 C-18.83781629 16.89278155 -18.83781629 16.89278155 -16.140625 17.3359375 C-15.13322266 17.53251953 -14.12582031 17.72910156 -13.08789062 17.93164062 C-10.96433611 18.33004885 -8.83933555 18.72083444 -6.71289062 19.10351562 C-0.43638069 20.34445306 3.50074104 21.53077204 7.94140625 26.22265625 C10.23404535 30.18266924 10.33095416 33.70390053 9.94140625 38.22265625 C7.83067487 44.66594153 4.82477028 48.50490747 -0.99609375 51.97265625 C-9.52932351 55.45560717 -20.39147633 55.42375188 -29.05859375 52.22265625 C-34.16035592 49.50384882 -37.43421755 47.47140866 -40.05859375 42.22265625 C-36.75859375 39.91265625 -33.45859375 37.60265625 -30.05859375 35.22265625 C-27.08007812 37.12695312 -27.08007812 37.12695312 -24.1015625 39.03125 C-20.90323547 40.89643116 -18.25712416 41.37949832 -14.62109375 41.41015625 C-13.85925781 41.42433594 -13.09742188 41.43851562 -12.3125 41.453125 C-9.76000913 41.19212507 -8.1962372 40.63678961 -6.05859375 39.22265625 C-5.72859375 38.23265625 -5.39859375 37.24265625 -5.05859375 36.22265625 C-5.38859375 35.56265625 -5.71859375 34.90265625 -6.05859375 34.22265625 C-8.18044679 33.53683914 -8.18044679 33.53683914 -10.7578125 33.07421875 C-11.72009766 32.873125 -12.68238281 32.67203125 -13.67382812 32.46484375 C-15.70172647 32.05745921 -17.73036431 31.65373645 -19.75976562 31.25390625 C-26.60762063 29.81417093 -31.76029583 28.51688327 -35.93359375 22.53515625 C-37.78509342 17.08351832 -37.81869177 12.41849496 -35.93359375 6.97265625 C-28.13060569 -4.47172624 -11.87030038 -6.28427667 0 0 Z " fill="#8C0B41" transform="translate(320.05859375,241.77734375)"/>
<path d="M0 0 C4.95 0 9.9 0 15 0 C15.01458252 1.16571533 15.02916504 2.33143066 15.04418945 3.5324707 C15.10213117 7.85456122 15.17936394 12.17612847 15.26245117 16.49780273 C15.29572002 18.36881014 15.32374585 20.23991838 15.34643555 22.11108398 C15.37994588 24.79975383 15.43225865 27.48749798 15.48828125 30.17578125 C15.49467117 31.01337479 15.5010611 31.85096832 15.50764465 32.71394348 C15.48897504 37.01739236 15.48897504 37.01739236 17.37638855 40.72233582 C19.63616627 42.50061661 21.22149708 42.36689328 24.0625 42.3125 C24.94035156 42.30863281 25.81820313 42.30476563 26.72265625 42.30078125 C29.19662769 42.20899334 29.19662769 42.20899334 31 40 C32.23012397 35.69928017 32.21605262 31.29760581 32.31640625 26.85546875 C32.33718735 26.08568192 32.35796844 25.31589508 32.37937927 24.52278137 C32.44446049 22.07777333 32.50356591 19.63266317 32.5625 17.1875 C32.60572468 15.52407823 32.64934021 13.86066656 32.69335938 12.19726562 C32.80009907 8.13161352 32.90148171 4.06585929 33 0 C37.62 0 42.24 0 47 0 C47.07457346 5.26526855 47.12880098 10.53022455 47.16479492 15.79589844 C47.17981184 17.58436443 47.20023158 19.37279403 47.22631836 21.16113281 C47.26301615 23.74293031 47.27979745 26.32423779 47.29296875 28.90625 C47.30845261 29.69616333 47.32393646 30.48607666 47.33988953 31.29992676 C47.34186138 37.91517818 45.81201369 43.04708881 42.3125 48.75 C36.26019767 54.63872659 29.29224648 56.10631085 21 56 C13.86881304 55.27346841 8.80894685 52.88697315 3.75 47.6875 C-0.07173579 41.81840575 -0.28313082 35.76793048 -0.1953125 29.00390625 C-0.1924826 28.17036118 -0.18965271 27.3368161 -0.18673706 26.47801208 C-0.17562289 23.8393564 -0.15053515 21.20105152 -0.125 18.5625 C-0.11495885 16.76367681 -0.10583499 14.96484825 -0.09765625 13.16601562 C-0.07571235 8.77721045 -0.04124387 4.38866452 0 0 Z " fill="#8B0B42" transform="translate(5,316)"/>
<path d="M0 0 C4.95 0 9.9 0 15 0 C19.28934925 9.97794253 23.0652686 20.11146417 26.78588867 30.3125 C27.82355313 33.15528109 28.86760428 35.99566368 29.91210938 38.8359375 C30.57329797 40.6430897 31.23411912 42.4503764 31.89453125 44.2578125 C32.36316338 45.53109909 32.36316338 45.53109909 32.84126282 46.83010864 C33.12543564 47.61207611 33.40960846 48.39404358 33.70239258 49.19970703 C33.95378494 49.88743195 34.20517731 50.57515686 34.46418762 51.28372192 C35 53 35 53 35 55 C29.72 55 24.44 55 19 55 C18.34 52.03 17.68 49.06 17 46 C10.73 46 4.46 46 -2 46 C-2.99 48.97 -3.98 51.94 -5 55 C-9.95 55 -14.9 55 -20 55 C-18.04528432 48.30546201 -15.90370927 41.73927473 -13.49609375 35.1953125 C-13.17214127 34.30891083 -12.84818878 33.42250916 -12.51441956 32.50924683 C-11.8359738 30.65506224 -11.15610373 28.80139822 -10.47485352 26.94824219 C-9.43300886 24.112777 -8.39687033 21.27527215 -7.36132812 18.4375 C-6.69825328 16.62748082 -6.03485339 14.81758067 -5.37109375 13.0078125 C-4.90853432 11.7405986 -4.90853432 11.7405986 -4.43663025 10.44778442 C-4.14615311 9.65951263 -3.85567596 8.87124084 -3.55639648 8.05908203 C-3.17692116 7.02510788 -3.17692116 7.02510788 -2.78977966 5.97024536 C-1.9724714 3.93132503 -0.98236337 1.96472673 0 0 Z M7 16 C6.16142312 18.60258324 5.32896656 21.20685647 4.5 23.8125 C4.26152344 24.55048828 4.02304687 25.28847656 3.77734375 26.04882812 C2.80059864 29.13255196 2 31.74495809 2 35 C5.63 35 9.26 35 13 35 C11.64746536 28.54945018 9.96939767 22.28894321 8 16 C7.67 16 7.34 16 7 16 Z " fill="#8B0B42" transform="translate(25,240)"/>
<path d="M0 0 C5.60447171 6.72536606 6.5 12.24848791 6.5 21 C-2.74 21 -11.98 21 -21.5 21 C-19.16151858 26.91731018 -19.16151858 26.91731018 -15.5 29 C-10.72718531 28.77007266 -10.72718531 28.77007266 -6.625 26.5625 C-5.42575074 24.98457551 -5.42575074 24.98457551 -4.5 23 C-0.37248551 23.60698743 2.8321148 25.03810791 6.5 27 C3.65921866 33.03666035 0.55694978 36.13714483 -5.5 39 C-11.82333818 40.96670755 -18.5465593 40.681489 -24.64453125 38.11328125 C-29.64987445 35.11007533 -32.7130294 30.46650552 -34.5 25 C-35.46283159 17.08462867 -34.55737583 9.93299171 -30.5 3 C-28 0.5 -28 0.5 -25.5 -1 C-24.860625 -1.391875 -24.22125 -1.78375 -23.5625 -2.1875 C-16.3909903 -5.01264018 -6.40996092 -4.6112474 0 0 Z M-21.5 11 C-21.5 11.66 -21.5 12.32 -21.5 13 C-16.55 13 -11.6 13 -6.5 13 C-8.04042748 8.19695965 -8.04042748 8.19695965 -10.5 6 C-16.00985542 5.14291138 -18.07209104 6.76552423 -21.5 11 Z " fill="#8C0B41" transform="translate(185.5,332)"/>
<path d="M0 0 C5.45777739 3.14673366 7.9398773 7.24995647 10.19140625 13.06640625 C10.59514226 16.39722833 10.44140625 19.77370455 10.44140625 23.12890625 C1.20140625 23.12890625 -8.03859375 23.12890625 -17.55859375 23.12890625 C-15.22011233 29.04621643 -15.22011233 29.04621643 -11.55859375 31.12890625 C-5.57949508 31.10776239 -5.57949508 31.10776239 -1.05859375 27.56640625 C-0.56359375 26.76203125 -0.06859375 25.95765625 0.44140625 25.12890625 C3.92811459 26.23831345 7.21624862 27.39228291 10.44140625 29.12890625 C9.04821604 34.39206927 5.74831493 37.10859529 1.44140625 40.12890625 C-4.33897032 43.01909454 -11.68936138 43.27921858 -17.87109375 41.44140625 C-23.40990763 38.92376358 -27.03139949 35.33924067 -29.66796875 29.796875 C-31.76556842 23.51327598 -31.42284186 16.39889074 -28.99609375 10.25390625 C-23.39556587 -0.74713066 -11.48676724 -3.91076198 0 0 Z M-16.55859375 12.12890625 C-16.88859375 13.11890625 -17.21859375 14.10890625 -17.55859375 15.12890625 C-12.60859375 15.12890625 -7.65859375 15.12890625 -2.55859375 15.12890625 C-4.03498378 10.06881986 -4.03498378 10.06881986 -7.55859375 8.12890625 C-12.07353407 7.43430005 -13.75591397 8.62555653 -16.55859375 12.12890625 Z " fill="#8B0B41" transform="translate(450.55859375,253.87109375)"/>
<path d="M0 0 C5.87494374 3.59511482 8.70023817 8.78335605 10.375 15.3125 C10.95450427 21.39729487 10.30410984 26.86435569 7.375 32.3125 C3.2016417 37.25661367 -1.15243428 40.27226622 -7.625 41.3125 C-15.07872694 41.91360701 -21.62281216 40.79256822 -27.5 35.9375 C-32.8829995 29.28791239 -34.34117959 23.7445012 -33.625 15.3125 C-32.52261054 9.16339184 -30.4127924 5.40956651 -25.5390625 1.50390625 C-18.22470387 -3.04890882 -7.85999714 -3.65615686 0 0 Z M-19.625 13.3125 C-21.21935019 16.50120039 -21.01132834 19.8422058 -20.625 23.3125 C-19.2288245 26.23177604 -17.90297004 28.03452996 -15.625 30.3125 C-9.99060957 30.969337 -9.99060957 30.969337 -5.1875 28.5 C-2.34469646 24.52007504 -2.30112854 21.08960398 -2.625 16.3125 C-4.20224302 12.33183905 -5.03500911 10.70582726 -8.625 8.3125 C-14.17462618 7.46799167 -16.11996588 9.10645905 -19.625 13.3125 Z " fill="#8C0B41" transform="translate(176.625,254.6875)"/>
<path d="M0 0 C3.25 2.1875 3.25 2.1875 5.25 5.1875 C5.49047646 7.86754202 5.62273498 10.45304203 5.6640625 13.13671875 C5.68342865 13.90933548 5.7027948 14.68195221 5.7227478 15.47798157 C5.78248479 17.9435424 5.82890486 20.40915007 5.875 22.875 C5.91318525 24.5475463 5.95223731 26.22007305 5.9921875 27.89257812 C6.08818133 31.99072647 6.17223377 36.08896688 6.25 40.1875 C2.29 40.1875 -1.67 40.1875 -5.75 40.1875 C-6.08 39.5275 -6.41 38.8675 -6.75 38.1875 C-7.884375 38.703125 -9.01875 39.21875 -10.1875 39.75 C-14.9040826 41.49471816 -18.92493108 41.67419098 -23.75 40.1875 C-26.7518409 38.38513946 -29.15702142 36.37345716 -30.75 33.1875 C-31.26191364 28.4460048 -31.46505504 24.4800995 -29.125 20.25 C-22.83366661 14.78647363 -14.9608429 12.77695785 -6.75 13.1875 C-7.41 11.5375 -8.07 9.8875 -8.75 8.1875 C-11.66634129 7.9372843 -11.66634129 7.9372843 -14.75 8.1875 C-15.74 9.6725 -15.74 9.6725 -16.75 11.1875 C-19.7890625 11.48046875 -19.7890625 11.48046875 -23.375 11.375 C-24.56351562 11.34792969 -25.75203125 11.32085937 -26.9765625 11.29296875 C-27.89179688 11.25816406 -28.80703125 11.22335937 -29.75 11.1875 C-28.52366255 3.82947531 -28.52366255 3.82947531 -24.8125 0.75 C-17.45786839 -3.00236307 -7.56859562 -3.65188223 0 0 Z M-13.3125 23 C-14.11816406 23.33644531 -14.92382812 23.67289062 -15.75390625 24.01953125 C-18.08300635 25.08800335 -18.08300635 25.08800335 -18.75 28.1875 C-17.76 29.6725 -17.76 29.6725 -16.75 31.1875 C-12.62509959 30.75054477 -12.62509959 30.75054477 -8.9375 29 C-7.2971301 26.49627752 -7.07678037 24.1285233 -6.75 21.1875 C-9.30112297 21.1875 -10.96969104 21.99593902 -13.3125 23 Z " fill="#8B0B41" transform="translate(386.75,254.8125)"/>
<path d="M0 0 C3.25 2.1875 3.25 2.1875 5.25 5.1875 C5.55297852 8.31030273 5.55297852 8.31030273 5.62890625 12.12109375 C5.64590073 12.79543961 5.6628952 13.46978546 5.68040466 14.16456604 C5.73347064 16.31794898 5.77377937 18.47131514 5.8125 20.625 C5.85654483 22.77501361 5.90337885 24.92488431 5.95530701 27.07472229 C6.00169811 29.02811539 6.03927741 30.98171182 6.07641602 32.93530273 C6.15497649 36.3471099 6.15497649 36.3471099 7.25 40.1875 C2.96 40.1875 -1.33 40.1875 -5.75 40.1875 C-6.08 39.5275 -6.41 38.8675 -6.75 38.1875 C-7.884375 38.703125 -9.01875 39.21875 -10.1875 39.75 C-14.90903439 41.50801813 -18.90464771 41.55603462 -23.75 40.1875 C-27.18615111 38.06732166 -29.55717883 36.09127836 -30.75 32.1875 C-31.19081389 27.63242318 -31.15709723 25.14972981 -29.375 20.9375 C-23.36835268 14.64482185 -15.12333968 13.54381233 -6.75 13.1875 C-7.08 11.2075 -7.41 9.2275 -7.75 7.1875 C-10.39 7.5175 -13.03 7.8475 -15.75 8.1875 C-16.08 9.1775 -16.41 10.1675 -16.75 11.1875 C-20.71 11.1875 -24.67 11.1875 -28.75 11.1875 C-28.51099616 5.09290206 -28.51099616 5.09290206 -26.453125 2.64453125 C-19.41944416 -3.29231322 -8.29245995 -4.0011501 0 0 Z M-13.3125 23 C-14.11816406 23.33644531 -14.92382812 23.67289062 -15.75390625 24.01953125 C-18.08300635 25.08800335 -18.08300635 25.08800335 -18.75 28.1875 C-17.5854799 29.85371425 -17.5854799 29.85371425 -15.75 31.1875 C-13.23250172 31.33518913 -13.23250172 31.33518913 -10.75 30.1875 C-8.35336043 27.96262121 -8.35336043 27.96262121 -6.75 25.1875 C-6.75 23.8675 -6.75 22.5475 -6.75 21.1875 C-9.30112297 21.1875 -10.96969104 21.99593902 -13.3125 23 Z " fill="#8B0B41" transform="translate(259.75,254.8125)"/>
<path d="M0 0 C4.62 0 9.24 0 14 0 C14.34933594 1.50433594 14.69867188 3.00867188 15.05859375 4.55859375 C15.51804019 6.51827348 15.97768588 8.47790651 16.4375 10.4375 C16.66759766 11.43072266 16.89769531 12.42394531 17.13476562 13.44726562 C17.35712891 14.39150391 17.57949219 15.33574219 17.80859375 16.30859375 C18.01282959 17.18314209 18.21706543 18.05769043 18.42749023 18.95874023 C18.81380362 20.97709773 18.81380362 20.97709773 20 22 C20.21934204 21.05362671 20.21934204 21.05362671 20.44311523 20.08813477 C21.10417974 17.24537383 21.77076362 14.40393575 22.4375 11.5625 C22.66759766 10.56927734 22.89769531 9.57605469 23.13476562 8.55273438 C23.35712891 7.60849609 23.57949219 6.66425781 23.80859375 5.69140625 C24.11494751 4.37958374 24.11494751 4.37958374 24.42749023 3.04125977 C25 1 25 1 26 0 C28.18639453 -0.07258946 30.37500389 -0.08373783 32.5625 -0.0625 C34.35880859 -0.04896484 34.35880859 -0.04896484 36.19140625 -0.03515625 C37.11824219 -0.02355469 38.04507813 -0.01195312 39 0 C37.77307797 5.96729766 36.24580207 11.72972526 34.3203125 17.5078125 C34.06627655 18.27753387 33.8122406 19.04725525 33.55050659 19.84030151 C33.01660335 21.45272898 32.48037393 23.06438796 31.94189453 24.67529297 C31.12561576 27.12315345 30.32226391 29.57501265 29.51953125 32.02734375 C28.99557234 33.60442625 28.47085821 35.18125808 27.9453125 36.7578125 C27.7097464 37.48090607 27.4741803 38.20399963 27.23147583 38.94900513 C23.47697484 50.06287865 23.47697484 50.06287865 19.171875 53.4296875 C16.14888125 54.22349521 13.36999416 54.18739988 10.25 54.125 C9.07953125 54.10695313 7.9090625 54.08890625 6.703125 54.0703125 C5.81109375 54.04710937 4.9190625 54.02390625 4 54 C4 50.7 4 47.4 4 44 C6.64 43.34 9.28 42.68 12 42 C8.79052212 30.56196712 5.50573576 19.16603196 1.82958984 7.86791992 C0 2.20183602 0 2.20183602 0 0 Z " fill="#8C0B41" transform="translate(303,330)"/>
<path d="M0 0 C3.58151011 3.14738768 4.96067111 5.70960917 5.40307617 10.5012207 C5.40260574 11.91366329 5.38592551 13.326167 5.35546875 14.73828125 C5.35122391 15.48587204 5.34697906 16.23346283 5.34260559 17.00370789 C5.32589056 19.37784732 5.28825347 21.75111967 5.25 24.125 C5.23494381 25.74022206 5.22125703 27.35545751 5.20898438 28.97070312 C5.1760108 32.91829988 5.12427969 36.86525322 5.0625 40.8125 C0.7725 40.8125 -3.5175 40.8125 -7.9375 40.8125 C-8.2675 31.2425 -8.5975 21.6725 -8.9375 11.8125 C-13.50421088 9.62680466 -13.50421088 9.62680466 -16.9375 9.8125 C-17.79044775 13.56729132 -18.12129707 17.14261494 -18.25390625 20.98828125 C-18.29580078 22.14521484 -18.33769531 23.30214844 -18.38085938 24.49414062 C-18.42017578 25.69232422 -18.45949219 26.89050781 -18.5 28.125 C-18.54318359 29.34251953 -18.58636719 30.56003906 -18.63085938 31.81445312 C-18.73671429 34.81367578 -18.83758997 37.81307343 -18.9375 40.8125 C-22.8975 40.8125 -26.8575 40.8125 -30.9375 40.8125 C-30.9375 27.2825 -30.9375 13.7525 -30.9375 -0.1875 C-26.9775 -0.1875 -23.0175 -0.1875 -18.9375 -0.1875 C-18.9375 0.4725 -18.9375 1.1325 -18.9375 1.8125 C-18.15375 1.3175 -17.37 0.8225 -16.5625 0.3125 C-11.01648678 -1.98240202 -5.61212502 -2.26873139 0 0 Z " fill="#8B0B42" transform="translate(220.9375,254.1875)"/>
<path d="M0 0 C3.22045536 2.90879839 3.88674364 4.95077839 4.16455078 9.32519531 C4.16423603 10.74287798 4.15304951 12.16058674 4.1328125 13.578125 C4.1299826 14.32713074 4.12715271 15.07613647 4.12423706 15.84783936 C4.1130726 18.23205776 4.08797531 20.61589579 4.0625 23 C4.05246535 24.61978623 4.04334035 26.23957836 4.03515625 27.859375 C4.01314555 31.82306246 3.97864175 35.78646681 3.9375 39.75 C-0.0225 39.75 -3.9825 39.75 -8.0625 39.75 C-8.12308594 37.90792969 -8.18367188 36.06585938 -8.24609375 34.16796875 C-8.33049639 31.75780434 -8.41514453 29.34764851 -8.5 26.9375 C-8.53931641 25.72255859 -8.57863281 24.50761719 -8.61914062 23.25585938 C-8.66103516 22.09248047 -8.70292969 20.92910156 -8.74609375 19.73046875 C-8.78275146 18.65692139 -8.81940918 17.58337402 -8.85717773 16.47729492 C-8.95791847 13.65688447 -8.95791847 13.65688447 -10.0625 10.75 C-12.96323181 10.07198966 -12.96323181 10.07198966 -16.0625 9.75 C-18.81689516 12.50439516 -18.37239276 14.21603203 -18.4765625 18.0703125 C-18.53457031 19.95556641 -18.53457031 19.95556641 -18.59375 21.87890625 C-18.6246875 23.19761719 -18.655625 24.51632812 -18.6875 25.875 C-18.72568029 27.21486918 -18.76473206 28.55471383 -18.8046875 29.89453125 C-18.89921758 33.17945148 -18.98195733 36.46470706 -19.0625 39.75 C-23.3525 39.75 -27.6425 39.75 -32.0625 39.75 C-32.0625 26.55 -32.0625 13.35 -32.0625 -0.25 C-27.0625 -0.25 -22.0625 -0.25 -17.0625 -0.25 C-11.57866488 -2.07794504 -5.36753079 -2.1908289 0 0 Z " fill="#8B0B42" transform="translate(89.0625,330.25)"/>
<path d="M0 0 C0.721875 0.61875 1.44375 1.2375 2.1875 1.875 C0.74496343 5.24091866 -1.14514727 7.38547079 -3.8125 9.875 C-4.38097656 9.6584375 -4.94945312 9.441875 -5.53515625 9.21875 C-10.5367219 7.41518042 -14.50212036 6.5360396 -19.8125 6.875 C-19.8125 7.865 -19.8125 8.855 -19.8125 9.875 C-18.88308594 10.04515625 -17.95367187 10.2153125 -16.99609375 10.390625 C-4.30857423 12.8778551 -4.30857423 12.8778551 1.1875 16.875 C4.02770766 21.13531149 3.93511497 24.87532488 3.1875 29.875 C1.47037384 33.56988755 -1.30584052 35.5445699 -4.6875 37.75 C-11.53018978 40.23552846 -20.09155654 40.08895781 -26.9375 37.85546875 C-30.96046883 35.91999974 -33.30481045 34.63653432 -35.8125 30.875 C-33.5025 28.565 -31.1925 26.255 -28.8125 23.875 C-25.8405615 24.99951727 -23.47809313 26.09793791 -20.8125 27.875 C-18.06731679 28.11687651 -18.06731679 28.11687651 -15.125 28 C-14.13113281 27.98195313 -13.13726562 27.96390625 -12.11328125 27.9453125 C-11.35402344 27.92210937 -10.59476563 27.89890625 -9.8125 27.875 C-10.1425 26.885 -10.4725 25.895 -10.8125 24.875 C-13.25272224 24.06556043 -15.56415534 23.4301877 -18.0625 22.875 C-28.91267422 20.40810105 -28.91267422 20.40810105 -32.125 16.125 C-33.47347152 11.71182047 -33.19911793 8.0348538 -31.75 3.6875 C-28.71344135 -0.72040771 -25.15698038 -2.5867099 -19.98828125 -3.7734375 C-13.43177243 -4.49925028 -5.5900511 -3.74893642 0 0 Z " fill="#8C0B41" transform="translate(253.8125,332.125)"/>
<path d="M0 0 C11.55 0 23.1 0 35 0 C35 11 35 11 33.34765625 13.90112305 C32.59355469 14.59761963 31.83945313 15.29411621 31.0625 16.01171875 C30.25039062 16.78837891 29.43828125 17.56503906 28.6015625 18.36523438 C27.74304688 19.13158203 26.88453125 19.89792969 26 20.6875 C25.14148438 21.49638672 24.28296875 22.30527344 23.3984375 23.13867188 C21.28976678 25.11847938 19.14801523 27.06295055 17 29 C22.94 29.33 28.88 29.66 35 30 C35 33.63 35 37.26 35 41 C22.79 41 10.58 41 -2 41 C-2 30 -2 30 -0.25585938 27.00708008 C0.54013672 26.26868896 1.33613281 25.53029785 2.15625 24.76953125 C3.01347656 23.94775391 3.87070313 23.12597656 4.75390625 22.27929688 C5.66011719 21.46525391 6.56632812 20.65121094 7.5 19.8125 C8.40621094 18.95591797 9.31242187 18.09933594 10.24609375 17.21679688 C12.47323955 15.1185911 14.73349058 13.05562179 17 11 C11.39 10.67 5.78 10.34 0 10 C0 6.7 0 3.4 0 0 Z " fill="#8B0B42" transform="translate(107,254)"/>
<path d="M0 0 C4.62 0 9.24 0 14 0 C14.83940008 3.08179742 15.67171922 6.16521375 16.5 9.25 C16.73847656 10.12269531 16.97695312 10.99539063 17.22265625 11.89453125 C17.44824219 12.73886719 17.67382812 13.58320313 17.90625 14.453125 C18.11572266 15.22817383 18.32519531 16.00322266 18.54101562 16.80175781 C19 19 19 19 19 23 C19.66 23 20.32 23 21 23 C21.0825 21.80375 21.165 20.6075 21.25 19.375 C21.96436531 12.7111445 24.04707014 6.38562647 26 0 C30.29 0 34.58 0 39 0 C37.33233687 8.57792244 34.59351285 16.77548152 31.875 25.0625 C31.4019611 26.51484938 30.92930174 27.96732244 30.45703125 29.41992188 C29.30975319 32.9483051 28.15473338 36.47401525 27 40 C22.38 40 17.76 40 13 40 C10.28038202 32.97055552 7.88385419 25.83772022 5.5012207 18.68896484 C4.80680823 16.60794285 4.10758724 14.5285744 3.40820312 12.44921875 C2.96585302 11.12509778 2.52378529 9.80088244 2.08203125 8.4765625 C1.68218018 7.28111816 1.2823291 6.08567383 0.87036133 4.85400391 C0 2 0 2 0 0 Z " fill="#8C0B41" transform="translate(113,330)"/>
<path d="M0 0 C4.29 0 8.58 0 13 0 C13 4.29 13 8.58 13 13 C15.64 13 18.28 13 21 13 C21 15.64 21 18.28 21 21 C18.36 21 15.72 21 13 21 C13.33 27.6 13.66 34.2 14 41 C15.98 41.33 17.96 41.66 20 42 C20 45.3 20 48.6 20 52 C14.96036568 53.67987811 10.08887637 53.65058811 5.125 51.8125 C1.49704592 49.70828663 1.16077061 48.90103571 0 45 C-0.22705078 42.22924805 -0.22705078 42.22924805 -0.1953125 39.26171875 C-0.18886719 38.19501953 -0.18242187 37.12832031 -0.17578125 36.02929688 C-0.15902344 34.92650391 -0.14226562 33.82371094 -0.125 32.6875 C-0.11597656 31.56537109 -0.10695313 30.44324219 -0.09765625 29.28710938 C-0.07414486 26.52452091 -0.04128155 23.76237068 0 21 C-1.98 21 -3.96 21 -6 21 C-6 18.36 -6 15.72 -6 13 C-4.02 13 -2.04 13 0 13 C0 8.71 0 4.42 0 0 Z " fill="#8B0B42" transform="translate(281,318)"/>
<path d="M0 0 C4.29 0 8.58 0 13 0 C13 4.29 13 8.58 13 13 C15.64 13 18.28 13 21 13 C21 15.64 21 18.28 21 21 C18.36 21 15.72 21 13 21 C13 27.93 13 34.86 13 42 C15.31 42 17.62 42 20 42 C20 45.3 20 48.6 20 52 C16.30462284 53.84768858 12.04155099 53.34092838 8 53 C2.5910503 51.16482064 2.5910503 51.16482064 0.85595703 47.74536133 C-0.07573778 44.75708177 -0.2287293 42.38618942 -0.1953125 39.26171875 C-0.18886719 38.19501953 -0.18242187 37.12832031 -0.17578125 36.02929688 C-0.15902344 34.92650391 -0.14226562 33.82371094 -0.125 32.6875 C-0.11597656 31.56537109 -0.10695313 30.44324219 -0.09765625 29.28710938 C-0.07414486 26.52452091 -0.04128155 23.76237068 0 21 C-1.65 21 -3.3 21 -5 21 C-5 18.36 -5 15.72 -5 13 C-3.35 13 -1.7 13 0 13 C0 8.71 0 4.42 0 0 Z " fill="#8B0B42" transform="translate(399,242)"/>
<path d="M0 0 C3.96 0 7.92 0 12 0 C12 4.29 12 8.58 12 13 C14.64 13 17.28 13 20 13 C20 15.64 20 18.28 20 21 C17.36 21 14.72 21 12 21 C12.33 27.6 12.66 34.2 13 41 C14.98 41.33 16.96 41.66 19 42 C19 45.3 19 48.6 19 52 C15.31859602 53.84070199 11.02730403 53.36784824 7 53 C3.97713116 51.61451845 2.33128575 50.33128575 0 48 C-0.22705078 45.29443359 -0.22705078 45.29443359 -0.1953125 41.8984375 C-0.18886719 40.68671875 -0.18242187 39.475 -0.17578125 38.2265625 C-0.15902344 36.95554687 -0.14226562 35.68453125 -0.125 34.375 C-0.11597656 33.09625 -0.10695313 31.8175 -0.09765625 30.5 C-0.07402303 27.33314833 -0.04107629 24.16666576 0 21 C-1.98 21 -3.96 21 -6 21 C-6 18.36 -6 15.72 -6 13 C-4.02 13 -2.04 13 0 13 C0 8.71 0 4.42 0 0 Z " fill="#8B0B42" transform="translate(335,242)"/>
<path d="M0 0 C0 3.96 0 7.92 0 12 C-2.27864583 12.42317708 -4.55729167 12.84635417 -6.8359375 13.26953125 C-9.35820641 13.87544942 -9.35820641 13.87544942 -11 17 C-11.36798693 19.71075544 -11.36798693 19.71075544 -11.4140625 22.76171875 C-11.47207031 24.43911133 -11.47207031 24.43911133 -11.53125 26.15039062 C-11.5621875 27.31763672 -11.593125 28.48488281 -11.625 29.6875 C-11.68300781 31.45577148 -11.68300781 31.45577148 -11.7421875 33.25976562 C-11.83654057 36.17291668 -11.91936242 39.08643703 -12 42 C-15.96 42 -19.92 42 -24 42 C-24 28.47 -24 14.94 -24 1 C-20.04 1 -16.08 1 -12 1 C-11.67 1.66 -11.34 2.32 -11 3 C-10.37351562 2.7834375 -9.74703125 2.566875 -9.1015625 2.34375 C-8.28429687 2.0653125 -7.46703125 1.786875 -6.625 1.5 C-5.81289062 1.2215625 -5.00078125 0.943125 -4.1640625 0.65625 C-2 0 -2 0 0 0 Z " fill="#8B0B42" transform="translate(86,253)"/>
<path d="M0 0 C0 3.96 0 7.92 0 12 C-3.41796875 12.5859375 -3.41796875 12.5859375 -6.8359375 13.171875 C-9.1077298 13.79742146 -9.1077298 13.79742146 -10.109375 15.71289062 C-11.15154517 18.38916533 -11.31844394 20.55331834 -11.4140625 23.421875 C-11.47207031 24.95908203 -11.47207031 24.95908203 -11.53125 26.52734375 C-11.57765625 28.12255859 -11.57765625 28.12255859 -11.625 29.75 C-11.68300781 31.36841797 -11.68300781 31.36841797 -11.7421875 33.01953125 C-11.83634248 35.67940932 -11.9192555 38.33968106 -12 41 C-15.96 41 -19.92 41 -24 41 C-24 27.8 -24 14.6 -24 1 C-20.04 1 -16.08 1 -12 1 C-11.67 1.66 -11.34 2.32 -11 3 C-10.45730469 2.7834375 -9.91460937 2.566875 -9.35546875 2.34375 C-8.64003906 2.0653125 -7.92460937 1.786875 -7.1875 1.5 C-6.12595703 1.08234375 -6.12595703 1.08234375 -5.04296875 0.65625 C-3 0 -3 0 0 0 Z " fill="#8B0B42" transform="translate(220,329)"/>
<path d="M0 0 C4.29 0 8.58 0 13 0 C13 13.2 13 26.4 13 40 C8.71 40 4.42 40 0 40 C0 26.8 0 13.6 0 0 Z " fill="#8B0B42" transform="translate(98,330)"/>
<path d="M0 0 C3.96 0 7.92 0 12 0 C12 13.53 12 27.06 12 41 C8.04 41 4.08 41 0 41 C0 27.47 0 13.94 0 0 Z " fill="#8B0B42" transform="translate(89,254)"/>
<path d="M0 0 C3.96 0 7.92 0 12 0 C12 13.2 12 26.4 12 40 C8.04 40 4.08 40 0 40 C0 26.8 0 13.6 0 0 Z " fill="#8B0B42" transform="translate(260,330)"/>
<path d="M0 0 C3.0405509 0.22113097 5.98439874 0.56164192 9 1 C10.00498535 1.14598633 10.00498535 1.14598633 11.03027344 1.29492188 C24.5627079 3.40992488 24.5627079 3.40992488 27.984375 7.1953125 C29.31129801 10.18569696 30 12.73101691 30 16 C26.37 16 22.74 16 19 16 C19 15.67 19 15.34 19 15 C22.465 14.505 22.465 14.505 26 14 C25.2479126 13.68248779 24.4958252 13.36497559 23.72094727 13.0378418 C20.32994012 11.59887483 16.94624869 10.1434483 13.5625 8.6875 C12.37849609 8.18798828 11.19449219 7.68847656 9.97460938 7.17382812 C8.84990234 6.68720703 7.72519531 6.20058594 6.56640625 5.69921875 C5.52427979 5.25408936 4.48215332 4.80895996 3.40844727 4.3503418 C1 3 1 3 0 0 Z " fill="#F1B53E" transform="translate(114,89)"/>
<path d="M0 0 C4.66099543 1.59243222 8.40709376 4.11841109 12.4375 6.875 C13.08009766 7.30941406 13.72269531 7.74382812 14.38476562 8.19140625 C15.6519758 9.04822044 16.91685602 9.90849229 18.17919922 10.77246094 C19.37723677 11.58014836 20.58716171 12.37052202 21.80908203 13.14160156 C23.2375965 14.04642523 24.62386225 15.01734831 26 16 C26 16.66 26 17.32 26 18 C20.11792344 17.38443385 15.03902565 15.17339219 9.625 12.9375 C8.69816406 12.56044922 7.77132813 12.18339844 6.81640625 11.79492188 C4.54197521 10.86873604 2.27000333 9.93697332 0 9 C0 6.03 0 3.06 0 0 Z " fill="#F6BD3C" transform="translate(255,142)"/>
<path d="M0 0 C3.6875 0.25 3.6875 0.25 6.125 1.25 C8.2471471 3.96634829 8.19599613 6.00184217 8.00390625 9.37890625 C7.6875 11.25 7.6875 11.25 6.5625 13.1875 C3.86073836 14.71849826 1.79314495 15.1257742 -1.3125 15.25 C-4.125 14.1875 -4.125 14.1875 -6.3125 12.25 C-7.3125 9.375 -7.3125 9.375 -7.3125 6.25 C-4.42003156 0.33358729 -4.42003156 0.33358729 0 0 Z M-2.3125 2.25 C-2.3125 2.58 -2.3125 2.91 -2.3125 3.25 C-0.3325 3.25 1.6475 3.25 3.6875 3.25 C3.6875 2.92 3.6875 2.59 3.6875 2.25 C1.7075 2.25 -0.2725 2.25 -2.3125 2.25 Z M-3.3125 3.25 C-5.61325262 6.01745084 -5.61325262 6.01745084 -5.0625 8.875 C-4.815 9.65875 -4.5675 10.4425 -4.3125 11.25 C-3.6525 11.58 -2.9925 11.91 -2.3125 12.25 C-2.3125 9.28 -2.3125 6.31 -2.3125 3.25 C-2.6425 3.25 -2.9725 3.25 -3.3125 3.25 Z M3.6875 3.25 C3.6875 5.56 3.6875 7.87 3.6875 10.25 C4.3475 10.25 5.0075 10.25 5.6875 10.25 C5.6875 8.27 5.6875 6.29 5.6875 4.25 C5.0275 3.92 4.3675 3.59 3.6875 3.25 Z M-0.3125 9.25 C-0.6425 10.57 -0.9725 11.89 -1.3125 13.25 C0.0075 12.92 1.3275 12.59 2.6875 12.25 C1.6975 11.26 0.7075 10.27 -0.3125 9.25 Z " fill="#8B0B41" transform="translate(397.3125,33.75)"/>
<path d="M0 0 C4.29 0 8.58 0 13 0 C13 3.3 13 6.6 13 10 C8.71 10 4.42 10 0 10 C0 6.7 0 3.4 0 0 Z " fill="#8B0B42" transform="translate(98,316)"/>
<path d="M0 0 C3.96 0 7.92 0 12 0 C12 3.3 12 6.6 12 10 C8.04 10 4.08 10 0 10 C0 6.7 0 3.4 0 0 Z " fill="#8B0B42" transform="translate(260,316)"/>
<path d="M0 0 C3.96 0 7.92 0 12 0 C12 3.3 12 6.6 12 10 C8.04 10 4.08 10 0 10 C0 6.7 0 3.4 0 0 Z " fill="#8B0B42" transform="translate(89,240)"/>
<path d="M0 0 C6.2568883 4.3474292 12.00697748 9.22103875 17 15 C17 15.66 17 16.32 17 17 C10.6794947 15.06821351 4.94604256 12.46265969 0 8 C-0.98648028 4.87705414 -0.63562408 3.29368844 0 0 Z " fill="#F6BE3C" transform="translate(255,155)"/>
<path d="M0 0 C4.14286017 0.68528514 7.84113813 1.97890443 11.75 3.5 C12.89984375 3.9434375 14.0496875 4.386875 15.234375 4.84375 C18 6 18 6 19 7 C19.04080783 8.99958364 19.04254356 11.00045254 19 13 C14.48473802 11.41145659 10.68482058 9.07705734 6.6875 6.5 C6.04232422 6.09652344 5.39714844 5.69304687 4.73242188 5.27734375 C3.11718738 4.24154258 1.55327117 3.12659452 0 2 C0 1.34 0 0.68 0 0 Z " fill="#F8C03B" transform="translate(120,76)"/>
<path d="M0 0 C7 2.6 7 2.6 10 5 C10.3125 8.1875 10.3125 8.1875 10 11 C8.70684939 10.04367001 7.41553147 9.08486149 6.125 8.125 C5.40570313 7.59132813 4.68640625 7.05765625 3.9453125 6.5078125 C2 5 2 5 0 3 C0 2.01 0 1.02 0 0 Z " fill="#F3B83E" transform="translate(130,64)"/>
<path d="M0 0 C3.44620861 1.1487362 4.09169196 2.07581642 6.1875 4.9375 C6.71730469 5.64777344 7.24710937 6.35804688 7.79296875 7.08984375 C9 9 9 9 9 11 C4.62140745 10.49477778 2.18348776 7.82172778 -1 5 C-0.67 3.35 -0.34 1.7 0 0 Z " fill="#F5BB3D" transform="translate(252,171)"/>
<path d="M0 0 C0.66 0.33 1.32 0.66 2 1 C-0.97 3.97 -0.97 3.97 -4 7 C-3.67 7.66 -3.34 8.32 -3 9 C-5.31 9.66 -7.62 10.32 -10 11 C-6.79239749 7.19364503 -3.59253891 3.45436433 0 0 Z " fill="#9A2A47" transform="translate(259,77)"/>
<path d="M0 0 C1.66519519 0.34060811 3.33157466 0.67558396 5 1 C5 1.33 5 1.66 5 2 C-3.57142857 2.28571429 -3.57142857 2.28571429 -7 0 C-3.7407369 -1.08642103 -3.1336898 -0.92167347 0 0 Z " fill="#AC494A" transform="translate(265,113)"/>
</svg>
