<?xml version="1.0" encoding="utf-8"?>
<!-- Generator: Adobe Illustrator 25.4.1, SVG Export Plug-In . SVG Version: 6.00 Build 0)  -->
<svg version="1.1" xmlns="http://www.w3.org/2000/svg" xmlns:xlink="http://www.w3.org/1999/xlink" x="0px" y="0px"
	 viewBox="0 0 50 50" style="enable-background:new 0 0 50 50;" xml:space="preserve">
<g>
	<path style="fill:#F7BE3D;" d="M23.5,13.1v4.4l11-8l-11-8v5.58C14.28,7.84,7,15.58,7,25c0,4.22,1.49,8.32,4.2,11.55l4.6-3.85
		c-1.8-2.15-2.8-4.89-2.8-7.7C13,18.89,17.59,13.85,23.5,13.1z"/>
	<path style="fill:#F7BE3D;" d="M43,25c0-4.05-1.38-8.02-3.9-11.19l-4.7,3.73C36.1,19.68,37,22.26,37,25
		c0,5.76-4.08,10.58-9.5,11.73V32.5l-11,8l11,8v-5.69C36.24,41.58,43,34.07,43,25z"/>
</g>
</svg>
