<?xml version="1.0" encoding="UTF-8"?>
<svg width="18px" height="18px" viewBox="0 0 18 18" version="1.1" xmlns="http://www.w3.org/2000/svg" xmlns:xlink="http://www.w3.org/1999/xlink">
    <title>Group 3</title>
    <defs>
        <polygon id="path-1" points="0 0 18 0 18 18 0 18"></polygon>
    </defs>
    <g id="Desktop" stroke="none" stroke-width="1" fill="none" fill-rule="evenodd">
        <g id="Language-Dropdown" transform="translate(-1188.000000, -3718.000000)">
            <g id="Group-3" transform="translate(1188.000000, 3718.000000)">
                <mask id="mask-2" fill="white">
                    <use xlink:href="#path-1"></use>
                </mask>
                <g id="Clip-2"></g>
                <path d="M14.94503,14.3035577 C14.0587116,13.5219362 13.043852,12.9311982 11.9497124,12.55251 C12.0859507,11.5842384 12.1644609,10.5528521 12.1837036,9.51415377 L16.9535823,9.51415377 C16.8362019,11.3471735 16.0972825,13.0131703 14.94503,14.3035577 L14.94503,14.3035577 Z M13.7431314,15.4026768 C13.6707789,15.4561704 13.5976567,15.5077397 13.5237647,15.5585393 C13.4140814,15.6343539 13.3032435,15.7070897 13.1908661,15.7771316 C13.0950375,15.8363978 12.9976695,15.893355 12.8999166,15.9487728 C12.8044729,16.0026512 12.7078745,16.0538356 12.6108914,16.1034807 C12.4977443,16.1612076 12.3830579,16.2162405 12.2672169,16.2685795 C12.1606123,16.3163004 12.0528533,16.3624818 11.9443245,16.4055845 C11.8569626,16.4406055 11.7684463,16.4752416 11.679545,16.5071838 C11.5333005,16.5591379 11.3851318,16.6068588 11.2358085,16.6503464 C11.1707682,16.6692038 11.1057279,16.6884461 11.0403028,16.7057641 C10.9225375,16.7369366 10.8024631,16.7611819 10.6831584,16.7869666 C11.1603772,15.9968785 11.5259883,14.8746686 11.7780676,13.5827418 C12.6609224,13.9106303 13.4837399,14.3963055 14.210344,15.0255281 C14.1799406,15.0520824 14.1495371,15.0790216 14.1187488,15.1051911 C13.9959804,15.2083298 13.8709029,15.3076199 13.7431314,15.4026768 L13.7431314,15.4026768 Z M7.21947361,13.2933379 C7.79790896,13.1617207 8.39289303,13.0862909 9.00019243,13.0862909 C9.60749182,13.0862909 10.2024759,13.1617207 10.7812961,13.2933379 C10.3348656,15.6124177 9.58132176,16.9716925 9.00019243,16.9716925 C8.41867824,16.9716925 7.66551923,15.6124177 7.21947361,13.2933379 L7.21947361,13.2933379 Z M6.95892754,16.7057641 C6.89427209,16.6884461 6.83038635,16.6695886 6.76650061,16.6507312 C6.61448333,16.606474 6.46362062,16.5583683 6.31506703,16.5048747 C6.22924462,16.4744719 6.14457677,16.4409903 6.06029377,16.4075088 C5.9483013,16.3628667 5.83746339,16.3159155 5.72778003,16.2662704 C5.61655727,16.2158556 5.50648906,16.1631318 5.39796027,16.107714 C5.29635885,16.0561447 5.19552714,16.0022663 5.09584999,15.9460789 C5.00463963,15.8945095 4.91419897,15.8425554 4.82529773,15.7871376 C4.70560818,15.7136321 4.58822775,15.6362781 4.47238674,15.5558454 C4.40118877,15.5062003 4.32999081,15.45694 4.26071711,15.4049859 C4.13025165,15.3083896 4.00286502,15.2071752 3.87778752,15.1017275 C3.84815377,15.0770974 3.81928973,15.0509279 3.79004084,15.0259129 C4.51664493,14.3966903 5.33946249,13.9106303 6.2227021,13.5827418 C6.47439653,14.8746686 6.8400077,15.9968785 7.31761134,16.7869666 C7.19753694,16.7611819 7.07707768,16.7369366 6.95892754,16.7057641 L6.95892754,16.7057641 Z M1.04680251,9.51415377 L5.81668128,9.51415377 C5.83592397,10.5528521 5.91443416,11.5842384 6.05067243,12.55251 C4.95653289,12.9311982 3.94128841,13.5219362 3.05535481,14.3035577 C1.9027175,13.0131703 1.16418293,11.3471735 1.04680251,9.51415377 L1.04680251,9.51415377 Z M3.05535481,3.69644232 C3.94128841,4.4780638 4.95653289,5.06880185 6.05067243,5.44748995 C5.91443416,6.41576157 5.83592397,7.44714787 5.81668128,8.48584623 L1.04680251,8.48584623 C1.16418293,6.65282648 1.9027175,4.98682973 3.05535481,3.69644232 L3.05535481,3.69644232 Z M4.26379594,2.59270504 C4.33076051,2.54305995 4.3992645,2.49495425 4.46776849,2.44761823 C4.58938231,2.36295219 4.7129204,2.28136492 4.83876761,2.20401095 C4.92189605,2.15282648 5.00617904,2.10472077 5.09123175,2.05661507 C5.19475744,1.99811853 5.29943769,1.94231592 5.40488764,1.88843753 C5.50956789,1.83571367 5.61540271,1.78491405 5.72239208,1.7364235 C5.83553912,1.68523903 5.94907101,1.63674848 6.06452716,1.59095185 C6.14496162,1.55900966 6.22539608,1.52706748 6.3069851,1.49781921 C6.45938723,1.44317113 6.61332877,1.39391089 6.76880973,1.3484991 C6.83154091,1.33041136 6.89427209,1.31155392 6.95738813,1.29500556 C7.07630797,1.26344822 7.19715208,1.23920294 7.31761134,1.21341828 C6.8400077,2.00312153 6.47439653,3.12533139 6.2227021,4.41725819 C5.33907763,4.08936971 4.51626008,3.60369452 3.79004084,2.97447191 C3.81775032,2.95061148 3.84507494,2.92598136 3.87316927,2.90212093 C4.00094075,2.794749 4.13063651,2.69161037 4.26379594,2.59270504 L4.26379594,2.59270504 Z M10.7812961,4.70666211 C10.2024759,4.83827931 9.60749182,4.91370906 9.00019243,4.91370906 C8.39289303,4.91370906 7.79790896,4.83827931 7.21947361,4.70666211 C7.66551923,2.38758231 8.41867824,1.02830753 9.00019243,1.02830753 C9.58132176,1.02830753 10.3348656,2.38758231 10.7812961,4.70666211 L10.7812961,4.70666211 Z M11.0414573,1.29462071 C11.1061128,1.31155392 11.1696136,1.3307962 11.2334994,1.34926879 C11.3862864,1.39352604 11.5375339,1.44240144 11.6868572,1.49551013 C11.7722948,1.52629778 11.8565778,1.55939451 11.9400911,1.59287608 C12.0520836,1.63713333 12.1629215,1.68446934 12.2726048,1.73411443 C12.3842124,1.78452921 12.4946655,1.83725306 12.6035791,1.89305567 C12.7047957,1.94462499 12.8048577,1.99773369 12.90415,2.05392115 C12.9965149,2.10587531 13.0877253,2.15859916 13.1770114,2.21401693 C13.2959312,2.28752245 13.4129268,2.36449158 13.5279981,2.44453947 C13.5995809,2.49379971 13.6700092,2.5434448 13.7396677,2.59501411 C13.8701332,2.69199521 13.9979047,2.79359446 14.1229822,2.89904216 C14.1526159,2.92367228 14.18148,2.94945694 14.210344,2.97485675 C13.4841248,3.60369452 12.6613072,4.08898486 11.7780676,4.41725819 C11.5259883,3.12533139 11.1603772,2.00312153 10.6831584,1.21341828 C10.8028479,1.23920294 10.9233072,1.26344822 11.0414573,1.29462071 L11.0414573,1.29462071 Z M11.1526801,9.51415377 C11.1334374,10.5174463 11.0630091,11.4437698 10.9502469,12.2719576 C10.3167775,12.1322586 9.66406534,12.0583683 9.00019243,12.0583683 C8.33631951,12.0583683 7.68360736,12.1322586 7.05013791,12.2719576 C6.93737572,11.4437698 6.86694747,10.5174463 6.84770477,9.51415377 L11.1526801,9.51415377 Z M6.84770477,8.48584623 C6.86694747,7.48255366 6.93737572,6.55661507 7.05013791,5.72842726 C7.68360736,5.86774138 8.33631951,5.94201659 9.00019243,5.94201659 C9.66406534,5.94201659 10.3167775,5.86774138 10.9502469,5.72842726 C11.0630091,6.55623022 11.1334374,7.48255366 11.1526801,8.48584623 L6.84770477,8.48584623 Z M16.9535823,8.48584623 L12.1837036,8.48584623 C12.1644609,7.44714787 12.0859507,6.41576157 11.9497124,5.44748995 C13.043852,5.06880185 14.0590964,4.47844864 14.94503,3.69682716 C16.0972825,4.98721457 16.8362019,6.65321132 16.9535823,8.48584623 L16.9535823,8.48584623 Z M15.3433538,2.62195331 C15.3387355,2.61733516 15.337581,2.61079278 15.3325779,2.60578979 C13.9663467,1.25267254 12.2418165,0.390233473 10.3756601,0.105062858 C10.3729662,0.104678012 10.3702722,0.104293167 10.3675782,0.103908321 C10.236343,0.0838963482 10.1035685,0.067347986 9.97079387,0.0531086975 C9.95116632,0.0511844693 9.93230848,0.0481057043 9.91306579,0.0461814761 C9.79145197,0.0338664158 9.66906844,0.0253998119 9.54630006,0.0180877448 C9.51628146,0.0165483623 9.48664771,0.0130847516 9.45662911,0.011545369 C9.30499669,0.00423330198 9.15297941,0 9.00019243,0 C8.84740544,0 8.69500331,0.00423330198 8.54375575,0.011545369 C8.51335229,0.0130847516 8.48294884,0.0165483623 8.45254538,0.0184725904 C8.33054671,0.0253998119 8.20854803,0.0338664158 8.08770392,0.0461814761 C8.06692181,0.0481057043 8.04690941,0.051569315 8.02651215,0.0534935431 C7.89450728,0.0677328316 7.76327211,0.0838963482 7.63280665,0.103908321 C7.62895812,0.104293167 7.62472472,0.105062858 7.62087618,0.105832549 C5.75625922,0.39138801 4.03288362,1.25344223 2.66819183,2.60578979 C2.66357358,2.61040794 2.66203417,2.61656547 2.65780077,2.62118361 C1.01755361,4.25215941 0,6.50927906 0,9 C0,11.4903361 1.01716876,13.7474557 2.65741592,15.3784315 C2.66164931,15.3834345 2.66318873,15.3899769 2.66819183,15.3942102 C4.03365333,16.7469426 5.75741378,17.6089968 7.6224156,17.8945523 C7.62587928,17.8949371 7.62934297,17.8957068 7.63280665,17.8960917 C7.76327211,17.9161037 7.89489213,17.9322672 8.02689701,17.9465065 C8.04729426,17.9488155 8.06730666,17.9518943 8.08731907,17.9538185 C8.20854803,17.9661336 8.33016185,17.9746002 8.45216053,17.9819123 C8.48256398,17.9834516 8.51296744,17.9869152 8.54375575,17.9884546 C8.69500331,17.9957667 8.84740544,18 9.00019243,18 C9.15297941,18 9.30499669,17.9957667 9.45662911,17.9884546 C9.48664771,17.9869152 9.51666631,17.9838365 9.54630006,17.9819123 C9.66906844,17.9746002 9.79145197,17.9661336 9.91306579,17.9538185 C9.93230848,17.9518943 9.95116632,17.9488155 9.97040901,17.9468913 C10.1035685,17.932652 10.236343,17.9161037 10.3679631,17.8960917 C10.3698873,17.8957068 10.3714267,17.895322 10.373351,17.895322 C12.2406619,17.6105362 13.965577,16.7480972 15.3325779,15.3942102 C15.337581,15.3895921 15.3391204,15.3826648 15.3437386,15.3776618 C16.9836009,13.7466861 18,11.4899513 18,9 C18,6.5096639 16.9832161,4.2529291 15.3433538,2.62195331 L15.3433538,2.62195331 Z" id="Fill-1" fill="#002E5F" mask="url(#mask-2)"></path>
            </g>
        </g>
    </g>
</svg>