<?xml version="1.0" encoding="utf-8"?>
<!-- Generator: Adobe Illustrator 25.4.1, SVG Export Plug-In . SVG Version: 6.00 Build 0)  -->
<svg version="1.1" xmlns="http://www.w3.org/2000/svg" xmlns:xlink="http://www.w3.org/1999/xlink" x="0px" y="0px"
	 viewBox="0 0 60 60" style="enable-background:new 0 0 60 60;" xml:space="preserve">
<path style="fill:none;stroke:#0179B7;stroke-width:2;stroke-linecap:round;stroke-linejoin:round;stroke-miterlimit:10;" d="
	M49.5,59H10.5C5.25,59,1,54.75,1,49.5V10.5C1,5.25,5.25,1,10.5,1H49.5c5.25,0,9.5,4.25,9.5,9.5V49.5C59,54.75,54.75,59,49.5,59z"/>
<circle style="fill:none;stroke:#0179B7;stroke-width:2;stroke-linecap:round;stroke-linejoin:round;stroke-miterlimit:10;" cx="16" cy="30" r="9"/>
<polygon style="fill:none;stroke:#0179B7;stroke-width:2;stroke-linecap:round;stroke-linejoin:round;stroke-miterlimit:10;" points="
	45,52 26,52 35.5,37.22 "/>
<polygon style="fill:none;stroke:#0179B7;stroke-width:2;stroke-linecap:round;stroke-linejoin:round;stroke-miterlimit:10;" points="
	41,7.06 43.91,16 53.31,16 45.7,21.53 48.61,30.47 41,24.94 33.39,30.47 36.3,21.53 28.69,16 38.09,16 "/>
</svg>
